AtkinsonHyperlegibleNext-Light.sfdir
StartChar: exclam
Encoding: 33 33 263
Width: 271
GlyphClass: 1
Flags: W
LayerCount: 2
Fore
SplineSet
100 497 m 1,0,-1
 100 668 l 1,1,-1
 171 668 l 1,2,-1
 171 497 l 1,3,-1
 156 182 l 1,4,-1
 115 182 l 1,5,-1
 100 497 l 1,0,-1
96.5 4 m 128,-1,7
 80 20 80 20 80 43 c 256,8,9
 80 66 80 66 96.5 82.5 c 128,-1,10
 113 99 113 99 136 99 c 256,11,12
 159 99 159 99 175 82.5 c 128,-1,13
 191 66 191 66 191 43 c 0,14,15
 191 21 191 21 175 4.5 c 128,-1,16
 159 -12 159 -12 136 -12 c 256,17,6
 113 -12 113 -12 96.5 4 c 128,-1,7
EndSplineSet
EndChar
StartChar: quotedbl
Encoding: 34 34 293
Width: 270
GlyphClass: 1
Flags: W
LayerCount: 2
Fore
SplineSet
168 668 m 1,0,-1
 230 668 l 1,1,-1
 216 451 l 1,2,-1
 182 451 l 1,3,-1
 168 668 l 1,0,-1
40 668 m 1,4,-1
 103 668 l 1,5,-1
 89 451 l 1,6,-1
 54 451 l 1,7,-1
 40 668 l 1,4,-1
EndSplineSet
EndChar
StartChar: numbersign
Encoding: 35 35 270
Width: 609
GlyphClass: 1
Flags: W
LayerCount: 2
Fore
SplineSet
161 186 m 1,0,-1
 38 186 l 1,1,-1
 47 247 l 1,2,-1
 169 247 l 1,3,-1
 193 421 l 1,4,-1
 71 421 l 1,5,-1
 79 482 l 1,6,-1
 201 482 l 1,7,-1
 227 668 l 1,8,-1
 290 668 l 1,9,-1
 265 482 l 1,10,-1
 389 482 l 1,11,-1
 415 668 l 1,12,-1
 478 668 l 1,13,-1
 453 482 l 1,14,-1
 571 482 l 1,15,-1
 562 421 l 1,16,-1
 443 421 l 1,17,-1
 420 247 l 1,18,-1
 539 247 l 1,19,-1
 530 186 l 1,20,-1
 411 186 l 1,21,-1
 385 0 l 1,22,-1
 321 0 l 1,23,-1
 347 186 l 1,24,-1
 222 186 l 1,25,-1
 197 0 l 1,26,-1
 133 0 l 1,27,-1
 161 186 l 1,0,-1
357 247 m 1,28,-1
 379 421 l 1,29,-1
 255 421 l 1,30,-1
 232 247 l 1,31,-1
 357 247 l 1,28,-1
EndSplineSet
EndChar
StartChar: dollar
Encoding: 36 36 313
Width: 586
GlyphClass: 1
Flags: W
LayerCount: 2
Fore
SplineSet
126 34 m 128,-1,1
 64 73 64 73 43 143 c 1,2,-1
 109 168 l 1,3,4
 124 117 124 117 166.5 86.5 c 128,-1,5
 209 56 209 56 264 50 c 1,6,-1
 264 321 l 1,7,-1
 231 329 l 2,8,9
 148 349 148 349 103.5 388.5 c 128,-1,10
 59 428 59 428 59 499 c 0,11,12
 59 548 59 548 86 587 c 128,-1,13
 113 626 113 626 159.5 650 c 128,-1,14
 206 674 206 674 264 679 c 1,15,-1
 264 758 l 1,16,-1
 308 758 l 1,17,-1
 308 680 l 1,18,19
 378 677 378 677 434 647 c 128,-1,20
 490 617 490 617 518 561 c 1,21,-1
 451 535 l 1,22,23
 432 572 432 572 393 594 c 128,-1,24
 354 616 354 616 308 619 c 1,25,-1
 308 379 l 1,26,-1
 342 371 l 2,27,28
 445 346 445 346 494 305 c 128,-1,29
 543 264 543 264 543 185 c 0,30,31
 543 128 543 128 511.5 84.5 c 128,-1,32
 480 41 480 41 426.5 16.5 c 128,-1,33
 373 -8 373 -8 308 -12 c 1,34,-1
 308 -90 l 1,35,-1
 264 -90 l 1,36,-1
 264 -11 l 1,37,0
 188 -5 188 -5 126 34 c 128,-1,1
426 87.5 m 128,-1,39
 472 123 472 123 472 185 c 0,40,41
 472 231 472 231 440 258.5 c 128,-1,42
 408 286 408 286 324 306 c 1,43,-1
 308 311 l 1,44,-1
 308 49 l 1,45,38
 380 52 380 52 426 87.5 c 128,-1,39
168 581.5 m 128,-1,47
 130 551 130 551 130 500 c 0,48,49
 130 423 130 423 247 394 c 2,50,-1
 264 390 l 1,51,-1
 264 618 l 1,52,46
 206 612 206 612 168 581.5 c 128,-1,47
EndSplineSet
EndChar
StartChar: ampersand
Encoding: 38 38 298
Width: 732
GlyphClass: 1
Flags: W
LayerCount: 2
Fore
SplineSet
169.5 12.5 m 128,-1,1
 118 36 118 36 90 78.5 c 128,-1,2
 62 121 62 121 62 177 c 0,3,4
 62 253 62 253 112.5 304.5 c 128,-1,5
 163 356 163 356 247 388 c 1,6,7
 209 425 209 425 188.5 461 c 128,-1,8
 168 497 168 497 168 535 c 0,9,10
 168 575 168 575 190 608.5 c 128,-1,11
 212 642 212 642 251 661.5 c 128,-1,12
 290 681 290 681 340 681 c 0,13,14
 382 681 382 681 421 665.5 c 128,-1,15
 460 650 460 650 485 617.5 c 128,-1,16
 510 585 510 585 510 538 c 0,17,18
 510 429 510 429 362 366 c 1,19,-1
 520 205 l 1,20,21
 546 259 546 259 549 345 c 1,22,-1
 619 345 l 1,23,24
 612 234 612 234 567 156 c 1,25,-1
 717 0 l 1,26,-1
 622 0 l 1,27,-1
 528 98 l 1,28,29
 487 46 487 46 426.5 17.5 c 128,-1,30
 366 -11 366 -11 289 -11 c 0,31,0
 221 -11 221 -11 169.5 12.5 c 128,-1,1
483 142 m 1,33,-1
 288 345 l 1,34,35
 216 316 216 316 174.5 277 c 128,-1,36
 133 238 133 238 133 180 c 0,37,38
 133 118 133 118 178.5 83.5 c 128,-1,39
 224 49 224 49 288 49 c 0,40,32
 412 49 412 49 483 142 c 1,33,-1
410 460.5 m 128,-1,42
 443 492 443 492 443 535 c 0,43,44
 443 575 443 575 412.5 599 c 128,-1,45
 382 623 382 623 339 623 c 0,46,47
 297 623 297 623 268 599.5 c 128,-1,48
 239 576 239 576 239 539 c 0,49,50
 239 507 239 507 258 479 c 128,-1,51
 277 451 277 451 320 408 c 1,52,41
 377 429 377 429 410 460.5 c 128,-1,42
EndSplineSet
EndChar
StartChar: parenleft
Encoding: 40 40 277
Width: 286
GlyphClass: 1
Flags: W
LayerCount: 2
Fore
SplineSet
91.5 47 m 128,-1,1
 59 160 59 160 59 273 c 0,2,3
 59 507 59 507 184 708 c 1,4,-1
 252 708 l 1,5,6
 124 507 124 507 124 273 c 0,7,8
 124 160 124 160 157.5 47 c 128,-1,9
 191 -66 191 -66 252 -162 c 1,10,-1
 184 -162 l 1,11,0
 124 -66 124 -66 91.5 47 c 128,-1,1
EndSplineSet
EndChar
StartChar: parenright
Encoding: 41 41 278
Width: 286
GlyphClass: 1
Flags: W
LayerCount: 2
Fore
SplineSet
162 274 m 0,1,2
 162 387 162 387 128.5 500 c 128,-1,3
 95 613 95 613 34 709 c 1,4,-1
 102 709 l 1,5,6
 162 613 162 613 195 500 c 128,-1,7
 228 387 228 387 228 274 c 0,8,9
 228 42 228 42 102 -161 c 1,10,-1
 34 -161 l 1,11,0
 162 40 162 40 162 274 c 0,1,2
EndSplineSet
EndChar
StartChar: asterisk
Encoding: 42 42 269
Width: 479
GlyphClass: 1
Flags: W
LayerCount: 2
Fore
SplineSet
120 384 m 1,0,-1
 197 490 l 1,1,-1
 72 528 l 1,2,-1
 88 578 l 1,3,-1
 213 537 l 1,4,-1
 213 668 l 1,5,-1
 264 668 l 1,6,-1
 264 537 l 1,7,-1
 388 578 l 1,8,-1
 405 528 l 1,9,-1
 277 490 l 1,10,-1
 355 384 l 1,11,-1
 315 354 l 1,12,-1
 236 459 l 1,13,-1
 161 354 l 1,14,-1
 120 384 l 1,0,-1
EndSplineSet
EndChar
StartChar: plus
Encoding: 43 43 320
Width: 606
GlyphClass: 1
Flags: W
LayerCount: 2
Fore
SplineSet
271 216 m 1,0,-1
 55 216 l 1,1,-1
 55 280 l 1,2,-1
 271 280 l 1,3,-1
 271 496 l 1,4,-1
 335 496 l 1,5,-1
 335 280 l 1,6,-1
 551 280 l 1,7,-1
 551 216 l 1,8,-1
 335 216 l 1,9,-1
 335 0 l 1,10,-1
 271 0 l 1,11,-1
 271 216 l 1,0,-1
EndSplineSet
EndChar
StartChar: comma
Encoding: 44 44 259
Width: 189
GlyphClass: 1
Flags: W
LayerCount: 2
Fore
SplineSet
53 7 m 128,-1,1
 39 23 39 23 39 43 c 0,2,3
 39 66 39 66 55.5 82.5 c 128,-1,4
 72 99 72 99 94 99 c 0,5,6
 118 99 118 99 134 82.5 c 128,-1,7
 150 66 150 66 150 44 c 0,8,9
 150 32 150 32 144 17 c 2,10,-1
 88 -129 l 1,11,-1
 42 -129 l 1,12,-1
 88 -12 l 1,13,0
 67 -9 67 -9 53 7 c 128,-1,1
EndSplineSet
EndChar
StartChar: period
Encoding: 46 46 258
Width: 189
GlyphClass: 1
Flags: W
LayerCount: 2
Fore
SplineSet
55.5 4.5 m 128,-1,1
 39 21 39 21 39 43 c 0,2,3
 39 66 39 66 55 82.5 c 128,-1,4
 71 99 71 99 94 99 c 256,5,6
 117 99 117 99 133.5 82.5 c 128,-1,7
 150 66 150 66 150 43 c 256,8,9
 150 20 150 20 133.5 4 c 128,-1,10
 117 -12 117 -12 94 -12 c 0,11,0
 72 -12 72 -12 55.5 4.5 c 128,-1,1
EndSplineSet
EndChar
StartChar: slash
Encoding: 47 47 271
Width: 368
GlyphClass: 5
Flags: W
LayerCount: 2
Fore
SplineSet
283 708 m 1,0,-1
 348 708 l 1,1,-1
 84 -90 l 1,2,-1
 20 -90 l 1,3,-1
 283 708 l 1,0,-1
EndSplineSet
EndChar
StartChar: zero
Encoding: 48 48 229
Width: 640
GlyphClass: 1
Flags: W
LayerCount: 2
Fore
SplineSet
129.5 76.5 m 128,-1,1
 62 166 62 166 62 335 c 256,2,3
 62 504 62 504 129.5 593.5 c 128,-1,4
 197 683 197 683 320 683 c 256,5,6
 443 683 443 683 510 593.5 c 128,-1,7
 577 504 577 504 577 335 c 256,8,9
 577 166 577 166 510 76.5 c 128,-1,10
 443 -13 443 -13 320 -13 c 256,11,0
 197 -13 197 -13 129.5 76.5 c 128,-1,1
448 106 m 1,13,-1
 165 518 l 1,14,15
 134 452 134 452 134 335 c 0,16,17
 134 190 134 190 182.5 119 c 128,-1,18
 231 48 231 48 320 48 c 0,19,12
 402 48 402 48 448 106 c 1,13,-1
506 335 m 0,21,22
 506 480 506 480 457.5 551 c 128,-1,23
 409 622 409 622 320 622 c 0,24,25
 240 622 240 622 195 567 c 1,26,-1
 477 158 l 1,27,20
 506 225 506 225 506 335 c 0,21,22
EndSplineSet
Substitution2: "'tnum' Tabular Numbers in Latin lookup 10 subtable" zero.tf
AlternateSubs2: "'aalt' Access All Alternates in Latin lookup 0 subtable" zero.tf
EndChar
StartChar: one
Encoding: 49 49 230
Width: 399
GlyphClass: 5
Flags: W
LayerCount: 2
Fore
SplineSet
215 520 m 1,0,-1
 35 520 l 1,1,-1
 35 572 l 1,2,3
 123 572 123 572 171.5 592 c 128,-1,4
 220 612 220 612 238 668 c 1,5,-1
 283 668 l 1,6,-1
 283 0 l 1,7,-1
 215 0 l 1,8,-1
 215 520 l 1,0,-1
EndSplineSet
Substitution2: "'tnum' Tabular Numbers in Latin lookup 10 subtable" one.tf
Substitution2: "'sups' Superscript in Latin lookup 6 subtable" uni00B9
AlternateSubs2: "'aalt' Access All Alternates in Latin lookup 0 subtable" uni00B9 one.tf
EndChar
StartChar: two
Encoding: 50 50 231
Width: 542
GlyphClass: 5
Flags: W
LayerCount: 2
Fore
SplineSet
249 236 m 128,-1,1
 329 309 329 309 369 372 c 128,-1,2
 409 435 409 435 409 496 c 0,3,4
 409 552 409 552 372.5 587 c 128,-1,5
 336 622 336 622 274 622 c 0,6,7
 219 622 219 622 178 592 c 128,-1,8
 137 562 137 562 125 501 c 1,9,-1
 56 521 l 1,10,11
 74 594 74 594 132 637 c 128,-1,12
 190 680 190 680 276 680 c 0,13,14
 368 680 368 680 424.5 632 c 128,-1,15
 481 584 481 584 481 497 c 0,16,17
 481 386 481 386 388 283.5 c 128,-1,18
 295 181 295 181 131 65 c 1,19,-1
 503 65 l 1,20,-1
 503 0 l 1,21,-1
 36 0 l 1,22,-1
 36 63 l 1,23,0
 169 163 169 163 249 236 c 128,-1,1
EndSplineSet
Substitution2: "'tnum' Tabular Numbers in Latin lookup 10 subtable" two.tf
Substitution2: "'sups' Superscript in Latin lookup 6 subtable" uni00B2
AlternateSubs2: "'aalt' Access All Alternates in Latin lookup 0 subtable" uni00B2 two.tf
EndChar
StartChar: three
Encoding: 51 51 232
Width: 568
GlyphClass: 5
Flags: W
LayerCount: 2
Fore
SplineSet
116.5 35 m 128,-1,1
 61 82 61 82 47 154 c 1,2,-1
 114 171 l 1,3,4
 126 114 126 114 165 80 c 128,-1,5
 204 46 204 46 272 46 c 0,6,7
 344 46 344 46 390 83.5 c 128,-1,8
 436 121 436 121 436 184 c 0,9,10
 436 261 436 261 381 292.5 c 128,-1,11
 326 324 326 324 253 324 c 2,12,-1
 228 324 l 1,13,-1
 228 385 l 1,14,-1
 253 385 l 2,15,16
 318 385 318 385 366 414.5 c 128,-1,17
 414 444 414 444 414 510 c 0,18,19
 414 563 414 563 375 592.5 c 128,-1,20
 336 622 336 622 278 622 c 0,21,22
 215 622 215 622 174.5 588.5 c 128,-1,23
 134 555 134 555 124 502 c 1,24,-1
 57 520 l 1,25,26
 75 591 75 591 132 635.5 c 128,-1,27
 189 680 189 680 278 680 c 0,28,29
 366 680 366 680 425 636 c 128,-1,30
 484 592 484 592 484 510 c 0,31,32
 484 455 484 455 453.5 414 c 128,-1,33
 423 373 423 373 364 357 c 1,34,35
 435 341 435 341 471 294.5 c 128,-1,36
 507 248 507 248 507 186 c 0,37,38
 507 123 507 123 475 78 c 128,-1,39
 443 33 443 33 389 10.5 c 128,-1,40
 335 -12 335 -12 272 -12 c 0,41,0
 172 -12 172 -12 116.5 35 c 128,-1,1
EndSplineSet
Substitution2: "'tnum' Tabular Numbers in Latin lookup 10 subtable" three.tf
Substitution2: "'sups' Superscript in Latin lookup 6 subtable" uni00B3
AlternateSubs2: "'aalt' Access All Alternates in Latin lookup 0 subtable" uni00B3 three.tf
EndChar
StartChar: four
Encoding: 52 52 233
Width: 602
GlyphClass: 5
Flags: W
LayerCount: 2
Fore
SplineSet
374 172 m 1,0,-1
 40 172 l 1,1,-1
 40 242 l 1,2,-1
 371 668 l 1,3,-1
 442 668 l 1,4,-1
 442 236 l 1,5,-1
 562 236 l 1,6,-1
 562 172 l 1,7,-1
 442 172 l 1,8,-1
 442 0 l 1,9,-1
 374 0 l 1,10,-1
 374 172 l 1,0,-1
374 236 m 1,11,-1
 374 577 l 1,12,-1
 110 236 l 1,13,-1
 374 236 l 1,11,-1
EndSplineSet
Substitution2: "'tnum' Tabular Numbers in Latin lookup 10 subtable" four.tf
AlternateSubs2: "'aalt' Access All Alternates in Latin lookup 0 subtable" four.tf
EndChar
StartChar: five
Encoding: 53 53 234
Width: 578
GlyphClass: 1
Flags: W
LayerCount: 2
Fore
SplineSet
133 34.5 m 128,-1,1
 79 81 79 81 62 154 c 1,2,-1
 129 172 l 1,3,4
 154 46 154 46 286 46 c 0,5,6
 329 46 329 46 365 66.5 c 128,-1,7
 401 87 401 87 422.5 126.5 c 128,-1,8
 444 166 444 166 444 219 c 0,9,10
 444 275 444 275 421.5 314 c 128,-1,11
 399 353 399 353 363 371.5 c 128,-1,12
 327 390 327 390 287 390 c 0,13,14
 235 390 235 390 199 365 c 128,-1,15
 163 340 163 340 148 312 c 1,16,-1
 83 330 l 1,17,-1
 124 668 l 1,18,-1
 488 668 l 1,19,-1
 488 603 l 1,20,-1
 179 603 l 1,21,-1
 153 389 l 1,22,23
 203 449 203 449 299 449 c 0,24,25
 358 449 358 449 407 421.5 c 128,-1,26
 456 394 456 394 485 341.5 c 128,-1,27
 514 289 514 289 514 219 c 0,28,29
 514 146 514 146 482.5 93.5 c 128,-1,30
 451 41 451 41 398.5 14.5 c 128,-1,31
 346 -12 346 -12 285 -12 c 0,32,0
 187 -12 187 -12 133 34.5 c 128,-1,1
EndSplineSet
Substitution2: "'tnum' Tabular Numbers in Latin lookup 10 subtable" five.tf
AlternateSubs2: "'aalt' Access All Alternates in Latin lookup 0 subtable" five.tf
EndChar
StartChar: six
Encoding: 54 54 235
Width: 590
GlyphClass: 1
Flags: W
LayerCount: 2
Fore
SplineSet
127 68 m 128,-1,1
 68 148 68 148 68 300 c 0,2,3
 68 464 68 464 128 572 c 128,-1,4
 188 680 188 680 321 680 c 0,5,6
 388 680 388 680 434.5 650.5 c 128,-1,7
 481 621 481 621 503 574 c 1,8,-1
 436 549 l 1,9,10
 422 582 422 582 389.5 601 c 128,-1,11
 357 620 357 620 314 620 c 0,12,13
 232 620 232 620 185.5 541 c 128,-1,14
 139 462 139 462 136 334 c 1,15,16
 157 382 157 382 204.5 411.5 c 128,-1,17
 252 441 252 441 317 441 c 0,18,19
 379 441 379 441 428 412.5 c 128,-1,20
 477 384 477 384 504 332.5 c 128,-1,21
 531 281 531 281 531 214 c 0,22,23
 531 154 531 154 503 102 c 128,-1,24
 475 50 475 50 423.5 19 c 128,-1,25
 372 -12 372 -12 303 -12 c 0,26,0
 186 -12 186 -12 127 68 c 128,-1,1
417 93.5 m 128,-1,28
 460 139 460 139 460 212 c 0,29,30
 460 287 460 287 417 333.5 c 128,-1,31
 374 380 374 380 304 380 c 0,32,33
 233 380 233 380 190 333.5 c 128,-1,34
 147 287 147 287 147 212 c 0,35,36
 147 139 147 139 190 93.5 c 128,-1,37
 233 48 233 48 304 48 c 0,38,27
 374 48 374 48 417 93.5 c 128,-1,28
EndSplineSet
Substitution2: "'tnum' Tabular Numbers in Latin lookup 10 subtable" six.tf
AlternateSubs2: "'aalt' Access All Alternates in Latin lookup 0 subtable" six.tf
EndChar
StartChar: seven
Encoding: 55 55 236
Width: 500
GlyphClass: 1
Flags: W
LayerCount: 2
Fore
SplineSet
393 603 m 1,0,-1
 18 603 l 1,1,-1
 18 668 l 1,2,-1
 465 668 l 1,3,-1
 465 603 l 1,4,-1
 182 0 l 1,5,-1
 103 0 l 1,6,-1
 393 603 l 1,0,-1
EndSplineSet
Substitution2: "'tnum' Tabular Numbers in Latin lookup 10 subtable" seven.tf
AlternateSubs2: "'aalt' Access All Alternates in Latin lookup 0 subtable" seven.tf
EndChar
StartChar: eight
Encoding: 56 56 237
Width: 612
GlyphClass: 1
Flags: W
LayerCount: 2
Fore
SplineSet
181.5 14 m 128,-1,1
 127 39 127 39 96 84 c 128,-1,2
 65 129 65 129 65 187 c 0,3,4
 65 248 65 248 100 294.5 c 128,-1,5
 135 341 135 341 195 365 c 1,6,7
 163 389 163 389 145 425.5 c 128,-1,8
 127 462 127 462 127 504 c 0,9,10
 127 552 127 552 151 593 c 128,-1,11
 175 634 175 634 215.5 658 c 128,-1,12
 256 682 256 682 305 682 c 256,13,14
 354 682 354 682 395 658 c 128,-1,15
 436 634 436 634 460 593 c 128,-1,16
 484 552 484 552 484 504 c 0,17,18
 484 462 484 462 466 425.5 c 128,-1,19
 448 389 448 389 416 365 c 1,20,21
 476 342 476 342 511 295 c 128,-1,22
 546 248 546 248 546 187 c 0,23,24
 546 129 546 129 515 84 c 128,-1,25
 484 39 484 39 429 14 c 128,-1,26
 374 -11 374 -11 305 -11 c 256,27,0
 236 -11 236 -11 181.5 14 c 128,-1,1
427.5 87.5 m 128,-1,29
 474 126 474 126 474 187 c 256,30,31
 474 248 474 248 427.5 287 c 128,-1,32
 381 326 381 326 305 326 c 256,33,34
 229 326 229 326 183 287 c 128,-1,35
 137 248 137 248 137 187 c 256,36,37
 137 126 137 126 183 87.5 c 128,-1,38
 229 49 229 49 305 49 c 256,39,28
 381 49 381 49 427.5 87.5 c 128,-1,29
388 421 m 128,-1,41
 422 455 422 455 422 503 c 0,42,43
 422 552 422 552 388 585.5 c 128,-1,44
 354 619 354 619 305 619 c 0,45,46
 257 619 257 619 223 585.5 c 128,-1,47
 189 552 189 552 189 503 c 0,48,49
 189 455 189 455 223 421 c 128,-1,50
 257 387 257 387 305 387 c 0,51,40
 354 387 354 387 388 421 c 128,-1,41
EndSplineSet
Substitution2: "'tnum' Tabular Numbers in Latin lookup 10 subtable" eight.tf
AlternateSubs2: "'aalt' Access All Alternates in Latin lookup 0 subtable" eight.tf
EndChar
StartChar: nine
Encoding: 57 57 238
Width: 603
GlyphClass: 1
Flags: W
LayerCount: 2
Fore
SplineSet
298 207 m 0,1,2
 238 207 238 207 183.5 237.5 c 128,-1,3
 129 268 129 268 95.5 322 c 128,-1,4
 62 376 62 376 62 444 c 0,5,6
 62 508 62 508 93.5 562.5 c 128,-1,7
 125 617 125 617 179.5 649 c 128,-1,8
 234 681 234 681 300 681 c 256,9,10
 366 681 366 681 420.5 649.5 c 128,-1,11
 475 618 475 618 506.5 564 c 128,-1,12
 538 510 538 510 538 446 c 0,13,14
 538 393 538 393 519 349.5 c 128,-1,15
 500 306 500 306 462 245 c 2,16,-1
 311 0 l 1,17,-1
 230 0 l 1,18,-1
 372 220 l 1,19,0
 337 207 337 207 298 207 c 0,1,2
385 297 m 128,-1,21
 424 320 424 320 446.5 359 c 128,-1,22
 469 398 469 398 469 444 c 256,23,24
 469 490 469 490 446.5 528.5 c 128,-1,25
 424 567 424 567 385 590 c 128,-1,26
 346 613 346 613 299 613 c 0,27,28
 253 613 253 613 214 590 c 128,-1,29
 175 567 175 567 152.5 528.5 c 128,-1,30
 130 490 130 490 130 444 c 256,31,32
 130 398 130 398 152.5 359 c 128,-1,33
 175 320 175 320 214 297 c 128,-1,34
 253 274 253 274 299 274 c 0,35,20
 346 274 346 274 385 297 c 128,-1,21
EndSplineSet
Substitution2: "'tnum' Tabular Numbers in Latin lookup 10 subtable" nine.tf
AlternateSubs2: "'aalt' Access All Alternates in Latin lookup 0 subtable" nine.tf
EndChar
StartChar: less
Encoding: 60 60 327
Width: 547
GlyphClass: 1
Flags: W
LayerCount: 2
Fore
SplineSet
40 218 m 1,0,-1
 40 277 l 1,1,-1
 507 491 l 1,2,-1
 507 417 l 1,3,-1
 127 247 l 1,4,-1
 507 79 l 1,5,-1
 507 5 l 1,6,-1
 40 218 l 1,0,-1
EndSplineSet
EndChar
StartChar: equal
Encoding: 61 61 324
Width: 628
GlyphClass: 1
Flags: W
LayerCount: 2
Fore
SplineSet
66 375 m 1,0,-1
 562 375 l 1,1,-1
 562 311 l 1,2,-1
 66 311 l 1,3,-1
 66 375 l 1,0,-1
66 192 m 1,4,-1
 562 192 l 1,5,-1
 562 128 l 1,6,-1
 66 128 l 1,7,-1
 66 192 l 1,4,-1
EndSplineSet
EndChar
StartChar: greater
Encoding: 62 62 326
Width: 547
GlyphClass: 1
Flags: W
LayerCount: 2
Fore
SplineSet
40 79 m 1,0,-1
 420 247 l 1,1,-1
 40 417 l 1,2,-1
 40 491 l 1,3,-1
 507 277 l 1,4,-1
 507 218 l 1,5,-1
 40 5 l 1,6,-1
 40 79 l 1,0,-1
EndSplineSet
EndChar
StartChar: question
Encoding: 63 63 265
Width: 457
GlyphClass: 1
Flags: W
LayerCount: 2
Fore
SplineSet
182 276 m 128,-1,1
 191 301 191 301 213 324 c 128,-1,2
 235 347 235 347 278 376 c 0,3,4
 320 406 320 406 344 438.5 c 128,-1,5
 368 471 368 471 368 513 c 0,6,7
 368 564 368 564 331.5 593.5 c 128,-1,8
 295 623 295 623 238 623 c 0,9,10
 174 623 174 623 140 587.5 c 128,-1,11
 106 552 106 552 100 505 c 1,12,-1
 33 521 l 1,13,14
 44 593 44 593 101.5 637 c 128,-1,15
 159 681 159 681 241 681 c 0,16,17
 292 681 292 681 337 663 c 128,-1,18
 382 645 382 645 410 608 c 128,-1,19
 438 571 438 571 438 517 c 0,20,21
 438 455 438 455 403 408.5 c 128,-1,22
 368 362 368 362 312 324 c 0,23,24
 281 303 281 303 267 288 c 128,-1,25
 253 273 253 273 247.5 257 c 128,-1,26
 242 241 242 241 242 214 c 2,27,-1
 242 175 l 1,28,-1
 173 175 l 1,29,-1
 173 214 l 2,30,0
 173 251 173 251 182 276 c 128,-1,1
168.5 4 m 128,-1,32
 152 20 152 20 152 43 c 256,33,34
 152 66 152 66 168.5 82.5 c 128,-1,35
 185 99 185 99 208 99 c 256,36,37
 231 99 231 99 247 82.5 c 128,-1,38
 263 66 263 66 263 43 c 0,39,40
 263 21 263 21 247 4.5 c 128,-1,41
 231 -12 231 -12 208 -12 c 256,42,31
 185 -12 185 -12 168.5 4 c 128,-1,32
EndSplineSet
EndChar
StartChar: at
Encoding: 64 64 297
Width: 771
GlyphClass: 1
Flags: W
LayerCount: 2
Fore
SplineSet
226.5 -52 m 128,-1,1
 146 -10 146 -10 95.5 69.5 c 128,-1,2
 45 149 45 149 45 256 c 0,3,4
 45 355 45 355 91.5 434 c 128,-1,5
 138 513 138 513 218 557.5 c 128,-1,6
 298 602 298 602 392 602 c 0,7,8
 469 602 469 602 546.5 567.5 c 128,-1,9
 624 533 624 533 675 462 c 128,-1,10
 726 391 726 391 726 287 c 0,11,12
 726 215 726 215 704.5 168 c 128,-1,13
 683 121 683 121 649 99 c 128,-1,14
 615 77 615 77 577 77 c 0,15,16
 545 77 545 77 516.5 95 c 128,-1,17
 488 113 488 113 479 138 c 1,18,19
 436 75 436 75 355 75 c 0,20,21
 318 75 318 75 285.5 93.5 c 128,-1,22
 253 112 253 112 233 149 c 128,-1,23
 213 186 213 186 213 237 c 0,24,25
 213 342 213 342 269.5 391 c 128,-1,26
 326 440 326 440 409 440 c 0,27,28
 465 440 465 440 525 420 c 1,29,-1
 525 192 l 2,30,31
 525 161 525 161 542 146 c 128,-1,32
 559 131 559 131 584 131 c 0,33,34
 628 131 628 131 650.5 178.5 c 128,-1,35
 673 226 673 226 673 287 c 0,36,37
 673 361 673 361 635.5 421 c 128,-1,38
 598 481 598 481 533.5 515 c 128,-1,39
 469 549 469 549 392 549 c 0,40,41
 313 549 313 549 246.5 512 c 128,-1,42
 180 475 180 475 140.5 408.5 c 128,-1,43
 101 342 101 342 101 256 c 0,44,45
 101 165 101 165 142 97.5 c 128,-1,46
 183 30 183 30 250 -5.5 c 128,-1,47
 317 -41 317 -41 392 -41 c 0,48,49
 466 -41 466 -41 529 -6 c 1,50,-1
 529 -66 l 1,51,52
 464 -94 464 -94 396 -94 c 0,53,0
 307 -94 307 -94 226.5 -52 c 128,-1,1
435.5 161 m 128,-1,55
 465 193 465 193 465 243 c 2,56,-1
 465 379 l 1,57,58
 441 384 441 384 407 384 c 0,59,60
 353 384 353 384 313.5 350.5 c 128,-1,61
 274 317 274 317 274 235 c 0,62,63
 274 185 274 185 301.5 157 c 128,-1,64
 329 129 329 129 365 129 c 0,65,54
 406 129 406 129 435.5 161 c 128,-1,55
EndSplineSet
EndChar
StartChar: A
Encoding: 65 65 2
Width: 603
GlyphClass: 2
Flags: W
AnchorPoint: "Anchor-2" 593 10 basechar 0
AnchorPoint: "Anchor-1" 302 668 basechar 0
AnchorPoint: "Anchor-0" 302 0 basechar 0
LayerCount: 2
Fore
SplineSet
262 668 m 1,0,-1
 343 668 l 1,1,-1
 593 0 l 1,2,-1
 516 0 l 1,3,-1
 459 158 l 1,4,-1
 144 158 l 1,5,-1
 87 0 l 1,6,-1
 10 0 l 1,7,-1
 262 668 l 1,0,-1
437 221 m 1,8,-1
 302 594 l 1,9,-1
 167 221 l 1,10,-1
 437 221 l 1,8,-1
EndSplineSet
Substitution2: "Single Substitution lookup 15 subtable" ordfeminine
AlternateSubs2: "'aalt' Access All Alternates in Latin lookup 0 subtable" ordfeminine
EndChar
StartChar: B
Encoding: 66 66 13
Width: 598
GlyphClass: 2
Flags: W
AnchorPoint: "Anchor-1" 301 668 basechar 0
AnchorPoint: "Anchor-0" 301 0 basechar 0
LayerCount: 2
Fore
SplineSet
80 668 m 1,0,-1
 330 668 l 2,1,2
 394 668 394 668 440 645.5 c 128,-1,3
 486 623 486 623 510.5 583.5 c 128,-1,4
 535 544 535 544 535 495 c 0,5,6
 535 447 535 447 513.5 409 c 128,-1,7
 492 371 492 371 447 350 c 1,8,9
 564 305 564 305 564 192 c 0,10,11
 564 140 564 140 538.5 96 c 128,-1,12
 513 52 513 52 464.5 26 c 128,-1,13
 416 0 416 0 348 0 c 2,14,-1
 80 0 l 1,15,-1
 80 668 l 1,0,-1
453 99 m 128,-1,17
 489 135 489 135 489 191 c 0,18,19
 489 246 489 246 452 280.5 c 128,-1,20
 415 315 415 315 342 315 c 2,21,-1
 154 315 l 1,22,-1
 154 63 l 1,23,-1
 343 63 l 2,24,16
 417 63 417 63 453 99 c 128,-1,17
431 406.5 m 128,-1,26
 461 437 461 437 461 489 c 0,27,28
 461 542 461 542 426.5 573.5 c 128,-1,29
 392 605 392 605 324 605 c 2,30,-1
 154 605 l 1,31,-1
 154 376 l 1,32,-1
 337 376 l 2,33,25
 401 376 401 376 431 406.5 c 128,-1,26
EndSplineSet
EndChar
StartChar: C
Encoding: 67 67 14
Width: 638
GlyphClass: 2
Flags: W
AnchorPoint: "Anchor-1" 346 668 basechar 0
AnchorPoint: "Anchor-0" 341 0 basechar 0
LayerCount: 2
Fore
SplineSet
184 32.5 m 128,-1,1
 117 77 117 77 81 156 c 128,-1,2
 45 235 45 235 45 336 c 256,3,4
 45 437 45 437 83 515 c 128,-1,5
 121 593 121 593 190 636.5 c 128,-1,6
 259 680 259 680 349 680 c 0,7,8
 431 680 431 680 496.5 641 c 128,-1,9
 562 602 562 602 594 530 c 1,10,-1
 530 506 l 1,11,12
 506 557 506 557 459.5 587 c 128,-1,13
 413 617 413 617 345 617 c 0,14,15
 282 617 282 617 231 584.5 c 128,-1,16
 180 552 180 552 150 488.5 c 128,-1,17
 120 425 120 425 120 336 c 256,18,19
 120 247 120 247 149.5 182.5 c 128,-1,20
 179 118 179 118 230 84.5 c 128,-1,21
 281 51 281 51 346 51 c 0,22,23
 476 51 476 51 533 162 c 1,24,-1
 598 138 l 1,25,26
 562 64 562 64 496.5 26 c 128,-1,27
 431 -12 431 -12 341 -12 c 256,28,0
 251 -12 251 -12 184 32.5 c 128,-1,1
EndSplineSet
EndChar
StartChar: D
Encoding: 68 68 19
Width: 655
GlyphClass: 2
Flags: W
AnchorPoint: "Anchor-1" 314 668 basechar 0
AnchorPoint: "Anchor-0" 331 0 basechar 0
LayerCount: 2
Fore
SplineSet
80 668 m 1,0,-1
 253 668 l 2,1,2
 421 668 421 668 515.5 590.5 c 128,-1,3
 610 513 610 513 610 336 c 0,4,5
 610 0 610 0 253 0 c 2,6,-1
 80 0 l 1,7,-1
 80 668 l 1,0,-1
397.5 85.5 m 128,-1,9
 460 108 460 108 497 168 c 128,-1,10
 534 228 534 228 534 336 c 0,11,12
 534 443 534 443 497 502 c 128,-1,13
 460 561 460 561 397.5 583 c 128,-1,14
 335 605 335 605 247 605 c 2,15,-1
 154 605 l 1,16,-1
 154 63 l 1,17,-1
 247 63 l 2,18,8
 335 63 335 63 397.5 85.5 c 128,-1,9
EndSplineSet
EndChar
StartChar: E
Encoding: 69 69 23
Width: 555
GlyphClass: 2
Flags: W
AnchorPoint: "Anchor-2" 516 10 basechar 0
AnchorPoint: "Anchor-1" 298 668 basechar 0
AnchorPoint: "Anchor-0" 278 0 basechar 0
LayerCount: 2
Fore
SplineSet
80 668 m 1,0,-1
 512 668 l 1,1,-1
 512 604 l 1,2,-1
 154 604 l 1,3,-1
 154 376 l 1,4,-1
 434 376 l 1,5,-1
 434 312 l 1,6,-1
 154 312 l 1,7,-1
 154 64 l 1,8,-1
 516 64 l 1,9,-1
 516 0 l 1,10,-1
 80 0 l 1,11,-1
 80 668 l 1,0,-1
EndSplineSet
EndChar
StartChar: G
Encoding: 71 71 33
Width: 683
GlyphClass: 2
Flags: W
AnchorPoint: "Anchor-1" 345 668 basechar 0
AnchorPoint: "Anchor-0" 345 0 basechar 0
LayerCount: 2
Fore
SplineSet
182.5 32.5 m 128,-1,1
 115 77 115 77 80 155.5 c 128,-1,2
 45 234 45 234 45 334 c 0,3,4
 45 437 45 437 82.5 515.5 c 128,-1,5
 120 594 120 594 189.5 637 c 128,-1,6
 259 680 259 680 350 680 c 0,7,8
 434 680 434 680 500 640.5 c 128,-1,9
 566 601 566 601 600 527 c 1,10,-1
 533 502 l 1,11,12
 508 557 508 557 461 587 c 128,-1,13
 414 617 414 617 347 617 c 0,14,15
 283 617 283 617 231.5 584.5 c 128,-1,16
 180 552 180 552 150 488 c 128,-1,17
 120 424 120 424 120 334 c 0,18,19
 120 247 120 247 148.5 183 c 128,-1,20
 177 119 177 119 228 85 c 128,-1,21
 279 51 279 51 345 51 c 0,22,23
 429 51 429 51 490.5 96.5 c 128,-1,24
 552 142 552 142 552 248 c 2,25,-1
 552 272 l 1,26,-1
 344 272 l 1,27,-1
 344 335 l 1,28,-1
 622 335 l 1,29,-1
 622 0 l 1,30,-1
 575 0 l 1,31,-1
 556 91 l 1,32,33
 524 38 524 38 468 13 c 128,-1,34
 412 -12 412 -12 343 -12 c 0,35,0
 250 -12 250 -12 182.5 32.5 c 128,-1,1
EndSplineSet
EndChar
StartChar: H
Encoding: 72 72 37
Width: 679
GlyphClass: 2
Flags: W
AnchorPoint: "Anchor-1" 339 668 basechar 0
AnchorPoint: "Anchor-0" 339 0 basechar 0
LayerCount: 2
Fore
SplineSet
80 668 m 1,0,-1
 154 668 l 1,1,-1
 154 376 l 1,2,-1
 525 376 l 1,3,-1
 525 668 l 1,4,-1
 599 668 l 1,5,-1
 599 0 l 1,6,-1
 525 0 l 1,7,-1
 525 313 l 1,8,-1
 154 313 l 1,9,-1
 154 0 l 1,10,-1
 80 0 l 1,11,-1
 80 668 l 1,0,-1
EndSplineSet
EndChar
StartChar: I
Encoding: 73 73 39
Width: 374
GlyphClass: 2
Flags: W
AnchorPoint: "Anchor-2" 318 10 basechar 0
AnchorPoint: "Anchor-1" 187 668 basechar 0
AnchorPoint: "Anchor-0" 187 0 basechar 0
LayerCount: 2
Fore
SplineSet
56 55 m 1,0,-1
 150 55 l 1,1,-1
 150 613 l 1,2,-1
 56 613 l 1,3,-1
 56 668 l 1,4,-1
 318 668 l 1,5,-1
 318 613 l 1,6,-1
 224 613 l 1,7,-1
 224 55 l 1,8,-1
 318 55 l 1,9,-1
 318 0 l 1,10,-1
 56 0 l 1,11,-1
 56 55 l 1,0,-1
EndSplineSet
EndChar
StartChar: J
Encoding: 74 74 48
Width: 491
GlyphClass: 2
Flags: W
AnchorPoint: "Anchor-1" 374 668 basechar 0
AnchorPoint: "Anchor-0" 248 0 basechar 0
LayerCount: 2
Fore
SplineSet
70.5 39.5 m 128,-1,1
 18 91 18 91 18 193 c 1,2,-1
 87 210 l 1,3,4
 82 129 82 129 120 89.5 c 128,-1,5
 158 50 158 50 216 50 c 0,6,7
 265 50 265 50 301 82.5 c 128,-1,8
 337 115 337 115 337 198 c 2,9,-1
 337 668 l 1,10,-1
 411 668 l 1,11,-1
 411 197 l 2,12,13
 411 95 411 95 359 41.5 c 128,-1,14
 307 -12 307 -12 216 -12 c 0,15,0
 123 -12 123 -12 70.5 39.5 c 128,-1,1
EndSplineSet
Substitution2: "Single Substitution lookup 14 subtable" uni004A0301
AlternateSubs2: "'aalt' Access All Alternates in Latin lookup 0 subtable" uni004A0301
EndChar
StartChar: K
Encoding: 75 75 50
Width: 615
GlyphClass: 2
Flags: W
AnchorPoint: "Anchor-1" 302 668 basechar 0
AnchorPoint: "Anchor-0" 302 0 basechar 0
LayerCount: 2
Fore
SplineSet
80 668 m 1,0,-1
 154 668 l 1,1,-1
 154 310 l 1,2,-1
 474 668 l 1,3,-1
 567 668 l 1,4,-1
 314 391 l 1,5,-1
 600 0 l 1,6,-1
 508 0 l 1,7,-1
 265 336 l 1,8,-1
 154 215 l 1,9,-1
 154 0 l 1,10,-1
 80 0 l 1,11,-1
 80 668 l 1,0,-1
EndSplineSet
EndChar
StartChar: L
Encoding: 76 76 52
Width: 531
GlyphClass: 2
Flags: W
AnchorPoint: "Anchor-3" 226 459 basechar 0
AnchorPoint: "Anchor-1" 263 668 basechar 0
AnchorPoint: "Anchor-0" 263 0 basechar 0
LayerCount: 2
Fore
SplineSet
80 668 m 1,0,-1
 154 668 l 1,1,-1
 154 64 l 1,2,-1
 524 64 l 1,3,-1
 524 0 l 1,4,-1
 80 0 l 1,5,-1
 80 668 l 1,0,-1
EndSplineSet
EndChar
StartChar: M
Encoding: 77 77 56
Width: 798
GlyphClass: 2
Flags: W
AnchorPoint: "Anchor-1" 399 668 basechar 0
AnchorPoint: "Anchor-0" 399 0 basechar 0
LayerCount: 2
Fore
SplineSet
80 668 m 1,0,-1
 205 668 l 1,1,-1
 399 91 l 1,2,-1
 593 668 l 1,3,-1
 717 668 l 1,4,-1
 717 0 l 1,5,-1
 644 0 l 1,6,-1
 644 596 l 1,7,-1
 437 0 l 1,8,-1
 362 0 l 1,9,-1
 154 596 l 1,10,-1
 154 0 l 1,11,-1
 80 0 l 1,12,-1
 80 668 l 1,0,-1
EndSplineSet
EndChar
StartChar: N
Encoding: 78 78 57
Width: 676
GlyphClass: 2
Flags: W
AnchorPoint: "Anchor-1" 339 668 basechar 0
AnchorPoint: "Anchor-0" 339 0 basechar 0
LayerCount: 2
Fore
SplineSet
80 668 m 1,0,-1
 194 668 l 1,1,-1
 522 74 l 1,2,-1
 522 668 l 1,3,-1
 596 668 l 1,4,-1
 596 0 l 1,5,-1
 484 0 l 1,6,-1
 154 597 l 1,7,-1
 154 0 l 1,8,-1
 80 0 l 1,9,-1
 80 668 l 1,0,-1
EndSplineSet
EndChar
StartChar: O
Encoding: 79 79 62
Width: 698
GlyphClass: 2
Flags: W
AnchorPoint: "Anchor-3" 688 668 basechar 0
AnchorPoint: "Anchor-2" 636 10 basechar 0
AnchorPoint: "Anchor-1" 350 668 basechar 0
AnchorPoint: "Anchor-0" 350 0 basechar 0
LayerCount: 2
Fore
SplineSet
188 32.5 m 128,-1,1
 119 77 119 77 82 155.5 c 128,-1,2
 45 234 45 234 45 334 c 256,3,4
 45 434 45 434 82 512.5 c 128,-1,5
 119 591 119 591 188 635.5 c 128,-1,6
 257 680 257 680 349 680 c 256,7,8
 441 680 441 680 510 635.5 c 128,-1,9
 579 591 579 591 616 512.5 c 128,-1,10
 653 434 653 434 653 334 c 256,11,12
 653 234 653 234 616 155.5 c 128,-1,13
 579 77 579 77 510 32.5 c 128,-1,14
 441 -12 441 -12 349 -12 c 256,15,0
 257 -12 257 -12 188 32.5 c 128,-1,1
466 84 m 128,-1,17
 518 117 518 117 548 181 c 128,-1,18
 578 245 578 245 578 334 c 256,19,20
 578 423 578 423 548 487 c 128,-1,21
 518 551 518 551 466 584 c 128,-1,22
 414 617 414 617 349 617 c 256,23,24
 284 617 284 617 232 584 c 128,-1,25
 180 551 180 551 150 487 c 128,-1,26
 120 423 120 423 120 334 c 256,27,28
 120 245 120 245 150 181 c 128,-1,29
 180 117 180 117 232 84 c 128,-1,30
 284 51 284 51 349 51 c 256,31,16
 414 51 414 51 466 84 c 128,-1,17
EndSplineSet
Substitution2: "Single Substitution lookup 15 subtable" ordmasculine
AlternateSubs2: "'aalt' Access All Alternates in Latin lookup 0 subtable" ordmasculine
EndChar
StartChar: P
Encoding: 80 80 71
Width: 575
GlyphClass: 2
Flags: W
AnchorPoint: "Anchor-1" 291 668 basechar 0
AnchorPoint: "Anchor-0" 291 0 basechar 0
LayerCount: 2
Fore
SplineSet
80 668 m 1,0,-1
 307 668 l 2,1,2
 418 668 418 668 481.5 619 c 128,-1,3
 545 570 545 570 545 472 c 0,4,5
 545 375 545 375 481.5 325.5 c 128,-1,6
 418 276 418 276 307 276 c 2,7,-1
 154 276 l 1,8,-1
 154 0 l 1,9,-1
 80 0 l 1,10,-1
 80 668 l 1,0,-1
426.5 370.5 m 128,-1,12
 470 401 470 401 470 472 c 256,13,14
 470 543 470 543 426.5 573.5 c 128,-1,15
 383 604 383 604 302 604 c 2,16,-1
 154 604 l 1,17,-1
 154 340 l 1,18,-1
 302 340 l 2,19,11
 383 340 383 340 426.5 370.5 c 128,-1,12
EndSplineSet
EndChar
StartChar: Q
Encoding: 81 81 73
Width: 708
GlyphClass: 1
Flags: W
LayerCount: 2
Fore
SplineSet
188 32.5 m 128,-1,1
 119 77 119 77 82 155.5 c 128,-1,2
 45 234 45 234 45 334 c 256,3,4
 45 434 45 434 82 512.5 c 128,-1,5
 119 591 119 591 188 635.5 c 128,-1,6
 257 680 257 680 349 680 c 256,7,8
 441 680 441 680 510 635.5 c 128,-1,9
 579 591 579 591 616 512.5 c 128,-1,10
 653 434 653 434 653 334 c 0,11,12
 653 213 653 213 600 126 c 1,13,-1
 723 10 l 1,14,-1
 675 -41 l 1,15,-1
 557 70 l 1,16,17
 517 31 517 31 464 9.5 c 128,-1,18
 411 -12 411 -12 349 -12 c 0,19,0
 257 -12 257 -12 188 32.5 c 128,-1,1
435 68 m 128,-1,21
 475 85 475 85 506 118 c 1,22,-1
 326 287 l 1,23,-1
 374 338 l 1,24,-1
 545 177 l 1,25,26
 578 243 578 243 578 334 c 0,27,28
 578 423 578 423 548 487 c 128,-1,29
 518 551 518 551 466 584 c 128,-1,30
 414 617 414 617 349 617 c 256,31,32
 284 617 284 617 232 584 c 128,-1,33
 180 551 180 551 150 487 c 128,-1,34
 120 423 120 423 120 334 c 256,35,36
 120 245 120 245 150 181 c 128,-1,37
 180 117 180 117 232 84 c 128,-1,38
 284 51 284 51 349 51 c 0,39,20
 395 51 395 51 435 68 c 128,-1,21
EndSplineSet
EndChar
StartChar: R
Encoding: 82 82 74
Width: 598
GlyphClass: 2
Flags: W
AnchorPoint: "Anchor-1" 280 668 basechar 0
AnchorPoint: "Anchor-0" 296 0 basechar 0
LayerCount: 2
Fore
SplineSet
80 668 m 1,0,-1
 316 668 l 2,1,2
 425 668 425 668 488.5 620 c 128,-1,3
 552 572 552 572 552 476 c 0,4,5
 552 390 552 390 499 343.5 c 128,-1,6
 446 297 446 297 354 289 c 1,7,-1
 566 0 l 1,8,-1
 475 0 l 1,9,-1
 270 284 l 1,10,-1
 154 284 l 1,11,-1
 154 0 l 1,12,-1
 80 0 l 1,13,-1
 80 668 l 1,0,-1
432.5 379 m 128,-1,15
 476 410 476 410 476 476 c 256,16,17
 476 542 476 542 432.5 573 c 128,-1,18
 389 604 389 604 315 604 c 2,19,-1
 154 604 l 1,20,-1
 154 348 l 1,21,-1
 315 348 l 2,22,14
 389 348 389 348 432.5 379 c 128,-1,15
EndSplineSet
EndChar
StartChar: S
Encoding: 83 83 77
Width: 586
GlyphClass: 2
Flags: W
AnchorPoint: "Anchor-1" 293 668 basechar 0
AnchorPoint: "Anchor-0" 293 0 basechar 0
LayerCount: 2
Fore
SplineSet
136.5 27.5 m 128,-1,1
 66 67 66 67 43 143 c 1,2,-1
 112 168 l 1,3,4
 128 111 128 111 179.5 81 c 128,-1,5
 231 51 231 51 293 51 c 0,6,7
 369 51 369 51 419 86 c 128,-1,8
 469 121 469 121 469 185 c 0,9,10
 469 230 469 230 437.5 257.5 c 128,-1,11
 406 285 406 285 324 305 c 2,12,-1
 231 328 l 2,13,14
 149 347 149 347 104 388 c 128,-1,15
 59 429 59 429 59 499 c 0,16,17
 59 551 59 551 89.5 592 c 128,-1,18
 120 633 120 633 174 656.5 c 128,-1,19
 228 680 228 680 294 680 c 0,20,21
 368 680 368 680 428.5 650 c 128,-1,22
 489 620 489 620 518 561 c 1,23,-1
 448 535 l 1,24,25
 428 574 428 574 384 595.5 c 128,-1,26
 340 617 340 617 292 617 c 0,27,28
 223 617 223 617 178 586.5 c 128,-1,29
 133 556 133 556 133 500 c 0,30,31
 133 422 133 422 247 395 c 2,32,-1
 342 372 l 2,33,34
 442 348 442 348 492.5 306.5 c 128,-1,35
 543 265 543 265 543 184 c 0,36,37
 543 124 543 124 508.5 79.5 c 128,-1,38
 474 35 474 35 416 11.5 c 128,-1,39
 358 -12 358 -12 289 -12 c 0,40,0
 207 -12 207 -12 136.5 27.5 c 128,-1,1
EndSplineSet
EndChar
StartChar: T
Encoding: 84 84 83
Width: 539
GlyphClass: 2
Flags: W
AnchorPoint: "Anchor-1" 269 668 basechar 0
AnchorPoint: "Anchor-0" 270 0 basechar 0
LayerCount: 2
Fore
SplineSet
233 604 m 1,0,-1
 9 604 l 1,1,-1
 9 668 l 1,2,-1
 530 668 l 1,3,-1
 530 604 l 1,4,-1
 306 604 l 1,5,-1
 306 0 l 1,6,-1
 233 0 l 1,7,-1
 233 604 l 1,0,-1
EndSplineSet
EndChar
StartChar: U
Encoding: 85 85 87
Width: 680
GlyphClass: 2
Flags: W
AnchorPoint: "Anchor-3" 667 668 basechar 0
AnchorPoint: "Anchor-2" 515 10 basechar 0
AnchorPoint: "Anchor-1" 340 668 basechar 0
AnchorPoint: "Anchor-0" 340 0 basechar 0
LayerCount: 2
Fore
SplineSet
140.5 58.5 m 128,-1,1
 78 129 78 129 78 275 c 2,2,-1
 78 668 l 1,3,-1
 152 668 l 1,4,-1
 152 270 l 2,5,6
 152 160 152 160 196.5 106 c 128,-1,7
 241 52 241 52 340 52 c 256,8,9
 439 52 439 52 483.5 106 c 128,-1,10
 528 160 528 160 528 270 c 2,11,-1
 528 668 l 1,12,-1
 602 668 l 1,13,-1
 602 275 l 2,14,15
 602 129 602 129 539.5 58.5 c 128,-1,16
 477 -12 477 -12 340 -12 c 256,17,0
 203 -12 203 -12 140.5 58.5 c 128,-1,1
EndSplineSet
EndChar
StartChar: V
Encoding: 86 86 96
Width: 578
GlyphClass: 2
Flags: W
AnchorPoint: "Anchor-1" 290 668 basechar 0
AnchorPoint: "Anchor-0" 290 0 basechar 0
LayerCount: 2
Fore
SplineSet
14 668 m 1,0,-1
 93 668 l 1,1,-1
 289 87 l 1,2,-1
 485 668 l 1,3,-1
 564 668 l 1,4,-1
 330 0 l 1,5,-1
 247 0 l 1,6,-1
 14 668 l 1,0,-1
EndSplineSet
EndChar
StartChar: W
Encoding: 87 87 97
Width: 857
GlyphClass: 2
Flags: W
AnchorPoint: "Anchor-1" 429 668 basechar 0
AnchorPoint: "Anchor-0" 429 0 basechar 0
LayerCount: 2
Fore
SplineSet
21 668 m 1,0,-1
 100 668 l 1,1,-1
 243 88 l 1,2,-1
 387 668 l 1,3,-1
 470 668 l 1,4,-1
 613 88 l 1,5,-1
 757 668 l 1,6,-1
 835 668 l 1,7,-1
 661 0 l 1,8,-1
 572 0 l 1,9,-1
 428 565 l 1,10,-1
 283 0 l 1,11,-1
 194 0 l 1,12,-1
 21 668 l 1,0,-1
EndSplineSet
EndChar
StartChar: X
Encoding: 88 88 102
Width: 606
GlyphClass: 2
Flags: W
AnchorPoint: "Anchor-1" 303 668 basechar 0
AnchorPoint: "Anchor-0" 303 0 basechar 0
LayerCount: 2
Fore
SplineSet
257 345 m 1,0,-1
 26 668 l 1,1,-1
 114 668 l 1,2,-1
 302 404 l 1,3,-1
 490 668 l 1,4,-1
 579 668 l 1,5,-1
 348 345 l 1,6,-1
 593 0 l 1,7,-1
 505 0 l 1,8,-1
 303 285 l 1,9,-1
 101 0 l 1,10,-1
 12 0 l 1,11,-1
 257 345 l 1,0,-1
EndSplineSet
EndChar
StartChar: Y
Encoding: 89 89 103
Width: 549
GlyphClass: 2
Flags: W
AnchorPoint: "Anchor-1" 275 668 basechar 0
AnchorPoint: "Anchor-0" 275 0 basechar 0
LayerCount: 2
Fore
SplineSet
238 264 m 1,0,-1
 0 668 l 1,1,-1
 83 668 l 1,2,-1
 275 334 l 1,3,-1
 466 668 l 1,4,-1
 549 668 l 1,5,-1
 312 264 l 1,6,-1
 312 0 l 1,7,-1
 238 0 l 1,8,-1
 238 264 l 1,0,-1
EndSplineSet
EndChar
StartChar: Z
Encoding: 90 90 108
Width: 603
GlyphClass: 2
Flags: W
AnchorPoint: "Anchor-1" 304 668 basechar 0
AnchorPoint: "Anchor-0" 302 0 basechar 0
LayerCount: 2
Fore
SplineSet
47 70 m 1,0,-1
 458 603 l 1,1,-1
 62 603 l 1,2,-1
 62 668 l 1,3,-1
 541 668 l 1,4,-1
 541 598 l 1,5,-1
 132 65 l 1,6,-1
 556 65 l 1,7,-1
 556 0 l 1,8,-1
 47 0 l 1,9,-1
 47 70 l 1,0,-1
EndSplineSet
EndChar
StartChar: bracketleft
Encoding: 91 91 281
Width: 304
GlyphClass: 1
Flags: W
LayerCount: 2
Fore
SplineSet
80 708 m 1,0,-1
 271 708 l 1,1,-1
 271 652 l 1,2,-1
 147 652 l 1,3,-1
 147 -106 l 1,4,-1
 271 -106 l 1,5,-1
 271 -162 l 1,6,-1
 80 -162 l 1,7,-1
 80 708 l 1,0,-1
EndSplineSet
EndChar
StartChar: bracketright
Encoding: 93 93 282
Width: 316
GlyphClass: 1
Flags: W
LayerCount: 2
Fore
SplineSet
46 -106 m 1,0,-1
 170 -106 l 1,1,-1
 170 652 l 1,2,-1
 46 652 l 1,3,-1
 46 708 l 1,4,-1
 236 708 l 1,5,-1
 236 -162 l 1,6,-1
 46 -162 l 1,7,-1
 46 -106 l 1,0,-1
EndSplineSet
EndChar
StartChar: asciicircum
Encoding: 94 94 334
Width: 541
GlyphClass: 1
Flags: W
LayerCount: 2
Fore
SplineSet
239 668 m 1,0,-1
 303 668 l 1,1,-1
 488 311 l 1,2,-1
 416 311 l 1,3,-1
 271 592 l 1,4,-1
 126 311 l 1,5,-1
 53 311 l 1,6,-1
 239 668 l 1,0,-1
EndSplineSet
EndChar
StartChar: a
Encoding: 97 97 112
Width: 514
GlyphClass: 2
Flags: W
AnchorPoint: "Anchor-2" 455 10 basechar 0
AnchorPoint: "Anchor-1" 252 496 basechar 0
AnchorPoint: "Anchor-0" 252 0 basechar 0
LayerCount: 2
Fore
SplineSet
81 24.5 m 128,-1,1
 33 61 33 61 33 125 c 0,2,3
 33 209 33 209 115.5 251 c 128,-1,4
 198 293 198 293 371 307 c 1,5,-1
 371 318 l 2,6,7
 371 380 371 380 341.5 414.5 c 128,-1,8
 312 449 312 449 252 449 c 0,9,10
 204 449 204 449 172.5 426.5 c 128,-1,11
 141 404 141 404 132 366 c 1,12,-1
 64 385 l 1,13,14
 84 442 84 442 134 473.5 c 128,-1,15
 184 505 184 505 250 505 c 0,16,17
 346 505 346 505 391.5 456 c 128,-1,18
 437 407 437 407 437 309 c 2,19,-1
 437 191 l 2,20,21
 437 90 437 90 455 0 c 1,22,-1
 396 0 l 1,23,-1
 376 75 l 1,24,25
 356 36 356 36 313 12 c 128,-1,26
 270 -12 270 -12 204 -12 c 0,27,0
 129 -12 129 -12 81 24.5 c 128,-1,1
327.5 81.5 m 128,-1,29
 371 119 371 119 371 199 c 2,30,-1
 371 253 l 1,31,32
 235 242 235 242 170 212.5 c 128,-1,33
 105 183 105 183 105 128 c 0,34,35
 105 90 105 90 134.5 67 c 128,-1,36
 164 44 164 44 215 44 c 0,37,28
 284 44 284 44 327.5 81.5 c 128,-1,29
EndSplineSet
Substitution2: "Single Substitution lookup 15 subtable" ordfeminine
AlternateSubs2: "'aalt' Access All Alternates in Latin lookup 0 subtable" ordfeminine
EndChar
StartChar: b
Encoding: 98 98 123
Width: 555
GlyphClass: 2
Flags: W
AnchorPoint: "Anchor-1" 280 496 basechar 0
AnchorPoint: "Anchor-0" 280 0 basechar 0
LayerCount: 2
Fore
SplineSet
142 79 m 1,1,-1
 124 0 l 1,2,-1
 74 0 l 1,3,-1
 74 708 l 1,4,-1
 142 708 l 1,5,-1
 142 411 l 1,6,7
 163 453 163 453 205 479 c 128,-1,8
 247 505 247 505 304 505 c 0,9,10
 363 505 363 505 411.5 474.5 c 128,-1,11
 460 444 460 444 488.5 385 c 128,-1,12
 517 326 517 326 517 244 c 0,13,14
 517 163 517 163 487.5 105.5 c 128,-1,15
 458 48 458 48 409.5 18 c 128,-1,16
 361 -12 361 -12 305 -12 c 0,17,0
 192 -12 192 -12 142 79 c 1,1,-1
402.5 99 m 128,-1,19
 443 151 443 151 443 245 c 0,20,21
 443 340 443 340 402 393 c 128,-1,22
 361 446 361 446 290 446 c 0,23,24
 221 446 221 446 181 392 c 128,-1,25
 141 338 141 338 141 245 c 0,26,27
 141 154 141 154 181.5 100.5 c 128,-1,28
 222 47 222 47 291 47 c 0,29,18
 362 47 362 47 402.5 99 c 128,-1,19
EndSplineSet
EndChar
StartChar: c
Encoding: 99 99 124
Width: 477
GlyphClass: 2
Flags: W
AnchorPoint: "Anchor-1" 266 496 basechar 0
AnchorPoint: "Anchor-0" 263 0 basechar 0
LayerCount: 2
Fore
SplineSet
145 21 m 128,-1,1
 94 54 94 54 66 112.5 c 128,-1,2
 38 171 38 171 38 244 c 256,3,4
 38 317 38 317 66 376.5 c 128,-1,5
 94 436 94 436 146.5 470.5 c 128,-1,6
 199 505 199 505 270 505 c 0,7,8
 334 505 334 505 380.5 473 c 128,-1,9
 427 441 427 441 451 395 c 1,10,-1
 389 372 l 1,11,12
 372 406 372 406 339 425.5 c 128,-1,13
 306 445 306 445 265 445 c 0,14,15
 223 445 223 445 187.5 423 c 128,-1,16
 152 401 152 401 131 356 c 128,-1,17
 110 311 110 311 110 246 c 0,18,19
 110 182 110 182 131 137 c 128,-1,20
 152 92 152 92 187.5 70 c 128,-1,21
 223 48 223 48 264 48 c 0,22,23
 306 48 306 48 339.5 67.5 c 128,-1,24
 373 87 373 87 391 120 c 1,25,-1
 454 96 l 1,26,27
 427 49 427 49 377.5 18.5 c 128,-1,28
 328 -12 328 -12 263 -12 c 0,29,0
 196 -12 196 -12 145 21 c 128,-1,1
EndSplineSet
EndChar
StartChar: d
Encoding: 100 100 129
Width: 556
GlyphClass: 2
Flags: W
AnchorPoint: "Anchor-3" 524 498 basechar 0
AnchorPoint: "Anchor-1" 273 796 basechar 0
AnchorPoint: "Anchor-0" 273 0 basechar 0
LayerCount: 2
Fore
SplineSet
144.5 18 m 128,-1,1
 96 48 96 48 67 106 c 128,-1,2
 38 164 38 164 38 244 c 256,3,4
 38 324 38 324 66 383 c 128,-1,5
 94 442 94 442 142 473.5 c 128,-1,6
 190 505 190 505 249 505 c 0,7,8
 362 505 362 505 413 413 c 1,9,-1
 413 708 l 1,10,-1
 481 708 l 1,11,-1
 481 185 l 2,12,13
 481 91 481 91 498 0 c 1,14,-1
 435 0 l 1,15,-1
 412 78 l 1,16,17
 391 37 391 37 350 12.5 c 128,-1,18
 309 -12 309 -12 249 -12 c 0,19,0
 193 -12 193 -12 144.5 18 c 128,-1,1
373.5 100.5 m 128,-1,21
 414 154 414 154 414 245 c 0,22,23
 414 338 414 338 373.5 392 c 128,-1,24
 333 446 333 446 264 446 c 0,25,26
 193 446 193 446 152 392.5 c 128,-1,27
 111 339 111 339 111 244 c 0,28,29
 111 151 111 151 152 99 c 128,-1,30
 193 47 193 47 264 47 c 0,31,20
 333 47 333 47 373.5 100.5 c 128,-1,21
EndSplineSet
EndChar
StartChar: e
Encoding: 101 101 133
Width: 530
GlyphClass: 2
Flags: W
AnchorPoint: "Anchor-2" 422 10 basechar 0
AnchorPoint: "Anchor-1" 276 496 basechar 0
AnchorPoint: "Anchor-0" 263 0 basechar 0
LayerCount: 2
Fore
SplineSet
147.5 22 m 128,-1,1
 94 56 94 56 66 114.5 c 128,-1,2
 38 173 38 173 38 246 c 0,3,4
 38 323 38 323 68.5 382 c 128,-1,5
 99 441 99 441 152 473 c 128,-1,6
 205 505 205 505 271 505 c 0,7,8
 344 505 344 505 396 466.5 c 128,-1,9
 448 428 448 428 473.5 366 c 128,-1,10
 499 304 499 304 494 235 c 1,11,-1
 109 235 l 1,12,13
 111 167 111 167 138 125 c 128,-1,14
 165 83 165 83 202 65.5 c 128,-1,15
 239 48 239 48 276 48 c 0,16,17
 318 48 318 48 348.5 63.5 c 128,-1,18
 379 79 379 79 398 105 c 1,19,-1
 464 84 l 1,20,21
 436 41 436 41 388 14.5 c 128,-1,22
 340 -12 340 -12 273 -12 c 0,23,0
 201 -12 201 -12 147.5 22 c 128,-1,1
403 364 m 128,-1,25
 385 400 385 400 351 423 c 128,-1,26
 317 446 317 446 271 446 c 0,27,28
 210 446 210 446 165 408.5 c 128,-1,29
 120 371 120 371 110 290 c 1,30,-1
 422 290 l 1,31,24
 421 328 421 328 403 364 c 128,-1,25
EndSplineSet
EndChar
StartChar: f
Encoding: 102 102 142
Width: 299
GlyphClass: 2
Flags: W
AnchorPoint: "Anchor-1" 149 796 basechar 0
AnchorPoint: "Anchor-0" 149 0 basechar 0
LayerCount: 2
Fore
SplineSet
101 441 m 1,0,-1
 16 441 l 1,1,-1
 16 496 l 1,2,-1
 101 496 l 1,3,-1
 101 590 l 2,4,5
 101 642 101 642 110.5 668.5 c 128,-1,6
 120 695 120 695 145.5 706 c 128,-1,7
 171 717 171 717 221 717 c 2,8,-1
 270 717 l 1,9,-1
 270 658 l 1,10,-1
 220 658 l 2,11,12
 189 658 189 658 179 646 c 128,-1,13
 169 634 169 634 169 596 c 2,14,-1
 169 496 l 1,15,-1
 270 496 l 1,16,-1
 270 441 l 1,17,-1
 169 441 l 1,18,-1
 169 0 l 1,19,-1
 101 0 l 1,20,-1
 101 441 l 1,0,-1
EndSplineSet
EndChar
StartChar: g
Encoding: 103 103 143
Width: 546
GlyphClass: 2
Flags: W
AnchorPoint: "Anchor-1" 271 496 basechar 0
AnchorPoint: "Anchor-0" 271 -251 basechar 0
LayerCount: 2
Fore
SplineSet
147 -160 m 128,-1,1
 94 -131 94 -131 78 -74 c 1,2,-1
 146 -54 l 1,3,4
 156 -90 156 -90 188.5 -109.5 c 128,-1,5
 221 -129 221 -129 270 -129 c 0,6,7
 333 -129 333 -129 369.5 -96.5 c 128,-1,8
 406 -64 406 -64 406 4 c 2,9,-1
 406 96 l 1,10,11
 356 6 356 6 249 6 c 0,12,13
 192 6 192 6 144 34 c 128,-1,14
 96 62 96 62 67 118 c 128,-1,15
 38 174 38 174 38 252 c 0,16,17
 38 329 38 329 66 386.5 c 128,-1,18
 94 444 94 444 142 474.5 c 128,-1,19
 190 505 190 505 250 505 c 0,20,21
 308 505 308 505 344.5 481.5 c 128,-1,22
 381 458 381 458 406 415 c 1,23,-1
 424 496 l 1,24,-1
 474 496 l 1,25,-1
 474 2 l 2,26,27
 474 -89 474 -89 417.5 -139 c 128,-1,28
 361 -189 361 -189 266 -189 c 0,29,0
 200 -189 200 -189 147 -160 c 128,-1,1
366 112 m 128,-1,31
 407 159 407 159 407 254 c 256,32,33
 407 349 407 349 366 397.5 c 128,-1,34
 325 446 325 446 261 446 c 0,35,36
 193 446 193 446 151.5 394 c 128,-1,37
 110 342 110 342 110 252 c 0,38,39
 110 164 110 164 151.5 114.5 c 128,-1,40
 193 65 193 65 261 65 c 0,41,30
 325 65 325 65 366 112 c 128,-1,31
EndSplineSet
EndChar
StartChar: h
Encoding: 104 104 147
Width: 543
GlyphClass: 2
Flags: W
AnchorPoint: "Anchor-1" 268 796 basechar 0
AnchorPoint: "Anchor-0" 268 0 basechar 0
LayerCount: 2
Fore
SplineSet
74 708 m 1,0,-1
 142 708 l 1,1,-1
 142 420 l 1,2,3
 165 457 165 457 204.5 481 c 128,-1,4
 244 505 244 505 303 505 c 0,5,6
 389 505 389 505 429.5 455.5 c 128,-1,7
 470 406 470 406 470 321 c 2,8,-1
 470 0 l 1,9,-1
 402 0 l 1,10,-1
 402 300 l 2,11,12
 402 368 402 368 376.5 406.5 c 128,-1,13
 351 445 351 445 286 445 c 0,14,15
 220 445 220 445 181 399.5 c 128,-1,16
 142 354 142 354 142 273 c 2,17,-1
 142 0 l 1,18,-1
 74 0 l 1,19,-1
 74 708 l 1,0,-1
EndSplineSet
EndChar
StartChar: k
Encoding: 107 107 161
Width: 470
GlyphClass: 2
Flags: W
AnchorPoint: "Anchor-1" 236 796 basechar 0
AnchorPoint: "Anchor-0" 236 0 basechar 0
LayerCount: 2
Fore
SplineSet
74 708 m 1,0,-1
 142 708 l 1,1,-1
 142 263 l 1,2,-1
 350 496 l 1,3,-1
 433 496 l 1,4,-1
 247 292 l 1,5,-1
 460 0 l 1,6,-1
 377 0 l 1,7,-1
 201 242 l 1,8,-1
 142 178 l 1,9,-1
 142 0 l 1,10,-1
 74 0 l 1,11,-1
 74 708 l 1,0,-1
EndSplineSet
EndChar
StartChar: l
Encoding: 108 108 163
Width: 247
GlyphClass: 2
Flags: W
AnchorPoint: "Anchor-3" 181 499 basechar 0
AnchorPoint: "Anchor-1" 107 796 basechar 0
AnchorPoint: "Anchor-0" 125 0 basechar 0
LayerCount: 2
Fore
SplineSet
112 9.5 m 128,-1,1
 89 19 89 19 79.5 41.5 c 128,-1,2
 70 64 70 64 70 106 c 2,3,-1
 70 708 l 1,4,-1
 138 708 l 1,5,-1
 138 111 l 2,6,7
 138 81 138 81 148.5 70 c 128,-1,8
 159 59 159 59 191 59 c 2,9,-1
 226 59 l 1,10,-1
 226 0 l 1,11,-1
 179 0 l 2,12,0
 135 0 135 0 112 9.5 c 128,-1,1
EndSplineSet
EndChar
StartChar: m
Encoding: 109 109 167
Width: 836
GlyphClass: 2
Flags: W
AnchorPoint: "Anchor-1" 413 496 basechar 0
AnchorPoint: "Anchor-0" 413 0 basechar 0
LayerCount: 2
Fore
SplineSet
74 496 m 1,0,-1
 124 496 l 1,1,-1
 141 418 l 1,2,3
 161 455 161 455 200 480 c 128,-1,4
 239 505 239 505 292 505 c 0,5,6
 402 505 402 505 437 413 c 1,7,8
 494 505 494 505 603 505 c 0,9,10
 685 505 685 505 724.5 455 c 128,-1,11
 764 405 764 405 764 321 c 2,12,-1
 764 0 l 1,13,-1
 696 0 l 1,14,-1
 696 300 l 2,15,16
 696 368 696 368 671.5 406.5 c 128,-1,17
 647 445 647 445 586 445 c 256,18,19
 525 445 525 445 489 400 c 128,-1,20
 453 355 453 355 453 273 c 2,21,-1
 453 0 l 1,22,-1
 385 0 l 1,23,-1
 385 300 l 2,24,25
 385 368 385 368 361.5 406.5 c 128,-1,26
 338 445 338 445 277 445 c 0,27,28
 218 445 218 445 180 399 c 128,-1,29
 142 353 142 353 142 273 c 2,30,-1
 142 0 l 1,31,-1
 74 0 l 1,32,-1
 74 496 l 1,0,-1
EndSplineSet
EndChar
StartChar: o
Encoding: 111 111 173
Width: 537
GlyphClass: 2
Flags: W
AnchorPoint: "Anchor-3" 522 496 basechar 0
AnchorPoint: "Anchor-2" 488 10 basechar 0
AnchorPoint: "Anchor-1" 269 496 basechar 0
AnchorPoint: "Anchor-0" 269 0 basechar 0
LayerCount: 2
Fore
SplineSet
158 16 m 128,-1,1
 105 44 105 44 71.5 102.5 c 128,-1,2
 38 161 38 161 38 247 c 0,3,4
 38 332 38 332 71.5 390.5 c 128,-1,5
 105 449 105 449 158 477 c 128,-1,6
 211 505 211 505 269 505 c 0,7,8
 326 505 326 505 379 477 c 128,-1,9
 432 449 432 449 465.5 390.5 c 128,-1,10
 499 332 499 332 499 247 c 0,11,12
 499 161 499 161 465.5 102.5 c 128,-1,13
 432 44 432 44 379 16 c 128,-1,14
 326 -12 326 -12 269 -12 c 0,15,0
 211 -12 211 -12 158 16 c 128,-1,1
347.5 70 m 128,-1,17
 384 92 384 92 406 137 c 128,-1,18
 428 182 428 182 428 247 c 256,19,20
 428 312 428 312 406 357 c 128,-1,21
 384 402 384 402 347.5 423.5 c 128,-1,22
 311 445 311 445 269 445 c 256,23,24
 227 445 227 445 190.5 423.5 c 128,-1,25
 154 402 154 402 132 357 c 128,-1,26
 110 312 110 312 110 247 c 256,27,28
 110 182 110 182 132 137 c 128,-1,29
 154 92 154 92 190.5 70 c 128,-1,30
 227 48 227 48 269 48 c 256,31,16
 311 48 311 48 347.5 70 c 128,-1,17
EndSplineSet
Substitution2: "Single Substitution lookup 15 subtable" ordmasculine
AlternateSubs2: "'aalt' Access All Alternates in Latin lookup 0 subtable" ordmasculine
EndChar
StartChar: p
Encoding: 112 112 182
Width: 555
GlyphClass: 2
Flags: W
AnchorPoint: "Anchor-1" 279 496 basechar 0
AnchorPoint: "Anchor-0" 279 0 basechar 0
LayerCount: 2
Fore
SplineSet
74 496 m 1,0,-1
 124 496 l 1,1,-1
 143 415 l 1,2,3
 165 456 165 456 205 480.5 c 128,-1,4
 245 505 245 505 305 505 c 0,5,6
 362 505 362 505 410.5 475.5 c 128,-1,7
 459 446 459 446 488 388 c 128,-1,8
 517 330 517 330 517 249 c 0,9,10
 517 167 517 167 488.5 108 c 128,-1,11
 460 49 460 49 412 18.5 c 128,-1,12
 364 -12 364 -12 305 -12 c 0,13,14
 247 -12 247 -12 205 13.5 c 128,-1,15
 163 39 163 39 142 80 c 1,16,-1
 142 -162 l 1,17,-1
 74 -162 l 1,18,-1
 74 496 l 1,0,-1
403.5 100 m 128,-1,20
 443 153 443 153 443 248 c 0,21,22
 443 342 443 342 402.5 394 c 128,-1,23
 362 446 362 446 291 446 c 0,24,25
 222 446 222 446 181.5 392.5 c 128,-1,26
 141 339 141 339 141 248 c 0,27,28
 141 156 141 156 182.5 101.5 c 128,-1,29
 224 47 224 47 293 47 c 0,30,19
 364 47 364 47 403.5 100 c 128,-1,20
EndSplineSet
EndChar
StartChar: q
Encoding: 113 113 184
Width: 562
GlyphClass: 2
Flags: W
AnchorPoint: "Anchor-1" 278 496 basechar 0
AnchorPoint: "Anchor-0" 278 0 basechar 0
LayerCount: 2
Fore
SplineSet
413 -44 m 2,1,-1
 413 81 l 1,2,3
 393 38 393 38 351 13 c 128,-1,4
 309 -12 309 -12 251 -12 c 0,5,6
 192 -12 192 -12 143.5 18.5 c 128,-1,7
 95 49 95 49 66.5 108 c 128,-1,8
 38 167 38 167 38 249 c 0,9,10
 38 330 38 330 67.5 388 c 128,-1,11
 97 446 97 446 145.5 475.5 c 128,-1,12
 194 505 194 505 250 505 c 0,13,14
 363 505 363 505 413 414 c 1,15,-1
 431 496 l 1,16,-1
 481 496 l 1,17,-1
 481 -40 l 2,18,19
 481 -77 481 -77 497 -94 c 128,-1,20
 513 -111 513 -111 548 -111 c 0,21,22
 581 -111 581 -111 608 -98 c 1,23,-1
 608 -160 l 1,24,25
 572 -174 572 -174 536 -174 c 0,26,0
 413 -174 413 -174 413 -44 c 2,1,-1
373 101 m 128,-1,28
 414 155 414 155 414 248 c 0,29,30
 414 340 414 340 374 393 c 128,-1,31
 334 446 334 446 265 446 c 0,32,33
 194 446 194 446 152.5 394 c 128,-1,34
 111 342 111 342 111 248 c 0,35,36
 111 153 111 153 151.5 100 c 128,-1,37
 192 47 192 47 263 47 c 0,38,27
 332 47 332 47 373 101 c 128,-1,28
EndSplineSet
EndChar
StartChar: r
Encoding: 114 114 185
Width: 336
GlyphClass: 2
Flags: W
AnchorPoint: "Anchor-1" 197 496 basechar 0
AnchorPoint: "Anchor-0" 164 0 basechar 0
LayerCount: 2
Fore
SplineSet
74 496 m 1,0,-1
 124 496 l 1,1,-1
 145 403 l 1,2,3
 170 447 170 447 216 475.5 c 128,-1,4
 262 504 262 504 322 502 c 1,5,-1
 322 434 l 1,6,7
 224 433 224 433 183 379 c 128,-1,8
 142 325 142 325 142 221 c 2,9,-1
 142 0 l 1,10,-1
 74 0 l 1,11,-1
 74 496 l 1,0,-1
EndSplineSet
EndChar
StartChar: s
Encoding: 115 115 188
Width: 458
GlyphClass: 2
Flags: W
AnchorPoint: "Anchor-1" 228 496 basechar 0
AnchorPoint: "Anchor-0" 237 0 basechar 0
LayerCount: 2
Fore
SplineSet
114 19.5 m 128,-1,1
 57 51 57 51 34 112 c 1,2,-1
 100 137 l 1,3,4
 112 95 112 95 150 71 c 128,-1,5
 188 47 188 47 235 47 c 0,6,7
 289 47 289 47 323.5 71 c 128,-1,8
 358 95 358 95 358 134 c 0,9,10
 358 170 358 170 330.5 189.5 c 128,-1,11
 303 209 303 209 240 224 c 2,12,-1
 190 235 l 2,13,14
 119 251 119 251 83 280.5 c 128,-1,15
 47 310 47 310 47 368 c 0,16,17
 47 408 47 408 70.5 439.5 c 128,-1,18
 94 471 94 471 135.5 488.5 c 128,-1,19
 177 506 177 506 228 506 c 0,20,21
 289 506 289 506 338.5 479.5 c 128,-1,22
 388 453 388 453 409 405 c 1,23,-1
 345 380 l 1,24,25
 332 412 332 412 298 429.5 c 128,-1,26
 264 447 264 447 224 447 c 0,27,28
 176 447 176 447 145 425.5 c 128,-1,29
 114 404 114 404 114 371 c 0,30,31
 114 342 114 342 136 325 c 128,-1,32
 158 308 158 308 208 296 c 2,33,-1
 258 284 l 2,34,35
 344 265 344 265 384.5 234 c 128,-1,36
 425 203 425 203 425 138 c 0,37,38
 425 95 425 95 400 60.5 c 128,-1,39
 375 26 375 26 331.5 7 c 128,-1,40
 288 -12 288 -12 234 -12 c 0,41,0
 171 -12 171 -12 114 19.5 c 128,-1,1
EndSplineSet
EndChar
StartChar: t
Encoding: 116 116 194
Width: 309
GlyphClass: 2
Flags: W
AnchorPoint: "Anchor-3" 197 544 basechar 0
AnchorPoint: "Anchor-1" 155 496 basechar 0
AnchorPoint: "Anchor-0" 185 0 basechar 0
LayerCount: 2
Fore
SplineSet
146 9.5 m 128,-1,1
 123 19 123 19 113.5 44 c 128,-1,2
 104 69 104 69 104 120 c 2,3,-1
 104 441 l 1,4,-1
 19 441 l 1,5,-1
 19 496 l 1,6,-1
 104 496 l 1,7,-1
 104 620 l 1,8,-1
 172 620 l 1,9,-1
 172 496 l 1,10,-1
 274 496 l 1,11,-1
 274 441 l 1,12,-1
 172 441 l 1,13,-1
 172 127 l 2,14,15
 172 98 172 98 176 84 c 128,-1,16
 180 70 180 70 191 65 c 128,-1,17
 202 60 202 60 225 60 c 2,18,-1
 274 60 l 1,19,-1
 274 0 l 1,20,-1
 215 0 l 2,21,0
 169 0 169 0 146 9.5 c 128,-1,1
EndSplineSet
EndChar
StartChar: u
Encoding: 117 117 198
Width: 532
GlyphClass: 2
Flags: W
AnchorPoint: "Anchor-3" 503 496 basechar 0
AnchorPoint: "Anchor-2" 458 10 basechar 0
AnchorPoint: "Anchor-1" 260 496 basechar 0
AnchorPoint: "Anchor-0" 260 0 basechar 0
LayerCount: 2
Fore
SplineSet
111 37 m 128,-1,1
 72 86 72 86 72 173 c 2,2,-1
 72 496 l 1,3,-1
 140 496 l 1,4,-1
 140 193 l 2,5,6
 140 123 140 123 164 85.5 c 128,-1,7
 188 48 188 48 252 48 c 0,8,9
 315 48 315 48 352.5 93.5 c 128,-1,10
 390 139 390 139 390 222 c 2,11,-1
 390 496 l 1,12,-1
 458 496 l 1,13,-1
 458 0 l 1,14,-1
 407 0 l 1,15,-1
 391 76 l 1,16,17
 370 37 370 37 331.5 12.5 c 128,-1,18
 293 -12 293 -12 235 -12 c 0,19,0
 150 -12 150 -12 111 37 c 128,-1,1
EndSplineSet
EndChar
StartChar: v
Encoding: 118 118 207
Width: 437
GlyphClass: 2
Flags: W
AnchorPoint: "Anchor-1" 219 496 basechar 0
AnchorPoint: "Anchor-0" 219 0 basechar 0
LayerCount: 2
Fore
SplineSet
10 496 m 1,0,-1
 83 496 l 1,1,-1
 220 97 l 1,2,-1
 355 496 l 1,3,-1
 427 496 l 1,4,-1
 250 0 l 1,5,-1
 187 0 l 1,6,-1
 10 496 l 1,0,-1
EndSplineSet
EndChar
StartChar: w
Encoding: 119 119 208
Width: 664
GlyphClass: 2
Flags: W
AnchorPoint: "Anchor-1" 332 496 basechar 0
AnchorPoint: "Anchor-0" 332 0 basechar 0
LayerCount: 2
Fore
SplineSet
15 496 m 1,0,-1
 88 496 l 1,1,-1
 191 115 l 1,2,-1
 298 496 l 1,3,-1
 367 496 l 1,4,-1
 476 115 l 1,5,-1
 577 496 l 1,6,-1
 649 496 l 1,7,-1
 506 0 l 1,8,-1
 448 0 l 1,9,-1
 332 411 l 1,10,-1
 216 0 l 1,11,-1
 160 0 l 1,12,-1
 15 496 l 1,0,-1
EndSplineSet
EndChar
StartChar: x
Encoding: 120 120 213
Width: 461
GlyphClass: 2
Flags: W
AnchorPoint: "Anchor-1" 231 496 basechar 0
AnchorPoint: "Anchor-0" 231 0 basechar 0
LayerCount: 2
Fore
SplineSet
188 254 m 1,0,-1
 17 496 l 1,1,-1
 97 496 l 1,2,-1
 229 305 l 1,3,-1
 364 496 l 1,4,-1
 443 496 l 1,5,-1
 273 253 l 1,6,-1
 451 0 l 1,7,-1
 370 0 l 1,8,-1
 229 200 l 1,9,-1
 90 0 l 1,10,-1
 10 0 l 1,11,-1
 188 254 l 1,0,-1
EndSplineSet
EndChar
StartChar: y
Encoding: 121 121 214
Width: 428
GlyphClass: 2
Flags: W
AnchorPoint: "Anchor-1" 214 496 basechar 0
AnchorPoint: "Anchor-0" 213 0 basechar 0
LayerCount: 2
Fore
SplineSet
39 -102 m 1,0,-1
 83 -102 l 2,1,2
 114 -102 114 -102 131.5 -95.5 c 128,-1,3
 149 -89 149 -89 159.5 -72 c 128,-1,4
 170 -55 170 -55 179 -22 c 2,5,-1
 186 4 l 1,6,-1
 10 496 l 1,7,-1
 83 496 l 1,8,-1
 219 98 l 1,9,-1
 345 496 l 1,10,-1
 418 496 l 1,11,-1
 244 -28 l 2,12,13
 225 -84 225 -84 208 -111.5 c 128,-1,14
 191 -139 191 -139 163 -150.5 c 128,-1,15
 135 -162 135 -162 84 -162 c 2,16,-1
 39 -162 l 1,17,-1
 39 -102 l 1,0,-1
EndSplineSet
EndChar
StartChar: z
Encoding: 122 122 219
Width: 441
GlyphClass: 2
Flags: W
AnchorPoint: "Anchor-1" 226 496 basechar 0
AnchorPoint: "Anchor-0" 219 0 basechar 0
LayerCount: 2
Fore
SplineSet
39 60 m 1,0,-1
 322 436 l 1,1,-1
 47 436 l 1,2,-1
 47 496 l 1,3,-1
 402 496 l 1,4,-1
 402 436 l 1,5,-1
 119 60 l 1,6,-1
 411 60 l 1,7,-1
 411 0 l 1,8,-1
 39 0 l 1,9,-1
 39 60 l 1,0,-1
EndSplineSet
EndChar
StartChar: braceleft
Encoding: 123 123 279
Width: 330
GlyphClass: 1
Flags: W
LayerCount: 2
Fore
SplineSet
177.5 -151.5 m 128,-1,1
 154 -141 154 -141 145.5 -119 c 128,-1,2
 137 -97 137 -97 137 -58 c 2,3,-1
 137 150 l 2,4,5
 137 200 137 200 117.5 220.5 c 128,-1,6
 98 241 98 241 42 245 c 1,7,-1
 42 301 l 1,8,9
 98 305 98 305 117.5 325.5 c 128,-1,10
 137 346 137 346 137 396 c 2,11,-1
 137 604 l 2,12,13
 137 643 137 643 145.5 665 c 128,-1,14
 154 687 154 687 177.5 697.5 c 128,-1,15
 201 708 201 708 248 708 c 2,16,-1
 296 708 l 1,17,-1
 296 652 l 1,18,-1
 249 652 l 2,19,20
 223 652 223 652 213.5 643 c 128,-1,21
 204 634 204 634 204 611 c 2,22,-1
 204 402 l 2,23,24
 204 343 204 343 187.5 315 c 128,-1,25
 171 287 171 287 133 276 c 1,26,-1
 133 270 l 1,27,28
 171 259 171 259 187.5 231 c 128,-1,29
 204 203 204 203 204 144 c 2,30,-1
 204 -65 l 2,31,32
 204 -88 204 -88 213.5 -97 c 128,-1,33
 223 -106 223 -106 249 -106 c 2,34,-1
 296 -106 l 1,35,-1
 296 -162 l 1,36,-1
 248 -162 l 2,37,0
 201 -162 201 -162 177.5 -151.5 c 128,-1,1
EndSplineSet
EndChar
StartChar: bar
Encoding: 124 124 305
Width: 227
GlyphClass: 1
Flags: W
LayerCount: 2
Fore
SplineSet
80 838 m 1,0,-1
 147 838 l 1,1,-1
 147 -162 l 1,2,-1
 80 -162 l 1,3,-1
 80 838 l 1,0,-1
EndSplineSet
EndChar
StartChar: braceright
Encoding: 125 125 280
Width: 330
GlyphClass: 1
Flags: W
LayerCount: 2
Fore
SplineSet
34 -106 m 1,0,-1
 81 -106 l 2,1,2
 106 -106 106 -106 115.5 -97 c 128,-1,3
 125 -88 125 -88 125 -65 c 2,4,-1
 125 144 l 2,5,6
 125 203 125 203 142 231 c 128,-1,7
 159 259 159 259 197 270 c 1,8,-1
 197 276 l 1,9,10
 159 287 159 287 142 315 c 128,-1,11
 125 343 125 343 125 402 c 2,12,-1
 125 611 l 2,13,14
 125 634 125 634 115.5 643 c 128,-1,15
 106 652 106 652 81 652 c 2,16,-1
 34 652 l 1,17,-1
 34 708 l 1,18,-1
 81 708 l 2,19,20
 128 708 128 708 152 697.5 c 128,-1,21
 176 687 176 687 184.5 665 c 128,-1,22
 193 643 193 643 193 604 c 2,23,-1
 193 396 l 2,24,25
 193 346 193 346 212.5 325.5 c 128,-1,26
 232 305 232 305 288 301 c 1,27,-1
 288 245 l 1,28,29
 232 241 232 241 212.5 220.5 c 128,-1,30
 193 200 193 200 193 150 c 2,31,-1
 193 -58 l 2,32,33
 193 -97 193 -97 184.5 -119 c 128,-1,34
 176 -141 176 -141 152 -151.5 c 128,-1,35
 128 -162 128 -162 81 -162 c 2,36,-1
 34 -162 l 1,37,-1
 34 -106 l 1,0,-1
EndSplineSet
EndChar
StartChar: asciitilde
Encoding: 126 126 333
Width: 561
GlyphClass: 1
Flags: W
LayerCount: 2
Fore
SplineSet
79 291 m 128,-1,1
 109 323 109 323 166 323 c 0,2,3
 194 323 194 323 222.5 314 c 128,-1,4
 251 305 251 305 291 289 c 0,5,6
 329 274 329 274 351.5 266.5 c 128,-1,7
 374 259 374 259 395 259 c 0,8,9
 457 259 457 259 461 331 c 1,10,-1
 520 317 l 1,11,12
 513 260 513 260 482.5 228 c 128,-1,13
 452 196 452 196 395 196 c 0,14,15
 368 196 368 196 339 205 c 128,-1,16
 310 214 310 214 270 230 c 0,17,18
 232 245 232 245 209.5 252.5 c 128,-1,19
 187 260 187 260 166 260 c 0,20,21
 106 260 106 260 100 188 c 1,22,-1
 42 202 l 1,23,0
 49 259 49 259 79 291 c 128,-1,1
EndSplineSet
EndChar
StartChar: exclamdown
Encoding: 161 161 264
Width: 271
GlyphClass: 1
Flags: W
LayerCount: 2
Fore
SplineSet
100 1 m 1,0,-1
 115 316 l 1,1,-1
 156 316 l 1,2,-1
 171 1 l 1,3,-1
 171 -170 l 1,4,-1
 100 -170 l 1,5,-1
 100 1 l 1,0,-1
96.5 415.5 m 128,-1,7
 80 432 80 432 80 455 c 256,8,9
 80 478 80 478 96.5 494 c 128,-1,10
 113 510 113 510 136 510 c 256,11,12
 159 510 159 510 175 494 c 128,-1,13
 191 478 191 478 191 455 c 256,14,15
 191 432 191 432 175 415.5 c 128,-1,16
 159 399 159 399 136 399 c 256,17,6
 113 399 113 399 96.5 415.5 c 128,-1,7
EndSplineSet
EndChar
StartChar: cent
Encoding: 162 162 311
Width: 477
GlyphClass: 1
Flags: W
LayerCount: 2
Fore
SplineSet
127.5 32.5 m 128,-1,1
 84 68 84 68 61 124 c 128,-1,2
 38 180 38 180 38 246 c 0,3,4
 38 311 38 311 62 366 c 128,-1,5
 86 421 86 421 129.5 456.5 c 128,-1,6
 173 492 173 492 230 500 c 1,7,-1
 230 586 l 1,8,-1
 273 586 l 1,9,-1
 273 503 l 1,10,11
 337 501 337 501 381.5 471 c 128,-1,12
 426 441 426 441 451 397 c 1,13,-1
 388 373 l 1,14,15
 371 403 371 403 341.5 421 c 128,-1,16
 312 439 312 439 273 442 c 1,17,-1
 273 49 l 1,18,19
 313 53 313 53 343.5 72 c 128,-1,20
 374 91 374 91 390 120 c 1,21,-1
 454 97 l 1,22,23
 429 53 429 53 382 22.5 c 128,-1,24
 335 -8 335 -8 273 -12 c 1,25,-1
 273 -90 l 1,26,-1
 230 -90 l 1,27,-1
 230 -10 l 1,28,0
 171 -3 171 -3 127.5 32.5 c 128,-1,1
145 375.5 m 128,-1,30
 111 326 111 326 111 247 c 0,31,32
 111 169 111 169 144 117 c 128,-1,33
 177 65 177 65 230 53 c 1,34,-1
 230 438 l 1,35,29
 179 425 179 425 145 375.5 c 128,-1,30
EndSplineSet
EndChar
StartChar: sterling
Encoding: 163 163 316
Width: 589
GlyphClass: 1
Flags: W
LayerCount: 2
Fore
SplineSet
132 76 m 128,-1,1
 162 100 162 100 185 137.5 c 128,-1,2
 208 175 208 175 208 220 c 0,3,4
 208 269 208 269 184 324 c 1,5,-1
 75 324 l 1,6,-1
 75 369 l 1,7,-1
 163 369 l 1,8,9
 140 417 140 417 129.5 448.5 c 128,-1,10
 119 480 119 480 119 513 c 0,11,12
 119 592 119 592 176.5 636.5 c 128,-1,13
 234 681 234 681 326 681 c 0,14,15
 408 681 408 681 462.5 643.5 c 128,-1,16
 517 606 517 606 534 543 c 1,17,-1
 463 524 l 1,18,19
 439 622 439 622 326 622 c 0,20,21
 263 622 263 622 226.5 593.5 c 128,-1,22
 190 565 190 565 190 513 c 0,23,24
 190 486 190 486 199 460.5 c 128,-1,25
 208 435 208 435 227 391 c 2,26,-1
 237 369 l 1,27,-1
 448 369 l 1,28,-1
 448 324 l 1,29,-1
 258 324 l 1,30,31
 277 275 277 275 277 230 c 0,32,33
 277 131 277 131 191 78 c 1,34,35
 215 88 215 88 239 88 c 0,36,37
 258 88 258 88 275.5 83.5 c 128,-1,38
 293 79 293 79 321 70 c 0,39,40
 357 59 357 59 377 54.5 c 128,-1,41
 397 50 397 50 422 50 c 0,42,43
 444 50 444 50 466.5 55 c 128,-1,44
 489 60 489 60 523 74 c 1,45,-1
 543 16 l 1,46,47
 477 -12 477 -12 427 -12 c 0,48,49
 402 -12 402 -12 379.5 -7 c 128,-1,50
 357 -2 357 -2 328 8 c 0,51,52
 295 18 295 18 274.5 22.5 c 128,-1,53
 254 27 254 27 230 27 c 0,54,55
 201 27 201 27 170.5 18 c 128,-1,56
 140 9 140 9 100 -11 c 1,57,-1
 77 41 l 1,58,0
 102 52 102 52 132 76 c 128,-1,1
EndSplineSet
EndChar
StartChar: currency
Encoding: 164 164 312
Width: 576
GlyphClass: 1
Flags: W
LayerCount: 2
Fore
SplineSet
53 117 m 1,0,-1
 118 183 l 1,1,2
 70 242 70 242 70 321 c 256,3,4
 70 400 70 400 118 459 c 1,5,-1
 53 525 l 1,6,-1
 85 555 l 1,7,-1
 150 490 l 1,8,9
 209 538 209 538 288 538 c 0,10,11
 368 538 368 538 426 490 c 1,12,-1
 491 555 l 1,13,-1
 523 525 l 1,14,-1
 457 459 l 1,15,16
 506 399 506 399 506 321 c 256,17,18
 506 243 506 243 457 183 c 1,19,-1
 523 117 l 1,20,-1
 491 87 l 1,21,-1
 426 152 l 1,22,23
 368 104 368 104 288 104 c 0,24,25
 209 104 209 104 150 152 c 1,26,-1
 85 87 l 1,27,-1
 53 117 l 1,0,-1
365.5 187 m 128,-1,29
 401 208 401 208 421.5 243.5 c 128,-1,30
 442 279 442 279 442 321 c 256,31,32
 442 363 442 363 421.5 398.5 c 128,-1,33
 401 434 401 434 365.5 455 c 128,-1,34
 330 476 330 476 288 476 c 256,35,36
 246 476 246 476 210.5 455 c 128,-1,37
 175 434 175 434 154.5 398.5 c 128,-1,38
 134 363 134 363 134 321 c 256,39,40
 134 279 134 279 154.5 243.5 c 128,-1,41
 175 208 175 208 210.5 187 c 128,-1,42
 246 166 246 166 288 166 c 256,43,28
 330 166 330 166 365.5 187 c 128,-1,29
EndSplineSet
EndChar
StartChar: yen
Encoding: 165 165 317
Width: 549
GlyphClass: 1
Flags: W
LayerCount: 2
Fore
SplineSet
237 89 m 1,0,-1
 81 89 l 1,1,-1
 81 134 l 1,2,-1
 237 134 l 1,3,-1
 237 226 l 1,4,-1
 81 226 l 1,5,-1
 81 271 l 1,6,-1
 230 271 l 1,7,-1
 0 668 l 1,8,-1
 80 668 l 1,9,-1
 275 326 l 1,10,-1
 469 668 l 1,11,-1
 549 668 l 1,12,-1
 320 271 l 1,13,-1
 468 271 l 1,14,-1
 468 226 l 1,15,-1
 313 226 l 1,16,-1
 313 134 l 1,17,-1
 468 134 l 1,18,-1
 468 89 l 1,19,-1
 313 89 l 1,20,-1
 313 0 l 1,21,-1
 237 0 l 1,22,-1
 237 89 l 1,0,-1
EndSplineSet
EndChar
StartChar: brokenbar
Encoding: 166 166 306
Width: 227
GlyphClass: 1
Flags: W
LayerCount: 2
Fore
SplineSet
80 233 m 1,0,-1
 147 233 l 1,1,-1
 147 -162 l 1,2,-1
 80 -162 l 1,3,-1
 80 233 l 1,0,-1
80 838 m 1,4,-1
 147 838 l 1,5,-1
 147 443 l 1,6,-1
 80 443 l 1,7,-1
 80 838 l 1,4,-1
EndSplineSet
EndChar
StartChar: section
Encoding: 167 167 300
Width: 518
GlyphClass: 1
Flags: W
LayerCount: 2
Fore
SplineSet
134 -140 m 128,-1,1
 84 -107 84 -107 68 -47 c 1,2,-1
 137 -29 l 1,3,4
 148 -72 148 -72 176.5 -94 c 128,-1,5
 205 -116 205 -116 258 -116 c 0,6,7
 306 -116 306 -116 337.5 -92.5 c 128,-1,8
 369 -69 369 -69 369 -35 c 0,9,10
 369 -4 369 -4 345 17 c 128,-1,11
 321 38 321 38 263 69 c 2,12,-1
 165 121 l 2,13,14
 94 160 94 160 64 195 c 128,-1,15
 34 230 34 230 34 280 c 0,16,17
 34 327 34 327 66.5 361.5 c 128,-1,18
 99 396 99 396 157 423 c 1,19,20
 117 451 117 451 100.5 477 c 128,-1,21
 84 503 84 503 84 537 c 0,22,23
 84 580 84 580 108.5 612.5 c 128,-1,24
 133 645 133 645 174 662.5 c 128,-1,25
 215 680 215 680 262 680 c 0,26,27
 335 680 335 680 384.5 647 c 128,-1,28
 434 614 434 614 451 554 c 1,29,-1
 381 536 l 1,30,31
 360 623 360 623 261 623 c 0,32,33
 213 623 213 623 181.5 599.5 c 128,-1,34
 150 576 150 576 150 542 c 0,35,36
 150 511 150 511 174 490 c 128,-1,37
 198 469 198 469 256 438 c 2,38,-1
 353 386 l 2,39,40
 424 347 424 347 454.5 312 c 128,-1,41
 485 277 485 277 485 227 c 0,42,43
 485 180 485 180 452.5 145.5 c 128,-1,44
 420 111 420 111 362 84 c 1,45,46
 402 56 402 56 418 30 c 128,-1,47
 434 4 434 4 434 -30 c 0,48,49
 434 -73 434 -73 409.5 -105.5 c 128,-1,50
 385 -138 385 -138 344 -155.5 c 128,-1,51
 303 -173 303 -173 256 -173 c 0,52,0
 184 -173 184 -173 134 -140 c 128,-1,1
392 162.5 m 128,-1,54
 420 188 420 188 420 224 c 0,55,56
 420 255 420 255 394.5 279.5 c 128,-1,57
 369 304 369 304 315 334 c 2,58,-1
 207 392 l 1,59,60
 155 370 155 370 127 344.5 c 128,-1,61
 99 319 99 319 99 283 c 0,62,63
 99 252 99 252 124.5 227.5 c 128,-1,64
 150 203 150 203 204 173 c 2,65,-1
 312 115 l 1,66,53
 364 137 364 137 392 162.5 c 128,-1,54
EndSplineSet
EndChar
StartChar: copyright
Encoding: 169 169 301
Width: 798
GlyphClass: 1
Flags: W
LayerCount: 2
Fore
SplineSet
225 33.5 m 128,-1,1
 145 80 145 80 98.5 160 c 128,-1,2
 52 240 52 240 52 334 c 256,3,4
 52 428 52 428 98.5 508 c 128,-1,5
 145 588 145 588 225 634.5 c 128,-1,6
 305 681 305 681 399 681 c 256,7,8
 493 681 493 681 573 634.5 c 128,-1,9
 653 588 653 588 699.5 508 c 128,-1,10
 746 428 746 428 746 334 c 256,11,12
 746 240 746 240 699.5 160 c 128,-1,13
 653 80 653 80 573 33.5 c 128,-1,14
 493 -13 493 -13 399 -13 c 256,15,0
 305 -13 305 -13 225 33.5 c 128,-1,1
274.5 194.5 m 128,-1,17
 227 246 227 246 227 336 c 0,18,19
 227 425 227 425 275.5 475.5 c 128,-1,20
 324 526 324 526 404 526 c 0,21,22
 455 526 455 526 489.5 503.5 c 128,-1,23
 524 481 524 481 544 445 c 1,24,-1
 485 423 l 1,25,26
 460 474 460 474 400 474 c 0,27,28
 353 474 353 474 324 439 c 128,-1,29
 295 404 295 404 295 336 c 256,30,31
 295 268 295 268 324.5 232 c 128,-1,32
 354 196 354 196 401 196 c 0,33,34
 432 196 432 196 453.5 207 c 128,-1,35
 475 218 475 218 489 245 c 1,36,-1
 547 223 l 1,37,38
 527 188 527 188 491.5 165.5 c 128,-1,39
 456 143 456 143 403 143 c 0,40,16
 322 143 322 143 274.5 194.5 c 128,-1,17
546 81.5 m 128,-1,42
 613 121 613 121 652 188 c 128,-1,43
 691 255 691 255 691 334 c 256,44,45
 691 413 691 413 652 480 c 128,-1,46
 613 547 613 547 546 586.5 c 128,-1,47
 479 626 479 626 399 626 c 256,48,49
 319 626 319 626 252 586.5 c 128,-1,50
 185 547 185 547 146 480 c 128,-1,51
 107 413 107 413 107 334 c 256,52,53
 107 255 107 255 146 188 c 128,-1,54
 185 121 185 121 252 81.5 c 128,-1,55
 319 42 319 42 399 42 c 256,56,41
 479 42 479 42 546 81.5 c 128,-1,42
EndSplineSet
EndChar
StartChar: ordfeminine
Encoding: 170 170 223
Width: 364
GlyphClass: 1
Flags: W
LayerCount: 2
Fore
SplineSet
79 415 m 128,-1,1
 53 436 53 436 53 472 c 0,2,3
 53 520 53 520 104 544 c 128,-1,4
 155 568 155 568 241 573 c 1,5,6
 241 607 241 607 230.5 625.5 c 128,-1,7
 220 644 220 644 181 644 c 0,8,9
 156 644 156 644 138.5 634.5 c 128,-1,10
 121 625 121 625 117 606 c 1,11,-1
 66 620 l 1,12,13
 77 651 77 651 107.5 669.5 c 128,-1,14
 138 688 138 688 183 688 c 0,15,16
 233 688 233 688 265 661.5 c 128,-1,17
 297 635 297 635 297 570 c 2,18,-1
 297 489 l 2,19,20
 297 442 297 442 308 400 c 1,21,-1
 259 400 l 1,22,-1
 247 442 l 1,23,24
 234 418 234 418 207 406 c 128,-1,25
 180 394 180 394 150 394 c 0,26,0
 105 394 105 394 79 415 c 128,-1,1
221 460.5 m 128,-1,28
 241 483 241 483 241 518 c 2,29,-1
 241 532 l 1,30,31
 171 526 171 526 141.5 512 c 128,-1,32
 112 498 112 498 112 476 c 0,33,34
 112 458 112 458 126 448 c 128,-1,35
 140 438 140 438 164 438 c 0,36,27
 201 438 201 438 221 460.5 c 128,-1,28
EndSplineSet
EndChar
StartChar: guillemotleft
Encoding: 171 171 289
Width: 532
GlyphClass: 1
Flags: W
LayerCount: 2
Fore
SplineSet
253 250 m 1,0,-1
 401 460 l 1,1,-1
 479 460 l 1,2,-1
 331 250 l 1,3,-1
 479 40 l 1,4,-1
 401 40 l 1,5,-1
 253 250 l 1,0,-1
53 250 m 1,6,-1
 201 460 l 1,7,-1
 279 460 l 1,8,-1
 131 250 l 1,9,-1
 279 40 l 1,10,-1
 201 40 l 1,11,-1
 53 250 l 1,6,-1
EndSplineSet
EndChar
StartChar: registered
Encoding: 174 174 302
Width: 798
GlyphClass: 1
Flags: W
LayerCount: 2
Fore
SplineSet
225 33.5 m 128,-1,1
 145 80 145 80 98.5 160 c 128,-1,2
 52 240 52 240 52 334 c 256,3,4
 52 428 52 428 98.5 508 c 128,-1,5
 145 588 145 588 225 634.5 c 128,-1,6
 305 681 305 681 399 681 c 256,7,8
 493 681 493 681 573 634.5 c 128,-1,9
 653 588 653 588 699.5 508 c 128,-1,10
 746 428 746 428 746 334 c 256,11,12
 746 240 746 240 699.5 160 c 128,-1,13
 653 80 653 80 573 33.5 c 128,-1,14
 493 -13 493 -13 399 -13 c 256,15,0
 305 -13 305 -13 225 33.5 c 128,-1,1
546 81.5 m 128,-1,17
 613 121 613 121 652 188 c 128,-1,18
 691 255 691 255 691 334 c 256,19,20
 691 413 691 413 652 480 c 128,-1,21
 613 547 613 547 546 586.5 c 128,-1,22
 479 626 479 626 399 626 c 256,23,24
 319 626 319 626 252 586.5 c 128,-1,25
 185 547 185 547 146 480 c 128,-1,26
 107 413 107 413 107 334 c 256,27,28
 107 255 107 255 146 188 c 128,-1,29
 185 121 185 121 252 81.5 c 128,-1,30
 319 42 319 42 399 42 c 256,31,16
 479 42 479 42 546 81.5 c 128,-1,17
271 529 m 1,32,-1
 399 529 l 2,33,34
 469 529 469 529 507.5 500.5 c 128,-1,35
 546 472 546 472 546 415 c 0,36,37
 546 375 546 375 521.5 347.5 c 128,-1,38
 497 320 497 320 458 311 c 1,39,-1
 566 162 l 1,40,-1
 491 162 l 1,41,-1
 390 301 l 1,42,-1
 335 301 l 1,43,-1
 335 162 l 1,44,-1
 271 162 l 1,45,-1
 271 529 l 1,32,-1
460.5 368 m 128,-1,47
 480 384 480 384 480 415 c 0,48,49
 480 449 480 449 458 463 c 128,-1,50
 436 477 436 477 392 477 c 2,51,-1
 335 477 l 1,52,-1
 335 352 l 1,53,-1
 398 352 l 2,54,46
 441 352 441 352 460.5 368 c 128,-1,47
EndSplineSet
EndChar
StartChar: degree
Encoding: 176 176 304
Width: 337
GlyphClass: 1
Flags: W
LayerCount: 2
Fore
SplineSet
104.5 440 m 128,-1,1
 75 457 75 457 57.5 486.5 c 128,-1,2
 40 516 40 516 40 551 c 256,3,4
 40 586 40 586 57.5 615.5 c 128,-1,5
 75 645 75 645 104.5 662.5 c 128,-1,6
 134 680 134 680 169 680 c 0,7,8
 203 680 203 680 232.5 662.5 c 128,-1,9
 262 645 262 645 279.5 615.5 c 128,-1,10
 297 586 297 586 297 551 c 256,11,12
 297 516 297 516 279.5 486.5 c 128,-1,13
 262 457 262 457 232.5 440 c 128,-1,14
 203 423 203 423 169 423 c 0,15,0
 134 423 134 423 104.5 440 c 128,-1,1
223 497.5 m 128,-1,17
 245 520 245 520 245 551 c 0,18,19
 245 583 245 583 223 605 c 128,-1,20
 201 627 201 627 169 627 c 256,21,22
 137 627 137 627 114.5 605 c 128,-1,23
 92 583 92 583 92 551 c 0,24,25
 92 520 92 520 114.5 497.5 c 128,-1,26
 137 475 137 475 169 475 c 256,27,16
 201 475 201 475 223 497.5 c 128,-1,17
EndSplineSet
EndChar
StartChar: plusminus
Encoding: 177 177 330
Width: 581
GlyphClass: 1
Flags: W
LayerCount: 2
Fore
SplineSet
258 272 m 1,0,-1
 53 272 l 1,1,-1
 53 336 l 1,2,-1
 258 336 l 1,3,-1
 258 496 l 1,4,-1
 323 496 l 1,5,-1
 323 336 l 1,6,-1
 528 336 l 1,7,-1
 528 272 l 1,8,-1
 323 272 l 1,9,-1
 323 111 l 1,10,-1
 258 111 l 1,11,-1
 258 272 l 1,0,-1
53 65 m 1,12,-1
 528 65 l 1,13,-1
 528 0 l 1,14,-1
 53 0 l 1,15,-1
 53 65 l 1,12,-1
EndSplineSet
EndChar
StartChar: uni00B2
Encoding: 178 178 254
Width: 375
GlyphClass: 1
Flags: W
LayerCount: 2
Fore
SplineSet
205 587.5 m 128,-1,1
 251 639 251 639 251 684 c 0,2,3
 251 712 251 712 234 727 c 128,-1,4
 217 742 217 742 189 742 c 0,5,6
 163 742 163 742 144 727.5 c 128,-1,7
 125 713 125 713 122 680 c 1,8,-1
 66 693 l 1,9,10
 74 735 74 735 107.5 760.5 c 128,-1,11
 141 786 141 786 191 786 c 0,12,13
 243 786 243 786 277.5 759 c 128,-1,14
 312 732 312 732 312 687 c 0,15,16
 312 634 312 634 264.5 576.5 c 128,-1,17
 217 519 217 519 125 453 c 1,18,-1
 322 453 l 1,19,-1
 322 403 l 1,20,-1
 53 403 l 1,21,-1
 53 451 l 1,22,0
 159 536 159 536 205 587.5 c 128,-1,1
EndSplineSet
EndChar
StartChar: uni00B3
Encoding: 179 179 255
Width: 375
GlyphClass: 1
Flags: W
LayerCount: 2
Fore
SplineSet
99.5 421 m 128,-1,1
 65 446 65 446 53 487 c 1,2,-1
 107 500 l 1,3,4
 126 440 126 440 188 440 c 0,5,6
 220 440 220 440 241.5 458.5 c 128,-1,7
 263 477 263 477 263 507 c 0,8,9
 263 583 263 583 147 577 c 1,10,-1
 147 623 l 1,11,-1
 167 622 l 1,12,13
 254 622 254 622 254 685 c 0,14,15
 254 713 254 713 234.5 727.5 c 128,-1,16
 215 742 215 742 187 742 c 0,17,18
 128 742 128 742 111 685 c 1,19,-1
 58 698 l 1,20,21
 69 739 69 739 104 762.5 c 128,-1,22
 139 786 139 786 191 786 c 0,23,24
 239 786 239 786 276 760.5 c 128,-1,25
 313 735 313 735 313 685 c 0,26,27
 313 659 313 659 298 637 c 128,-1,28
 283 615 283 615 258 602 c 1,29,30
 289 590 289 590 305.5 564.5 c 128,-1,31
 322 539 322 539 322 510 c 0,32,33
 322 457 322 457 283.5 426.5 c 128,-1,34
 245 396 245 396 188 396 c 0,35,0
 134 396 134 396 99.5 421 c 128,-1,1
EndSplineSet
EndChar
StartChar: paragraph
Encoding: 182 182 299
Width: 494
GlyphClass: 1
Flags: W
LayerCount: 2
Fore
SplineSet
81 358.5 m 128,-1,1
 38 411 38 411 38 479 c 0,2,3
 38 530 38 530 63.5 573.5 c 128,-1,4
 89 617 89 617 132.5 642.5 c 128,-1,5
 176 668 176 668 227 668 c 2,6,-1
 465 668 l 1,7,-1
 465 612 l 1,8,-1
 427 612 l 1,9,-1
 427 -162 l 1,10,-1
 361 -162 l 1,11,-1
 361 612 l 1,12,-1
 255 612 l 1,13,-1
 255 -162 l 1,14,-1
 189 -162 l 1,15,-1
 189 293 l 1,16,0
 124 306 124 306 81 358.5 c 128,-1,1
EndSplineSet
EndChar
StartChar: uni00B9
Encoding: 185 185 253
Width: 246
GlyphClass: 1
Flags: W
LayerCount: 2
Fore
SplineSet
135 693 m 1,0,-1
 53 693 l 1,1,-1
 53 729 l 1,2,3
 86 729 86 729 110.5 741.5 c 128,-1,4
 135 754 135 754 144 779 c 1,5,-1
 193 779 l 1,6,-1
 193 403 l 1,7,-1
 135 403 l 1,8,-1
 135 693 l 1,0,-1
EndSplineSet
EndChar
StartChar: ordmasculine
Encoding: 186 186 224
Width: 373
GlyphClass: 1
Flags: W
LayerCount: 2
Fore
SplineSet
92 432.5 m 128,-1,1
 53 471 53 471 53 541 c 256,2,3
 53 611 53 611 92 649.5 c 128,-1,4
 131 688 131 688 186 688 c 0,5,6
 242 688 242 688 281 649.5 c 128,-1,7
 320 611 320 611 320 541 c 256,8,9
 320 471 320 471 281 432.5 c 128,-1,10
 242 394 242 394 186 394 c 0,11,0
 131 394 131 394 92 432.5 c 128,-1,1
240.5 467.5 m 128,-1,13
 261 494 261 494 261 541 c 256,14,15
 261 588 261 588 240.5 614.5 c 128,-1,16
 220 641 220 641 186 641 c 0,17,18
 153 641 153 641 132 614.5 c 128,-1,19
 111 588 111 588 111 541 c 256,20,21
 111 494 111 494 132 467.5 c 128,-1,22
 153 441 153 441 186 441 c 0,23,12
 220 441 220 441 240.5 467.5 c 128,-1,13
EndSplineSet
EndChar
StartChar: guillemotright
Encoding: 187 187 290
Width: 532
GlyphClass: 1
Flags: W
LayerCount: 2
Fore
SplineSet
401 250 m 1,0,-1
 253 460 l 1,1,-1
 331 460 l 1,2,-1
 479 250 l 1,3,-1
 331 40 l 1,4,-1
 253 40 l 1,5,-1
 401 250 l 1,0,-1
201 250 m 1,6,-1
 53 460 l 1,7,-1
 131 460 l 1,8,-1
 279 250 l 1,9,-1
 131 40 l 1,10,-1
 53 40 l 1,11,-1
 201 250 l 1,6,-1
EndSplineSet
EndChar
StartChar: onequarter
Encoding: 188 188 251
Width: 797
GlyphClass: 3
Flags: W
LayerCount: 2
Fore
SplineSet
585 668 m 1,0,-1
 657 668 l 1,1,-1
 189 0 l 1,2,-1
 117 0 l 1,3,-1
 585 668 l 1,0,-1
135 581 m 1,4,-1
 53 581 l 1,5,-1
 53 617 l 1,6,7
 86 617 86 617 110.5 629.5 c 128,-1,8
 135 642 135 642 144 668 c 1,9,-1
 196 668 l 1,10,-1
 196 297 l 1,11,-1
 135 297 l 1,12,-1
 135 581 l 1,4,-1
618 132 m 1,13,-1
 618 293 l 1,14,-1
 496 132 l 1,15,-1
 618 132 l 1,13,-1
618 84 m 1,16,-1
 432 84 l 1,17,-1
 432 132 l 1,18,-1
 619 371 l 1,19,-1
 677 371 l 1,20,-1
 677 132 l 1,21,-1
 744 132 l 1,22,-1
 744 84 l 1,23,-1
 677 84 l 1,24,-1
 677 0 l 1,25,-1
 618 0 l 1,26,-1
 618 84 l 1,16,-1
EndSplineSet
Ligature2: "'frac' Diagonal Fractions in Latin lookup 7 subtable" one slash four
EndChar
StartChar: onehalf
Encoding: 189 189 250
Width: 809
GlyphClass: 3
Flags: W
LayerCount: 2
Fore
SplineSet
585 668 m 1,0,-1
 657 668 l 1,1,-1
 189 0 l 1,2,-1
 117 0 l 1,3,-1
 585 668 l 1,0,-1
135 581 m 1,4,-1
 53 581 l 1,5,-1
 53 617 l 1,6,7
 86 617 86 617 110.5 629.5 c 128,-1,8
 135 642 135 642 144 668 c 1,9,-1
 196 668 l 1,10,-1
 196 297 l 1,11,-1
 135 297 l 1,12,-1
 135 581 l 1,4,-1
605.5 146 m 128,-1,14
 645 182 645 182 665 212 c 128,-1,15
 685 242 685 242 685 272 c 0,16,17
 685 300 685 300 668.5 317 c 128,-1,18
 652 334 652 334 624 334 c 0,19,20
 599 334 599 334 579.5 318.5 c 128,-1,21
 560 303 560 303 556 270 c 1,22,-1
 500 285 l 1,23,24
 510 327 510 327 543.5 352 c 128,-1,25
 577 377 577 377 627 377 c 0,26,27
 678 377 678 377 712 349 c 128,-1,28
 746 321 746 321 746 277 c 0,29,30
 746 223 746 223 699 168.5 c 128,-1,31
 652 114 652 114 558 50 c 1,32,-1
 756 50 l 1,33,-1
 756 0 l 1,34,-1
 488 0 l 1,35,-1
 488 47 l 1,36,13
 566 110 566 110 605.5 146 c 128,-1,14
EndSplineSet
Ligature2: "'frac' Diagonal Fractions in Latin lookup 7 subtable" one slash two
EndChar
StartChar: threequarters
Encoding: 190 190 252
Width: 842
GlyphClass: 3
Flags: W
LayerCount: 2
Fore
SplineSet
630 668 m 1,0,-1
 702 668 l 1,1,-1
 234 0 l 1,2,-1
 162 0 l 1,3,-1
 630 668 l 1,0,-1
98.5 319.5 m 128,-1,5
 65 344 65 344 53 384 c 1,6,-1
 107 399 l 1,7,8
 124 339 124 339 183 339 c 0,9,10
 217 339 217 339 240 356.5 c 128,-1,11
 263 374 263 374 263 405 c 0,12,13
 263 443 263 443 235 459.5 c 128,-1,14
 207 476 207 476 147 472 c 1,15,-1
 147 517 l 1,16,17
 154 516 154 516 168 516 c 0,18,19
 254 516 254 516 254 578 c 0,20,21
 254 605 254 605 234.5 619.5 c 128,-1,22
 215 634 215 634 187 634 c 0,23,24
 128 634 128 634 111 577 c 1,25,-1
 58 591 l 1,26,27
 69 631 69 631 104 654.5 c 128,-1,28
 139 678 139 678 190 678 c 0,29,30
 238 678 238 678 275.5 653 c 128,-1,31
 313 628 313 628 313 578 c 0,32,33
 313 553 313 553 298 531 c 128,-1,34
 283 509 283 509 258 496 c 1,35,36
 289 484 289 484 305.5 460 c 128,-1,37
 322 436 322 436 322 408 c 0,38,39
 322 352 322 352 282 323.5 c 128,-1,40
 242 295 242 295 183 295 c 0,41,4
 132 295 132 295 98.5 319.5 c 128,-1,5
663 84 m 1,42,-1
 477 84 l 1,43,-1
 477 132 l 1,44,-1
 664 371 l 1,45,-1
 722 371 l 1,46,-1
 722 132 l 1,47,-1
 789 132 l 1,48,-1
 789 84 l 1,49,-1
 722 84 l 1,50,-1
 722 0 l 1,51,-1
 663 0 l 1,52,-1
 663 84 l 1,42,-1
663 132 m 1,53,-1
 663 293 l 1,54,-1
 541 132 l 1,55,-1
 663 132 l 1,53,-1
EndSplineSet
Ligature2: "'frac' Diagonal Fractions in Latin lookup 7 subtable" three slash four
EndChar
StartChar: questiondown
Encoding: 191 191 266
Width: 424
GlyphClass: 1
Flags: W
LayerCount: 2
Fore
SplineSet
120 -165 m 128,-1,1
 75 -147 75 -147 46.5 -110 c 128,-1,2
 18 -73 18 -73 18 -19 c 0,3,4
 18 43 18 43 53 89.5 c 128,-1,5
 88 136 88 136 144 174 c 0,6,7
 175 195 175 195 189.5 210 c 128,-1,8
 204 225 204 225 209.5 241 c 128,-1,9
 215 257 215 257 215 284 c 2,10,-1
 215 323 l 1,11,-1
 284 323 l 1,12,-1
 284 284 l 2,13,14
 284 247 284 247 275 222 c 128,-1,15
 266 197 266 197 244 174 c 128,-1,16
 222 151 222 151 179 122 c 256,17,18
 136 93 136 93 112 60 c 128,-1,19
 88 27 88 27 88 -15 c 0,20,21
 88 -66 88 -66 124.5 -95.5 c 128,-1,22
 161 -125 161 -125 219 -125 c 0,23,24
 283 -125 283 -125 317 -89.5 c 128,-1,25
 351 -54 351 -54 357 -7 c 1,26,-1
 424 -23 l 1,27,28
 412 -95 412 -95 355 -139 c 128,-1,29
 298 -183 298 -183 216 -183 c 0,30,0
 165 -183 165 -183 120 -165 c 128,-1,1
210 415.5 m 128,-1,32
 194 432 194 432 194 455 c 256,33,34
 194 478 194 478 210 494 c 128,-1,35
 226 510 226 510 249 510 c 256,36,37
 272 510 272 510 288.5 494 c 128,-1,38
 305 478 305 478 305 455 c 256,39,40
 305 432 305 432 288.5 415.5 c 128,-1,41
 272 399 272 399 249 399 c 256,42,31
 226 399 226 399 210 415.5 c 128,-1,32
EndSplineSet
EndChar
StartChar: Aring
Encoding: 197 197 10
Width: 603
GlyphClass: 2
Flags: W
AnchorPoint: "Anchor-2" 593 10 basechar 0
AnchorPoint: "Anchor-1" 302 836 basechar 0
AnchorPoint: "Anchor-0" 302 0 basechar 0
LayerCount: 2
Fore
SplineSet
215 683 m 128,-1,1
 200 707 200 707 200 735 c 0,2,3
 200 777 200 777 230 806.5 c 128,-1,4
 260 836 260 836 302 836 c 256,5,6
 344 836 344 836 373.5 806.5 c 128,-1,7
 403 777 403 777 403 735 c 0,8,9
 403 707 403 707 389 683.5 c 128,-1,10
 375 660 375 660 351 646 c 1,11,-1
 593 0 l 1,12,-1
 516 0 l 1,13,-1
 459 158 l 1,14,-1
 144 158 l 1,15,-1
 87 0 l 1,16,-1
 10 0 l 1,17,-1
 254 646 l 1,18,0
 230 659 230 659 215 683 c 128,-1,1
437 221 m 1,19,-1
 302 594 l 1,20,-1
 167 221 l 1,21,-1
 437 221 l 1,19,-1
340 697.5 m 128,-1,23
 355 713 355 713 355 735 c 256,24,25
 355 757 355 757 339.5 772.5 c 128,-1,26
 324 788 324 788 302 788 c 256,27,28
 280 788 280 788 264 772.5 c 128,-1,29
 248 757 248 757 248 735 c 256,30,31
 248 713 248 713 263.5 697.5 c 128,-1,32
 279 682 279 682 302 682 c 256,33,22
 325 682 325 682 340 697.5 c 128,-1,23
EndSplineSet
EndChar
StartChar: AE
Encoding: 198 198 12
Width: 877
GlyphClass: 2
Flags: W
AnchorPoint: "Anchor-1" 442 668 basechar 0
AnchorPoint: "Anchor-0" 442 0 basechar 0
LayerCount: 2
Fore
SplineSet
376 668 m 1,0,-1
 836 668 l 1,1,-1
 836 604 l 1,2,-1
 491 604 l 1,3,-1
 491 376 l 1,4,-1
 757 376 l 1,5,-1
 757 312 l 1,6,-1
 491 312 l 1,7,-1
 491 64 l 1,8,-1
 838 64 l 1,9,-1
 838 0 l 1,10,-1
 417 0 l 1,11,-1
 417 158 l 1,12,-1
 167 158 l 1,13,-1
 79 0 l 1,14,-1
 0 0 l 1,15,-1
 376 668 l 1,0,-1
417 221 m 1,16,-1
 417 610 l 1,17,-1
 202 221 l 1,18,-1
 417 221 l 1,16,-1
EndSplineSet
EndChar
StartChar: Ccedilla
Encoding: 199 199 17
Width: 638
GlyphClass: 2
Flags: W
AnchorPoint: "Anchor-1" 346 668 basechar 0
LayerCount: 2
Fore
SplineSet
250 -158 m 1,1,-1
 264 -128 l 1,2,3
 297 -144 297 -144 324 -144 c 256,4,5
 351 -144 351 -144 363.5 -133 c 128,-1,6
 376 -122 376 -122 376 -108 c 0,7,8
 376 -78 376 -78 336 -78 c 0,9,10
 329 -78 329 -78 318 -80 c 128,-1,11
 307 -82 307 -82 298 -83 c 2,12,-1
 294 -83 l 2,13,14
 279 -83 279 -83 279 -69 c 0,15,16
 279 -61 279 -61 283 -56 c 2,17,-1
 311 -11 l 1,18,19
 229 -4 229 -4 169 42.5 c 128,-1,20
 109 89 109 89 77 165 c 128,-1,21
 45 241 45 241 45 336 c 0,22,23
 45 437 45 437 83 515 c 128,-1,24
 121 593 121 593 190 636.5 c 128,-1,25
 259 680 259 680 349 680 c 0,26,27
 431 680 431 680 496.5 641 c 128,-1,28
 562 602 562 602 594 530 c 1,29,-1
 530 506 l 1,30,31
 506 557 506 557 459.5 587 c 128,-1,32
 413 617 413 617 345 617 c 0,33,34
 282 617 282 617 231 584.5 c 128,-1,35
 180 552 180 552 150 488.5 c 128,-1,36
 120 425 120 425 120 336 c 256,37,38
 120 247 120 247 149.5 182.5 c 128,-1,39
 179 118 179 118 230 84.5 c 128,-1,40
 281 51 281 51 346 51 c 0,41,42
 476 51 476 51 533 162 c 1,43,-1
 598 138 l 1,44,45
 564 66 564 66 501 28 c 128,-1,46
 438 -10 438 -10 352 -12 c 1,47,-1
 330 -47 l 1,48,49
 347 -43 347 -43 361 -43 c 0,50,51
 392 -43 392 -43 409 -60 c 128,-1,52
 426 -77 426 -77 426 -101 c 0,53,54
 426 -130 426 -130 402 -155 c 128,-1,55
 378 -180 378 -180 332 -180 c 0,56,0
 297 -180 297 -180 250 -158 c 1,1,-1
EndSplineSet
EndChar
StartChar: multiply
Encoding: 215 215 322
Width: 524
GlyphClass: 1
Flags: W
LayerCount: 2
Fore
SplineSet
55 88 m 1,0,-1
 216 249 l 1,1,-1
 55 410 l 1,2,-1
 100 456 l 1,3,-1
 262 295 l 1,4,-1
 423 456 l 1,5,-1
 469 410 l 1,6,-1
 308 249 l 1,7,-1
 469 88 l 1,8,-1
 423 42 l 1,9,-1
 262 204 l 1,10,-1
 100 42 l 1,11,-1
 55 88 l 1,0,-1
EndSplineSet
EndChar
StartChar: Oslash
Encoding: 216 216 68
Width: 698
GlyphClass: 2
Flags: W
AnchorPoint: "Anchor-3" 688 668 basechar 0
AnchorPoint: "Anchor-1" 350 668 basechar 0
AnchorPoint: "Anchor-0" 350 0 basechar 0
LayerCount: 2
Fore
SplineSet
238 7.5 m 128,-1,1
 187 27 187 27 148 64 c 1,2,-1
 90 -4 l 1,3,-1
 57 24 l 1,4,-1
 118 96 l 1,5,6
 82 142 82 142 63.5 202.5 c 128,-1,7
 45 263 45 263 45 334 c 0,8,9
 45 434 45 434 82 512.5 c 128,-1,10
 119 591 119 591 188 635.5 c 128,-1,11
 257 680 257 680 349 680 c 0,12,13
 410 680 410 680 461 660.5 c 128,-1,14
 512 641 512 641 551 604 c 1,15,-1
 608 671 l 1,16,-1
 642 644 l 1,17,-1
 580 571 l 1,18,19
 615 525 615 525 634 464.5 c 128,-1,20
 653 404 653 404 653 334 c 0,21,22
 653 234 653 234 616 155.5 c 128,-1,23
 579 77 579 77 510 32.5 c 128,-1,24
 441 -12 441 -12 349 -12 c 0,25,0
 289 -12 289 -12 238 7.5 c 128,-1,1
466 84 m 128,-1,27
 518 117 518 117 548 181 c 128,-1,28
 578 245 578 245 578 334 c 0,29,30
 578 442 578 442 532 515 c 1,31,-1
 193 116 l 1,32,33
 255 51 255 51 349 51 c 0,34,26
 414 51 414 51 466 84 c 128,-1,27
166 152 m 1,36,-1
 505 551 l 1,37,38
 475 584 475 584 435 600.5 c 128,-1,39
 395 617 395 617 349 617 c 0,40,41
 284 617 284 617 232 584 c 128,-1,42
 180 551 180 551 150 487 c 128,-1,43
 120 423 120 423 120 334 c 0,44,35
 120 225 120 225 166 152 c 1,36,-1
EndSplineSet
EndChar
StartChar: Thorn
Encoding: 222 222 72
Width: 575
GlyphClass: 2
Flags: W
AnchorPoint: "Anchor-1" 275 668 basechar 0
AnchorPoint: "Anchor-0" 275 0 basechar 0
LayerCount: 2
Fore
SplineSet
80 668 m 1,0,-1
 154 668 l 1,1,-1
 154 536 l 1,2,-1
 307 536 l 2,3,4
 418 536 418 536 481.5 487 c 128,-1,5
 545 438 545 438 545 340 c 256,6,7
 545 242 545 242 481.5 193 c 128,-1,8
 418 144 418 144 307 144 c 2,9,-1
 154 144 l 1,10,-1
 154 0 l 1,11,-1
 80 0 l 1,12,-1
 80 668 l 1,0,-1
426.5 238 m 128,-1,14
 470 269 470 269 470 340 c 256,15,16
 470 411 470 411 426.5 441.5 c 128,-1,17
 383 472 383 472 302 472 c 2,18,-1
 154 472 l 1,19,-1
 154 207 l 1,20,-1
 302 207 l 2,21,13
 383 207 383 207 426.5 238 c 128,-1,14
EndSplineSet
EndChar
StartChar: germandbls
Encoding: 223 223 193
Width: 568
GlyphClass: 1
Flags: W
LayerCount: 2
Fore
SplineSet
284 48 m 0,1,2
 364 48 364 48 413 87 c 128,-1,3
 462 126 462 126 462 206 c 0,4,5
 462 257 462 257 434 296 c 128,-1,6
 406 335 406 335 357.5 356.5 c 128,-1,7
 309 378 309 378 250 378 c 2,8,-1
 238 378 l 1,9,-1
 238 437 l 1,10,11
 308 437 308 437 344.5 465.5 c 128,-1,12
 381 494 381 494 381 535 c 0,13,14
 381 573 381 573 351.5 597.5 c 128,-1,15
 322 622 322 622 274 622 c 0,16,17
 217 622 217 622 182.5 585.5 c 128,-1,18
 148 549 148 549 148 473 c 2,19,-1
 148 0 l 1,20,-1
 80 0 l 1,21,-1
 80 476 l 2,22,23
 80 570 80 570 128 624.5 c 128,-1,24
 176 679 176 679 275 680 c 0,25,26
 325 680 325 680 364.5 661 c 128,-1,27
 404 642 404 642 426.5 609 c 128,-1,28
 449 576 449 576 449 537 c 0,29,30
 449 446 449 446 352 412 c 1,31,32
 433 397 433 397 483 342 c 128,-1,33
 533 287 533 287 533 205 c 0,34,35
 533 131 533 131 499.5 82 c 128,-1,36
 466 33 466 33 410.5 10 c 128,-1,37
 355 -13 355 -13 289 -13 c 0,38,39
 276 -13 276 -13 269 -12 c 1,40,-1
 251 50 l 1,41,0
 262 48 262 48 284 48 c 0,1,2
EndSplineSet
EndChar
StartChar: ae
Encoding: 230 230 122
Width: 859
GlyphClass: 2
Flags: W
AnchorPoint: "Anchor-1" 431 496 basechar 0
AnchorPoint: "Anchor-0" 431 0 basechar 0
LayerCount: 2
Fore
SplineSet
82.5 24.5 m 128,-1,1
 33 61 33 61 33 126 c 0,2,3
 33 210 33 210 118 249 c 128,-1,4
 203 288 203 288 373 290 c 1,5,-1
 373 318 l 2,6,7
 373 380 373 380 342 414.5 c 128,-1,8
 311 449 311 449 250 449 c 0,9,10
 203 449 203 449 172 426.5 c 128,-1,11
 141 404 141 404 132 366 c 1,12,-1
 64 385 l 1,13,14
 84 442 84 442 133.5 473.5 c 128,-1,15
 183 505 183 505 249 505 c 0,16,17
 380 505 380 505 419 408 c 1,18,19
 449 454 449 454 496.5 479.5 c 128,-1,20
 544 505 544 505 600 505 c 0,21,22
 673 505 673 505 725 466.5 c 128,-1,23
 777 428 777 428 802.5 366 c 128,-1,24
 828 304 828 304 823 235 c 1,25,-1
 439 235 l 1,26,27
 441 166 441 166 467 124.5 c 128,-1,28
 493 83 493 83 530 65.5 c 128,-1,29
 567 48 567 48 605 48 c 0,30,31
 686 48 686 48 727 105 c 1,32,-1
 793 84 l 1,33,34
 765 41 765 41 717 14.5 c 128,-1,35
 669 -12 669 -12 602 -12 c 0,36,37
 536 -12 536 -12 486.5 18.5 c 128,-1,38
 437 49 437 49 408 103 c 1,39,40
 382 44 382 44 330 16 c 128,-1,41
 278 -12 278 -12 209 -12 c 0,42,0
 132 -12 132 -12 82.5 24.5 c 128,-1,1
329 82 m 128,-1,44
 373 120 373 120 373 203 c 2,45,-1
 373 235 l 1,46,47
 238 234 238 234 171.5 209 c 128,-1,48
 105 184 105 184 105 129 c 0,49,50
 105 90 105 90 134.5 67 c 128,-1,51
 164 44 164 44 217 44 c 0,52,43
 285 44 285 44 329 82 c 128,-1,44
732 364 m 128,-1,54
 714 400 714 400 680 423 c 128,-1,55
 646 446 646 446 600 446 c 0,56,57
 538 446 538 446 494.5 408 c 128,-1,58
 451 370 451 370 441 290 c 1,59,-1
 751 290 l 1,60,53
 750 328 750 328 732 364 c 128,-1,54
EndSplineSet
EndChar
StartChar: ccedilla
Encoding: 231 231 127
Width: 477
GlyphClass: 2
Flags: W
AnchorPoint: "Anchor-1" 266 496 basechar 0
LayerCount: 2
Fore
SplineSet
171 -158 m 1,1,-1
 185 -128 l 1,2,3
 220 -144 220 -144 246 -144 c 256,4,5
 272 -144 272 -144 284.5 -133 c 128,-1,6
 297 -122 297 -122 297 -108 c 0,7,8
 297 -78 297 -78 258 -78 c 0,9,10
 251 -78 251 -78 240 -80 c 128,-1,11
 229 -82 229 -82 220 -83 c 2,12,-1
 216 -83 l 2,13,14
 200 -83 200 -83 200 -69 c 0,15,16
 200 -61 200 -61 204 -56 c 2,17,-1
 232 -10 l 1,18,19
 174 -3 174 -3 130 31.5 c 128,-1,20
 86 66 86 66 62 121 c 128,-1,21
 38 176 38 176 38 244 c 0,22,23
 38 317 38 317 66 376.5 c 128,-1,24
 94 436 94 436 146.5 470.5 c 128,-1,25
 199 505 199 505 270 505 c 0,26,27
 334 505 334 505 380.5 473 c 128,-1,28
 427 441 427 441 451 395 c 1,29,-1
 389 372 l 1,30,31
 372 406 372 406 339 425.5 c 128,-1,32
 306 445 306 445 265 445 c 0,33,34
 223 445 223 445 187.5 423 c 128,-1,35
 152 401 152 401 131 356 c 128,-1,36
 110 311 110 311 110 246 c 0,37,38
 110 182 110 182 131 137 c 128,-1,39
 152 92 152 92 187.5 70 c 128,-1,40
 223 48 223 48 264 48 c 0,41,42
 306 48 306 48 339.5 67.5 c 128,-1,43
 373 87 373 87 391 120 c 1,44,-1
 454 96 l 1,45,46
 429 52 429 52 382 21.5 c 128,-1,47
 335 -9 335 -9 274 -12 c 1,48,-1
 252 -47 l 1,49,50
 268 -43 268 -43 283 -43 c 0,51,52
 314 -43 314 -43 331 -60 c 128,-1,53
 348 -77 348 -77 348 -101 c 0,54,55
 348 -130 348 -130 323.5 -155 c 128,-1,56
 299 -180 299 -180 254 -180 c 0,57,0
 220 -180 220 -180 171 -158 c 1,1,-1
EndSplineSet
EndChar
StartChar: eth
Encoding: 240 240 132
Width: 554
GlyphClass: 2
Flags: W
AnchorPoint: "Anchor-1" 275 796 basechar 0
AnchorPoint: "Anchor-0" 275 0 basechar 0
LayerCount: 2
Fore
SplineSet
144.5 19.5 m 128,-1,1
 93 51 93 51 65.5 103 c 128,-1,2
 38 155 38 155 38 215 c 0,3,4
 38 281 38 281 66 333 c 128,-1,5
 94 385 94 385 143 414 c 128,-1,6
 192 443 192 443 254 443 c 0,7,8
 319 443 319 443 365 413.5 c 128,-1,9
 411 384 411 384 433 338 c 1,10,11
 430 437 430 437 410.5 496.5 c 128,-1,12
 391 556 391 556 356 591 c 1,13,-1
 279 515 l 1,14,-1
 248 546 l 1,15,-1
 319 618 l 1,16,17
 265 648 265 648 172 648 c 1,18,-1
 172 708 l 1,19,20
 290 708 290 708 365 664 c 1,21,-1
 408 707 l 1,22,-1
 440 676 l 1,23,-1
 401 637 l 1,24,25
 500 539 500 539 500 313 c 0,26,27
 500 169 500 169 445.5 78.5 c 128,-1,28
 391 -12 391 -12 264 -12 c 0,29,0
 196 -12 196 -12 144.5 19.5 c 128,-1,1
376.5 93.5 m 128,-1,31
 420 140 420 140 420 213 c 0,32,33
 420 289 420 289 377 336 c 128,-1,34
 334 383 334 383 263 383 c 0,35,36
 194 383 194 383 151.5 336 c 128,-1,37
 109 289 109 289 109 213 c 0,38,39
 109 139 109 139 151.5 93 c 128,-1,40
 194 47 194 47 264 47 c 0,41,30
 333 47 333 47 376.5 93.5 c 128,-1,31
EndSplineSet
EndChar
StartChar: divide
Encoding: 247 247 323
Width: 606
GlyphClass: 1
Flags: W
LayerCount: 2
Fore
SplineSet
55 280 m 1,0,-1
 551 280 l 1,1,-1
 551 216 l 1,2,-1
 55 216 l 1,3,-1
 55 280 l 1,0,-1
260 39 m 128,-1,5
 242 57 242 57 242 82 c 256,6,7
 242 107 242 107 260 124.5 c 128,-1,8
 278 142 278 142 303 142 c 256,9,10
 328 142 328 142 345.5 124.5 c 128,-1,11
 363 107 363 107 363 82 c 0,12,13
 363 56 363 56 345.5 38.5 c 128,-1,14
 328 21 328 21 303 21 c 256,15,4
 278 21 278 21 260 39 c 128,-1,5
259.5 372 m 128,-1,17
 242 389 242 389 242 414 c 0,18,19
 242 440 242 440 260 457.5 c 128,-1,20
 278 475 278 475 303 475 c 256,21,22
 328 475 328 475 345.5 457.5 c 128,-1,23
 363 440 363 440 363 414 c 0,24,25
 363 389 363 389 346 372 c 128,-1,26
 329 355 329 355 303 355 c 256,27,16
 277 355 277 355 259.5 372 c 128,-1,17
EndSplineSet
EndChar
StartChar: oslash
Encoding: 248 248 179
Width: 537
GlyphClass: 2
Flags: W
AnchorPoint: "Anchor-3" 522 496 basechar 0
AnchorPoint: "Anchor-1" 269 496 basechar 0
AnchorPoint: "Anchor-0" 269 0 basechar 0
LayerCount: 2
Fore
SplineSet
191.5 1.5 m 128,-1,1
 153 15 153 15 122 41 c 1,2,-1
 82 -5 l 1,3,-1
 49 24 l 1,4,-1
 91 73 l 1,5,6
 38 143 38 143 38 247 c 0,7,8
 38 332 38 332 71.5 390.5 c 128,-1,9
 105 449 105 449 158 477 c 128,-1,10
 211 505 211 505 269 505 c 0,11,12
 308 505 308 505 345.5 491.5 c 128,-1,13
 383 478 383 478 414 452 c 1,14,-1
 455 501 l 1,15,-1
 488 472 l 1,16,-1
 445 421 l 1,17,18
 499 354 499 354 499 247 c 0,19,20
 499 161 499 161 465.5 102.5 c 128,-1,21
 432 44 432 44 379 16 c 128,-1,22
 326 -12 326 -12 269 -12 c 0,23,0
 230 -12 230 -12 191.5 1.5 c 128,-1,1
347.5 70 m 128,-1,25
 384 92 384 92 406 137 c 128,-1,26
 428 182 428 182 428 247 c 0,27,28
 428 319 428 319 400 368 c 1,29,-1
 164 91 l 1,30,31
 207 48 207 48 269 48 c 0,32,24
 311 48 311 48 347.5 70 c 128,-1,25
137 127 m 1,34,-1
 372 403 l 1,35,36
 330 445 330 445 269 445 c 0,37,38
 227 445 227 445 190.5 423.5 c 128,-1,39
 154 402 154 402 132 357 c 128,-1,40
 110 312 110 312 110 247 c 0,41,33
 110 175 110 175 137 127 c 1,34,-1
EndSplineSet
EndChar
StartChar: thorn
Encoding: 254 254 183
Width: 555
GlyphClass: 2
Flags: W
AnchorPoint: "Anchor-1" 278 496 basechar 0
AnchorPoint: "Anchor-0" 278 0 basechar 0
LayerCount: 2
Fore
SplineSet
74 708 m 1,0,-1
 142 708 l 1,1,-1
 142 414 l 1,2,3
 195 505 195 505 305 505 c 0,4,5
 362 505 362 505 410.5 475.5 c 128,-1,6
 459 446 459 446 488 388 c 128,-1,7
 517 330 517 330 517 249 c 0,8,9
 517 167 517 167 488.5 108 c 128,-1,10
 460 49 460 49 412 18.5 c 128,-1,11
 364 -12 364 -12 305 -12 c 0,12,13
 247 -12 247 -12 204.5 13 c 128,-1,14
 162 38 162 38 142 80 c 1,15,-1
 142 -162 l 1,16,-1
 74 -162 l 1,17,-1
 74 708 l 1,0,-1
404 100 m 128,-1,19
 444 153 444 153 444 248 c 0,20,21
 444 342 444 342 403 394 c 128,-1,22
 362 446 362 446 291 446 c 0,23,24
 222 446 222 446 181.5 392.5 c 128,-1,25
 141 339 141 339 141 248 c 0,26,27
 141 156 141 156 182.5 101.5 c 128,-1,28
 224 47 224 47 293 47 c 0,29,18
 364 47 364 47 404 100 c 128,-1,19
EndSplineSet
EndChar
StartChar: Aogonek
Encoding: 260 260 9
Width: 603
GlyphClass: 2
Flags: W
AnchorPoint: "Anchor-1" 302 668 basechar 0
AnchorPoint: "Anchor-0" 302 0 basechar 0
LayerCount: 2
Fore
SplineSet
476 -149.5 m 128,-1,1
 451 -129 451 -129 451 -93 c 0,2,3
 451 -32 451 -32 514 4 c 1,4,-1
 459 158 l 1,5,-1
 144 158 l 1,6,-1
 87 0 l 1,7,-1
 10 0 l 1,8,-1
 262 668 l 1,9,-1
 343 668 l 1,10,-1
 593 0 l 1,11,12
 552 -14 552 -14 529.5 -34 c 128,-1,13
 507 -54 507 -54 507 -79 c 0,14,15
 507 -100 507 -100 521 -110.5 c 128,-1,16
 535 -121 535 -121 558 -121 c 0,17,18
 579 -121 579 -121 593 -114 c 1,19,-1
 593 -160 l 1,20,21
 569 -170 569 -170 540 -170 c 0,22,0
 501 -170 501 -170 476 -149.5 c 128,-1,1
437 221 m 1,23,-1
 302 594 l 1,24,-1
 167 221 l 1,25,-1
 437 221 l 1,23,-1
EndSplineSet
EndChar
StartChar: aogonek
Encoding: 261 261 119
Width: 514
GlyphClass: 2
Flags: W
AnchorPoint: "Anchor-1" 252 496 basechar 0
AnchorPoint: "Anchor-0" 252 0 basechar 0
LayerCount: 2
Fore
SplineSet
336.5 -148 m 128,-1,1
 312 -126 312 -126 312 -93 c 0,2,3
 312 -59 312 -59 332 -34.5 c 128,-1,4
 352 -10 352 -10 393 10 c 1,5,-1
 376 75 l 1,6,7
 356 36 356 36 313 12 c 128,-1,8
 270 -12 270 -12 204 -12 c 0,9,10
 129 -12 129 -12 81 24.5 c 128,-1,11
 33 61 33 61 33 125 c 0,12,13
 33 209 33 209 115.5 251 c 128,-1,14
 198 293 198 293 371 307 c 1,15,-1
 371 318 l 2,16,17
 371 380 371 380 341.5 414.5 c 128,-1,18
 312 449 312 449 252 449 c 0,19,20
 204 449 204 449 172.5 426.5 c 128,-1,21
 141 404 141 404 132 366 c 1,22,-1
 64 385 l 1,23,24
 84 442 84 442 134 473.5 c 128,-1,25
 184 505 184 505 250 505 c 0,26,27
 346 505 346 505 391.5 456 c 128,-1,28
 437 407 437 407 437 309 c 2,29,-1
 437 191 l 2,30,31
 437 90 437 90 455 0 c 1,32,33
 412 -14 412 -14 390.5 -35 c 128,-1,34
 369 -56 369 -56 369 -79 c 0,35,36
 369 -100 369 -100 383 -110.5 c 128,-1,37
 397 -121 397 -121 420 -121 c 0,38,39
 438 -121 438 -121 455 -114 c 1,40,-1
 455 -160 l 1,41,42
 429 -170 429 -170 400 -170 c 0,43,0
 361 -170 361 -170 336.5 -148 c 128,-1,1
327.5 81.5 m 128,-1,45
 371 119 371 119 371 199 c 2,46,-1
 371 253 l 1,47,48
 235 242 235 242 170 212.5 c 128,-1,49
 105 183 105 183 105 128 c 0,50,51
 105 90 105 90 134.5 67 c 128,-1,52
 164 44 164 44 215 44 c 0,53,44
 284 44 284 44 327.5 81.5 c 128,-1,45
EndSplineSet
EndChar
StartChar: Dcroat
Encoding: 272 272 21
Width: 675
GlyphClass: 1
Flags: W
LayerCount: 2
Fore
SplineSet
100 319 m 1,0,-1
 27 319 l 1,1,-1
 27 381 l 1,2,-1
 100 381 l 1,3,-1
 100 668 l 1,4,-1
 273 668 l 2,5,6
 441 668 441 668 535.5 590.5 c 128,-1,7
 630 513 630 513 630 336 c 0,8,9
 630 0 630 0 273 0 c 2,10,-1
 100 0 l 1,11,-1
 100 319 l 1,0,-1
417.5 85.5 m 128,-1,13
 480 108 480 108 517 168 c 128,-1,14
 554 228 554 228 554 336 c 0,15,16
 554 443 554 443 517 502 c 128,-1,17
 480 561 480 561 417.5 583 c 128,-1,18
 355 605 355 605 267 605 c 2,19,-1
 174 605 l 1,20,-1
 174 381 l 1,21,-1
 370 381 l 1,22,-1
 370 319 l 1,23,-1
 174 319 l 1,24,-1
 174 63 l 1,25,-1
 267 63 l 2,26,12
 355 63 355 63 417.5 85.5 c 128,-1,13
EndSplineSet
EndChar
StartChar: dcroat
Encoding: 273 273 131
Width: 556
GlyphClass: 1
Flags: W
LayerCount: 2
Fore
SplineSet
144.5 18 m 128,-1,1
 96 48 96 48 67 106 c 128,-1,2
 38 164 38 164 38 244 c 256,3,4
 38 324 38 324 66 383 c 128,-1,5
 94 442 94 442 142 473.5 c 128,-1,6
 190 505 190 505 249 505 c 0,7,8
 362 505 362 505 413 413 c 1,9,-1
 413 555 l 1,10,-1
 254 555 l 1,11,-1
 254 608 l 1,12,-1
 413 608 l 1,13,-1
 413 708 l 1,14,-1
 481 708 l 1,15,-1
 481 608 l 1,16,-1
 561 608 l 1,17,-1
 561 555 l 1,18,-1
 481 555 l 1,19,-1
 481 185 l 2,20,21
 481 91 481 91 498 0 c 1,22,-1
 435 0 l 1,23,-1
 412 78 l 1,24,25
 391 37 391 37 350 12.5 c 128,-1,26
 309 -12 309 -12 249 -12 c 0,27,0
 193 -12 193 -12 144.5 18 c 128,-1,1
373.5 100.5 m 128,-1,29
 414 154 414 154 414 245 c 0,30,31
 414 338 414 338 373.5 392 c 128,-1,32
 333 446 333 446 264 446 c 0,33,34
 193 446 193 446 152 392.5 c 128,-1,35
 111 339 111 339 111 244 c 0,36,37
 111 151 111 151 152 99 c 128,-1,38
 193 47 193 47 264 47 c 0,39,28
 333 47 333 47 373.5 100.5 c 128,-1,29
EndSplineSet
EndChar
StartChar: Eogonek
Encoding: 280 280 31
Width: 555
GlyphClass: 2
Flags: W
AnchorPoint: "Anchor-1" 282 668 basechar 0
AnchorPoint: "Anchor-0" 278 0 basechar 0
LayerCount: 2
Fore
SplineSet
80 668 m 1,0,-1
 512 668 l 1,1,-1
 512 604 l 1,2,-1
 154 604 l 1,3,-1
 154 376 l 1,4,-1
 434 376 l 1,5,-1
 434 312 l 1,6,-1
 154 312 l 1,7,-1
 154 64 l 1,8,-1
 516 64 l 1,9,-1
 516 0 l 1,10,11
 430 -28 430 -28 430 -79 c 0,12,13
 430 -100 430 -100 444 -110.5 c 128,-1,14
 458 -121 458 -121 481 -121 c 0,15,16
 501 -121 501 -121 516 -114 c 1,17,-1
 516 -160 l 1,18,19
 491 -170 491 -170 462 -170 c 0,20,21
 424 -170 424 -170 398.5 -149.5 c 128,-1,22
 373 -129 373 -129 373 -93 c 0,23,24
 373 -36 373 -36 430 0 c 1,25,-1
 80 0 l 1,26,-1
 80 668 l 1,0,-1
EndSplineSet
EndChar
StartChar: eogonek
Encoding: 281 281 141
Width: 530
GlyphClass: 2
Flags: W
AnchorPoint: "Anchor-1" 276 496 basechar 0
AnchorPoint: "Anchor-0" 263 0 basechar 0
LayerCount: 2
Fore
SplineSet
304 -148.5 m 128,-1,1
 280 -127 280 -127 280 -93 c 0,2,3
 280 -47 280 -47 313 -9 c 1,4,5
 292 -12 292 -12 273 -12 c 0,6,7
 203 -12 203 -12 150 20 c 128,-1,8
 97 52 97 52 67.5 110.5 c 128,-1,9
 38 169 38 169 38 246 c 256,10,11
 38 323 38 323 68.5 382 c 128,-1,12
 99 441 99 441 152 473 c 128,-1,13
 205 505 205 505 271 505 c 0,14,15
 344 505 344 505 396 466.5 c 128,-1,16
 448 428 448 428 473.5 366 c 128,-1,17
 499 304 499 304 494 235 c 1,18,-1
 109 235 l 1,19,20
 111 167 111 167 138 125 c 128,-1,21
 165 83 165 83 202 65.5 c 128,-1,22
 239 48 239 48 276 48 c 0,23,24
 318 48 318 48 348.5 63.5 c 128,-1,25
 379 79 379 79 398 105 c 1,26,-1
 464 84 l 1,27,28
 440 45 440 45 394 17 c 0,29,30
 366 -1 366 -1 351 -24.5 c 128,-1,31
 336 -48 336 -48 336 -75 c 0,32,33
 336 -97 336 -97 350 -109 c 128,-1,34
 364 -121 364 -121 387 -121 c 0,35,36
 408 -121 408 -121 422 -114 c 1,37,-1
 422 -160 l 1,38,39
 396 -170 396 -170 367 -170 c 0,40,0
 328 -170 328 -170 304 -148.5 c 128,-1,1
403 364 m 128,-1,42
 385 400 385 400 351 423 c 128,-1,43
 317 446 317 446 271 446 c 0,44,45
 210 446 210 446 165 408.5 c 128,-1,46
 120 371 120 371 110 290 c 1,47,-1
 422 290 l 1,48,41
 421 328 421 328 403 364 c 128,-1,42
EndSplineSet
EndChar
StartChar: Hbar
Encoding: 294 294 38
Width: 679
GlyphClass: 1
Flags: W
LayerCount: 2
Fore
SplineSet
80 512 m 1,0,-1
 14 512 l 1,1,-1
 14 572 l 1,2,-1
 80 572 l 1,3,-1
 80 668 l 1,4,-1
 154 668 l 1,5,-1
 154 572 l 1,6,-1
 525 572 l 1,7,-1
 525 668 l 1,8,-1
 599 668 l 1,9,-1
 599 572 l 1,10,-1
 665 572 l 1,11,-1
 665 512 l 1,12,-1
 599 512 l 1,13,-1
 599 0 l 1,14,-1
 525 0 l 1,15,-1
 525 313 l 1,16,-1
 154 313 l 1,17,-1
 154 0 l 1,18,-1
 80 0 l 1,19,-1
 80 512 l 1,0,-1
525 376 m 1,20,-1
 525 512 l 1,21,-1
 154 512 l 1,22,-1
 154 376 l 1,23,-1
 525 376 l 1,20,-1
EndSplineSet
EndChar
StartChar: hbar
Encoding: 295 295 148
Width: 543
GlyphClass: 1
Flags: W
LayerCount: 2
Fore
SplineSet
74 555 m 1,0,-1
 -6 555 l 1,1,-1
 -6 608 l 1,2,-1
 74 608 l 1,3,-1
 74 708 l 1,4,-1
 142 708 l 1,5,-1
 142 608 l 1,6,-1
 301 608 l 1,7,-1
 301 555 l 1,8,-1
 142 555 l 1,9,-1
 142 420 l 1,10,11
 165 457 165 457 204.5 481 c 128,-1,12
 244 505 244 505 303 505 c 0,13,14
 389 505 389 505 429.5 455.5 c 128,-1,15
 470 406 470 406 470 321 c 2,16,-1
 470 0 l 1,17,-1
 402 0 l 1,18,-1
 402 300 l 2,19,20
 402 368 402 368 376.5 406.5 c 128,-1,21
 351 445 351 445 286 445 c 0,22,23
 220 445 220 445 181 399.5 c 128,-1,24
 142 354 142 354 142 273 c 2,25,-1
 142 0 l 1,26,-1
 74 0 l 1,27,-1
 74 555 l 1,0,-1
EndSplineSet
EndChar
StartChar: Iogonek
Encoding: 302 302 47
Width: 374
GlyphClass: 2
Flags: W
AnchorPoint: "Anchor-1" 187 668 basechar 0
AnchorPoint: "Anchor-0" 187 0 basechar 0
LayerCount: 2
Fore
SplineSet
56 55 m 1,0,-1
 150 55 l 1,1,-1
 150 613 l 1,2,-1
 56 613 l 1,3,-1
 56 668 l 1,4,-1
 318 668 l 1,5,-1
 318 613 l 1,6,-1
 224 613 l 1,7,-1
 224 55 l 1,8,-1
 318 55 l 1,9,-1
 318 0 l 1,10,11
 277 -14 277 -14 254.5 -34 c 128,-1,12
 232 -54 232 -54 232 -79 c 0,13,14
 232 -100 232 -100 246 -110.5 c 128,-1,15
 260 -121 260 -121 283 -121 c 0,16,17
 303 -121 303 -121 318 -114 c 1,18,-1
 318 -160 l 1,19,20
 293 -170 293 -170 265 -170 c 0,21,22
 226 -170 226 -170 200.5 -149.5 c 128,-1,23
 175 -129 175 -129 175 -93 c 0,24,25
 175 -35 175 -35 233 0 c 1,26,-1
 56 0 l 1,27,-1
 56 55 l 1,0,-1
EndSplineSet
EndChar
StartChar: iogonek
Encoding: 303 303 156
Width: 236
GlyphClass: 2
Flags: W
AnchorPoint: "Anchor-1" 116 703 basechar 0
AnchorPoint: "Anchor-0" 114 0 basechar 0
LayerCount: 2
Fore
SplineSet
78 611.5 m 128,-1,1
 62 627 62 627 62 649 c 256,2,3
 62 671 62 671 78 687 c 128,-1,4
 94 703 94 703 116 703 c 256,5,6
 138 703 138 703 153.5 687 c 128,-1,7
 169 671 169 671 169 649 c 256,8,9
 169 627 169 627 153.5 611.5 c 128,-1,10
 138 596 138 596 116 596 c 256,11,0
 94 596 94 596 78 611.5 c 128,-1,1
41 -148.5 m 128,-1,13
 17 -127 17 -127 17 -93 c 0,14,15
 17 -61 17 -61 35.5 -36.5 c 128,-1,16
 54 -12 54 -12 91 7 c 1,17,-1
 91 441 l 1,18,-1
 27 441 l 1,19,-1
 27 496 l 1,20,-1
 159 496 l 1,21,-1
 159 0 l 1,22,23
 116 -14 116 -14 95 -34.5 c 128,-1,24
 74 -55 74 -55 74 -79 c 0,25,26
 74 -100 74 -100 87.5 -110.5 c 128,-1,27
 101 -121 101 -121 124 -121 c 0,28,29
 142 -121 142 -121 159 -114 c 1,30,-1
 159 -160 l 1,31,32
 133 -170 133 -170 104 -170 c 0,33,12
 65 -170 65 -170 41 -148.5 c 128,-1,13
EndSplineSet
EndChar
StartChar: dotlessi
Encoding: 305 305 150
Width: 236
GlyphClass: 2
Flags: W
AnchorPoint: "Anchor-2" 159 10 basechar 0
AnchorPoint: "Anchor-1" 116 496 basechar 0
AnchorPoint: "Anchor-0" 114 0 basechar 0
LayerCount: 2
Fore
SplineSet
91 441 m 1,0,-1
 27 441 l 1,1,-1
 27 496 l 1,2,-1
 159 496 l 1,3,-1
 159 0 l 1,4,-1
 91 0 l 1,5,-1
 91 441 l 1,0,-1
EndSplineSet
EndChar
StartChar: Lslash
Encoding: 321 321 55
Width: 561
GlyphClass: 1
Flags: W
LayerCount: 2
Fore
SplineSet
110 254 m 1,0,-1
 2 191 l 1,1,-1
 2 257 l 1,2,-1
 110 321 l 1,3,-1
 110 668 l 1,4,-1
 184 668 l 1,5,-1
 184 364 l 1,6,-1
 378 478 l 1,7,-1
 378 411 l 1,8,-1
 184 297 l 1,9,-1
 184 64 l 1,10,-1
 554 64 l 1,11,-1
 554 0 l 1,12,-1
 110 0 l 1,13,-1
 110 254 l 1,0,-1
EndSplineSet
EndChar
StartChar: lslash
Encoding: 322 322 166
Width: 284
GlyphClass: 1
Flags: W
LayerCount: 2
Fore
SplineSet
132 9.5 m 128,-1,1
 109 19 109 19 99.5 41.5 c 128,-1,2
 90 64 90 64 90 106 c 2,3,-1
 90 272 l 1,4,-1
 28 233 l 1,5,-1
 28 291 l 1,6,-1
 90 331 l 1,7,-1
 90 708 l 1,8,-1
 158 708 l 1,9,-1
 158 374 l 1,10,-1
 243 427 l 1,11,-1
 243 368 l 1,12,-1
 158 315 l 1,13,-1
 158 111 l 2,14,15
 158 81 158 81 168.5 70 c 128,-1,16
 179 59 179 59 211 59 c 2,17,-1
 246 59 l 1,18,-1
 246 0 l 1,19,-1
 199 0 l 2,20,0
 155 0 155 0 132 9.5 c 128,-1,1
EndSplineSet
EndChar
StartChar: OE
Encoding: 338 338 70
Width: 995
GlyphClass: 2
Flags: W
AnchorPoint: "Anchor-1" 505 668 basechar 0
AnchorPoint: "Anchor-0" 505 0 basechar 0
LayerCount: 2
Fore
SplineSet
182 32.5 m 128,-1,1
 116 77 116 77 80.5 156 c 128,-1,2
 45 235 45 235 45 336 c 0,3,4
 45 435 45 435 80.5 513 c 128,-1,5
 116 591 116 591 182 635.5 c 128,-1,6
 248 680 248 680 337 680 c 0,7,8
 407 680 407 680 461 650 c 128,-1,9
 515 620 515 620 550 564 c 1,10,-1
 550 668 l 1,11,-1
 952 668 l 1,12,-1
 952 603 l 1,13,-1
 622 603 l 1,14,-1
 622 376 l 1,15,-1
 875 376 l 1,16,-1
 875 311 l 1,17,-1
 622 311 l 1,18,-1
 622 65 l 1,19,-1
 956 65 l 1,20,-1
 956 0 l 1,21,-1
 550 0 l 1,22,-1
 550 105 l 1,23,24
 515 49 515 49 461 18.5 c 128,-1,25
 407 -12 407 -12 337 -12 c 0,26,0
 248 -12 248 -12 182 32.5 c 128,-1,1
445.5 85.5 m 128,-1,28
 494 118 494 118 522 182 c 128,-1,29
 550 246 550 246 550 336 c 0,30,31
 550 425 550 425 522 488 c 128,-1,32
 494 551 494 551 445.5 583 c 128,-1,33
 397 615 397 615 335 615 c 0,34,35
 274 615 274 615 225.5 583 c 128,-1,36
 177 551 177 551 149 488 c 128,-1,37
 121 425 121 425 121 336 c 0,38,39
 121 246 121 246 149 182 c 128,-1,40
 177 118 177 118 225.5 85.5 c 128,-1,41
 274 53 274 53 335 53 c 0,42,27
 397 53 397 53 445.5 85.5 c 128,-1,28
EndSplineSet
EndChar
StartChar: oe
Encoding: 339 339 181
Width: 919
GlyphClass: 2
Flags: W
AnchorPoint: "Anchor-1" 460 496 basechar 0
AnchorPoint: "Anchor-0" 460 0 basechar 0
LayerCount: 2
Fore
SplineSet
543.5 19.5 m 128,-1,1
 493 51 493 51 464 107 c 1,2,3
 434 48 434 48 381 18 c 128,-1,4
 328 -12 328 -12 269 -12 c 0,5,6
 211 -12 211 -12 158 16 c 128,-1,7
 105 44 105 44 71.5 102.5 c 128,-1,8
 38 161 38 161 38 247 c 0,9,10
 38 332 38 332 71.5 390.5 c 128,-1,11
 105 449 105 449 158 477 c 128,-1,12
 211 505 211 505 269 505 c 0,13,14
 328 505 328 505 381 474.5 c 128,-1,15
 434 444 434 444 464 385 c 1,16,17
 493 442 493 442 545 473.5 c 128,-1,18
 597 505 597 505 661 505 c 0,19,20
 734 505 734 505 786 466.5 c 128,-1,21
 838 428 838 428 863 366 c 128,-1,22
 888 304 888 304 883 235 c 1,23,-1
 498 235 l 1,24,25
 501 167 501 167 528 125 c 128,-1,26
 555 83 555 83 592 65.5 c 128,-1,27
 629 48 629 48 666 48 c 0,28,29
 746 48 746 48 787 105 c 1,30,-1
 854 84 l 1,31,32
 826 41 826 41 778 14.5 c 128,-1,33
 730 -12 730 -12 663 -12 c 0,34,0
 594 -12 594 -12 543.5 19.5 c 128,-1,1
347.5 70 m 128,-1,36
 384 92 384 92 406 137 c 128,-1,37
 428 182 428 182 428 247 c 256,38,39
 428 312 428 312 406 357 c 128,-1,40
 384 402 384 402 347.5 423.5 c 128,-1,41
 311 445 311 445 269 445 c 256,42,43
 227 445 227 445 190.5 423.5 c 128,-1,44
 154 402 154 402 132 357 c 128,-1,45
 110 312 110 312 110 247 c 256,46,47
 110 182 110 182 132 137 c 128,-1,48
 154 92 154 92 190.5 70 c 128,-1,49
 227 48 227 48 269 48 c 256,50,35
 311 48 311 48 347.5 70 c 128,-1,36
792 364 m 128,-1,52
 774 400 774 400 740.5 423 c 128,-1,53
 707 446 707 446 661 446 c 0,54,55
 600 446 600 446 555 408.5 c 128,-1,56
 510 371 510 371 500 290 c 1,57,-1
 811 290 l 1,58,51
 810 328 810 328 792 364 c 128,-1,52
EndSplineSet
EndChar
StartChar: Scedilla
Encoding: 350 350 80
Width: 586
GlyphClass: 2
Flags: W
AnchorPoint: "Anchor-1" 293 668 basechar 0
LayerCount: 2
Fore
SplineSet
201 -158 m 1,1,-1
 215 -128 l 1,2,3
 250 -144 250 -144 276 -144 c 0,4,5
 303 -144 303 -144 315 -133 c 128,-1,6
 327 -122 327 -122 327 -108 c 0,7,8
 327 -78 327 -78 288 -78 c 0,9,10
 281 -78 281 -78 270 -80 c 128,-1,11
 259 -82 259 -82 250 -83 c 2,12,-1
 246 -83 l 2,13,14
 231 -83 231 -83 231 -69 c 0,15,16
 231 -63 231 -63 235 -56 c 2,17,-1
 262 -11 l 1,18,19
 186 -4 186 -4 125 34.5 c 128,-1,20
 64 73 64 73 43 143 c 1,21,-1
 112 168 l 1,22,23
 128 111 128 111 179.5 81 c 128,-1,24
 231 51 231 51 293 51 c 0,25,26
 369 51 369 51 419 86 c 128,-1,27
 469 121 469 121 469 185 c 0,28,29
 469 230 469 230 437.5 257.5 c 128,-1,30
 406 285 406 285 324 305 c 2,31,-1
 231 328 l 2,32,33
 149 347 149 347 104 388 c 128,-1,34
 59 429 59 429 59 499 c 0,35,36
 59 551 59 551 89.5 592 c 128,-1,37
 120 633 120 633 174 656.5 c 128,-1,38
 228 680 228 680 294 680 c 0,39,40
 368 680 368 680 428.5 650 c 128,-1,41
 489 620 489 620 518 561 c 1,42,-1
 448 535 l 1,43,44
 428 574 428 574 384 595.5 c 128,-1,45
 340 617 340 617 292 617 c 0,46,47
 223 617 223 617 178 586.5 c 128,-1,48
 133 556 133 556 133 500 c 0,49,50
 133 422 133 422 247 395 c 2,51,-1
 342 372 l 2,52,53
 442 348 442 348 492.5 306.5 c 128,-1,54
 543 265 543 265 543 184 c 0,55,56
 543 127 543 127 511 83.5 c 128,-1,57
 479 40 479 40 424.5 15.5 c 128,-1,58
 370 -9 370 -9 304 -12 c 1,59,-1
 282 -47 l 1,60,61
 298 -43 298 -43 313 -43 c 0,62,63
 344 -43 344 -43 361 -60 c 128,-1,64
 378 -77 378 -77 378 -101 c 0,65,66
 378 -130 378 -130 353.5 -155 c 128,-1,67
 329 -180 329 -180 284 -180 c 0,68,0
 250 -180 250 -180 201 -158 c 1,1,-1
EndSplineSet
Substitution2: "'locl' Localized Forms in Latin lookup 4 subtable" uni0218
AlternateSubs2: "'aalt' Access All Alternates in Latin lookup 0 subtable" uni0218
EndChar
StartChar: scedilla
Encoding: 351 351 191
Width: 458
GlyphClass: 2
Flags: W
AnchorPoint: "Anchor-1" 228 496 basechar 0
LayerCount: 2
Fore
SplineSet
145 -158 m 1,1,-1
 159 -128 l 1,2,3
 194 -144 194 -144 220 -144 c 256,4,5
 246 -144 246 -144 258.5 -133 c 128,-1,6
 271 -122 271 -122 271 -108 c 0,7,8
 271 -78 271 -78 233 -78 c 0,9,10
 226 -78 226 -78 214.5 -80 c 128,-1,11
 203 -82 203 -82 194 -83 c 2,12,-1
 190 -83 l 2,13,14
 174 -83 174 -83 174 -69 c 0,15,16
 174 -61 174 -61 178 -56 c 2,17,-1
 206 -10 l 1,18,19
 149 -3 149 -3 101.5 27.5 c 128,-1,20
 54 58 54 58 34 112 c 1,21,-1
 100 137 l 1,22,23
 112 95 112 95 150 71 c 128,-1,24
 188 47 188 47 235 47 c 0,25,26
 289 47 289 47 323.5 71 c 128,-1,27
 358 95 358 95 358 134 c 0,28,29
 358 170 358 170 330.5 189.5 c 128,-1,30
 303 209 303 209 240 224 c 2,31,-1
 190 235 l 2,32,33
 119 251 119 251 83 280.5 c 128,-1,34
 47 310 47 310 47 368 c 0,35,36
 47 408 47 408 70.5 439.5 c 128,-1,37
 94 471 94 471 135.5 488.5 c 128,-1,38
 177 506 177 506 228 506 c 0,39,40
 289 506 289 506 338.5 479.5 c 128,-1,41
 388 453 388 453 409 405 c 1,42,-1
 345 380 l 1,43,44
 332 412 332 412 298 429.5 c 128,-1,45
 264 447 264 447 224 447 c 0,46,47
 176 447 176 447 145 425.5 c 128,-1,48
 114 404 114 404 114 371 c 0,49,50
 114 342 114 342 136 325 c 128,-1,51
 158 308 158 308 208 296 c 2,52,-1
 258 284 l 2,53,54
 344 265 344 265 384.5 234 c 128,-1,55
 425 203 425 203 425 138 c 0,56,57
 425 76 425 76 375 34 c 128,-1,58
 325 -8 325 -8 248 -12 c 1,59,-1
 226 -47 l 1,60,61
 242 -43 242 -43 256 -43 c 0,62,63
 287 -43 287 -43 304.5 -60 c 128,-1,64
 322 -77 322 -77 322 -101 c 0,65,66
 322 -131 322 -131 297.5 -155.5 c 128,-1,67
 273 -180 273 -180 227 -180 c 0,68,0
 192 -180 192 -180 145 -158 c 1,1,-1
EndSplineSet
Substitution2: "'locl' Localized Forms in Latin lookup 4 subtable" uni0219
AlternateSubs2: "'aalt' Access All Alternates in Latin lookup 0 subtable" uni0219
EndChar
StartChar: uni0162
Encoding: 354 354 85
Width: 539
GlyphClass: 2
Flags: W
AnchorPoint: "Anchor-1" 269 668 basechar 0
LayerCount: 2
Fore
SplineSet
233 604 m 1,0,-1
 9 604 l 1,1,-1
 9 668 l 1,2,-1
 530 668 l 1,3,-1
 530 604 l 1,4,-1
 306 604 l 1,5,-1
 306 0 l 1,6,-1
 291 0 l 1,7,-1
 261 -47 l 1,8,9
 277 -43 277 -43 292 -43 c 0,10,11
 323 -43 323 -43 340 -60 c 128,-1,12
 357 -77 357 -77 357 -101 c 0,13,14
 357 -130 357 -130 332.5 -155 c 128,-1,15
 308 -180 308 -180 263 -180 c 0,16,17
 228 -180 228 -180 181 -158 c 1,18,-1
 195 -128 l 1,19,20
 228 -144 228 -144 255 -144 c 256,21,22
 282 -144 282 -144 294.5 -133 c 128,-1,23
 307 -122 307 -122 307 -108 c 0,24,25
 307 -78 307 -78 267 -78 c 0,26,27
 260 -78 260 -78 249 -80 c 128,-1,28
 238 -82 238 -82 229 -83 c 2,29,-1
 225 -83 l 2,30,31
 210 -83 210 -83 210 -69 c 0,32,33
 210 -63 210 -63 214 -56 c 2,34,-1
 248 0 l 1,35,-1
 233 0 l 1,36,-1
 233 604 l 1,0,-1
EndSplineSet
Substitution2: "'locl' Localized Forms in Latin lookup 4 subtable" uni021A
AlternateSubs2: "'aalt' Access All Alternates in Latin lookup 0 subtable" uni021A
EndChar
StartChar: uni0163
Encoding: 355 355 196
Width: 309
GlyphClass: 2
Flags: W
AnchorPoint: "Anchor-3" 197 544 basechar 0
AnchorPoint: "Anchor-1" 155 496 basechar 0
LayerCount: 2
Fore
SplineSet
94 -158 m 1,1,-1
 108 -128 l 1,2,3
 141 -144 141 -144 168 -144 c 256,4,5
 195 -144 195 -144 207.5 -133 c 128,-1,6
 220 -122 220 -122 220 -108 c 0,7,8
 220 -78 220 -78 180 -78 c 0,9,10
 173 -78 173 -78 162 -80 c 128,-1,11
 151 -82 151 -82 142 -83 c 2,12,-1
 138 -83 l 2,13,14
 123 -83 123 -83 123 -69 c 0,15,16
 123 -61 123 -61 127 -56 c 2,17,-1
 164 4 l 1,18,19
 130 11 130 11 117 36.5 c 128,-1,20
 104 62 104 62 104 120 c 2,21,-1
 104 441 l 1,22,-1
 19 441 l 1,23,-1
 19 496 l 1,24,-1
 104 496 l 1,25,-1
 104 620 l 1,26,-1
 172 620 l 1,27,-1
 172 496 l 1,28,-1
 274 496 l 1,29,-1
 274 441 l 1,30,-1
 172 441 l 1,31,-1
 172 127 l 2,32,33
 172 98 172 98 176 84 c 128,-1,34
 180 70 180 70 191 65 c 128,-1,35
 202 60 202 60 225 60 c 2,36,-1
 274 60 l 1,37,-1
 274 0 l 1,38,-1
 215 0 l 1,39,-1
 204 0 l 1,40,-1
 174 -47 l 1,41,42
 190 -43 190 -43 205 -43 c 0,43,44
 236 -43 236 -43 253 -60 c 128,-1,45
 270 -77 270 -77 270 -101 c 0,46,47
 270 -130 270 -130 245.5 -155 c 128,-1,48
 221 -180 221 -180 176 -180 c 0,49,0
 141 -180 141 -180 94 -158 c 1,1,-1
EndSplineSet
Substitution2: "'locl' Localized Forms in Latin lookup 4 subtable" uni021B
AlternateSubs2: "'aalt' Access All Alternates in Latin lookup 0 subtable" uni021B
EndChar
StartChar: Uring
Encoding: 366 366 95
Width: 680
GlyphClass: 2
Flags: W
AnchorPoint: "Anchor-3" 667 668 basechar 0
AnchorPoint: "Anchor-2" 515 10 basechar 0
AnchorPoint: "Anchor-1" 341 879 basechar 0
AnchorPoint: "Anchor-0" 340 0 basechar 0
LayerCount: 2
Fore
SplineSet
140.5 58.5 m 128,-1,1
 78 129 78 129 78 275 c 2,2,-1
 78 668 l 1,3,-1
 152 668 l 1,4,-1
 152 270 l 2,5,6
 152 160 152 160 196.5 106 c 128,-1,7
 241 52 241 52 340 52 c 256,8,9
 439 52 439 52 483.5 106 c 128,-1,10
 528 160 528 160 528 270 c 2,11,-1
 528 668 l 1,12,-1
 602 668 l 1,13,-1
 602 275 l 2,14,15
 602 129 602 129 539.5 58.5 c 128,-1,16
 477 -12 477 -12 340 -12 c 256,17,0
 203 -12 203 -12 140.5 58.5 c 128,-1,1
268 703.5 m 128,-1,19
 238 734 238 734 238 776 c 256,20,21
 238 818 238 818 268 848.5 c 128,-1,22
 298 879 298 879 341 879 c 0,23,24
 383 879 383 879 413 848.5 c 128,-1,25
 443 818 443 818 443 776 c 256,26,27
 443 734 443 734 413 703.5 c 128,-1,28
 383 673 383 673 341 673 c 0,29,18
 298 673 298 673 268 703.5 c 128,-1,19
379.5 738.5 m 128,-1,31
 395 754 395 754 395 776 c 256,32,33
 395 798 395 798 379.5 813.5 c 128,-1,34
 364 829 364 829 341 829 c 256,35,36
 318 829 318 829 302 813.5 c 128,-1,37
 286 798 286 798 286 776 c 256,38,39
 286 754 286 754 302 738.5 c 128,-1,40
 318 723 318 723 341 723 c 256,41,30
 364 723 364 723 379.5 738.5 c 128,-1,31
EndSplineSet
EndChar
StartChar: Uogonek
Encoding: 370 370 94
Width: 680
GlyphClass: 2
Flags: W
AnchorPoint: "Anchor-3" 667 668 basechar 0
AnchorPoint: "Anchor-1" 340 668 basechar 0
AnchorPoint: "Anchor-0" 340 0 basechar 0
LayerCount: 2
Fore
SplineSet
396.5 -148 m 128,-1,1
 372 -126 372 -126 372 -93 c 0,2,3
 372 -46 372 -46 408 -7 c 1,4,5
 376 -11 376 -11 335 -11 c 0,6,7
 221 -11 221 -11 149.5 50 c 128,-1,8
 78 111 78 111 78 272 c 2,9,-1
 78 668 l 1,10,-1
 152 668 l 1,11,-1
 152 270 l 2,12,13
 152 160 152 160 196.5 106 c 128,-1,14
 241 52 241 52 340 52 c 256,15,16
 439 52 439 52 483.5 106 c 128,-1,17
 528 160 528 160 528 270 c 2,18,-1
 528 668 l 1,19,-1
 602 668 l 1,20,-1
 602 275 l 2,21,22
 602 80 602 80 493 21 c 0,23,24
 464 6 464 6 446.5 -20.5 c 128,-1,25
 429 -47 429 -47 429 -75 c 0,26,27
 429 -97 429 -97 443 -109 c 128,-1,28
 457 -121 457 -121 480 -121 c 0,29,30
 501 -121 501 -121 515 -114 c 1,31,-1
 515 -160 l 1,32,33
 489 -170 489 -170 460 -170 c 0,34,0
 421 -170 421 -170 396.5 -148 c 128,-1,1
EndSplineSet
EndChar
StartChar: uogonek
Encoding: 371 371 205
Width: 532
GlyphClass: 2
Flags: W
AnchorPoint: "Anchor-3" 503 496 basechar 0
AnchorPoint: "Anchor-1" 260 496 basechar 0
AnchorPoint: "Anchor-0" 260 0 basechar 0
LayerCount: 2
Fore
SplineSet
111 37 m 128,-1,1
 72 86 72 86 72 173 c 2,2,-1
 72 496 l 1,3,-1
 140 496 l 1,4,-1
 140 193 l 2,5,6
 140 123 140 123 164 85.5 c 128,-1,7
 188 48 188 48 252 48 c 0,8,9
 315 48 315 48 352.5 93.5 c 128,-1,10
 390 139 390 139 390 222 c 2,11,-1
 390 496 l 1,12,-1
 458 496 l 1,13,-1
 458 0 l 1,14,15
 415 -14 415 -14 393.5 -35 c 128,-1,16
 372 -56 372 -56 372 -79 c 0,17,18
 372 -100 372 -100 386 -110.5 c 128,-1,19
 400 -121 400 -121 423 -121 c 0,20,21
 440 -121 440 -121 458 -114 c 1,22,-1
 458 -160 l 1,23,24
 432 -170 432 -170 403 -170 c 0,25,26
 364 -170 364 -170 339.5 -148 c 128,-1,27
 315 -126 315 -126 315 -93 c 0,28,29
 315 -58 315 -58 337 -32.5 c 128,-1,30
 359 -7 359 -7 404 14 c 1,31,-1
 391 76 l 1,32,33
 370 37 370 37 331.5 12.5 c 128,-1,34
 293 -12 293 -12 235 -12 c 0,35,0
 150 -12 150 -12 111 37 c 128,-1,1
EndSplineSet
EndChar
StartChar: florin
Encoding: 402 402 295
Width: 309
GlyphClass: 1
Flags: W
LayerCount: 2
Fore
SplineSet
26 -166 m 1,1,-1
 26 -107 l 1,2,3
 44 -112 44 -112 55 -112 c 0,4,5
 113 -112 113 -112 113 -41 c 2,6,-1
 113 443 l 1,7,-1
 29 443 l 1,8,-1
 29 496 l 1,9,-1
 113 496 l 1,10,-1
 113 568 l 2,11,12
 113 622 113 622 121 648.5 c 128,-1,13
 129 675 129 675 153.5 687.5 c 128,-1,14
 178 700 178 700 230 700 c 2,15,-1
 280 700 l 1,16,-1
 280 642 l 1,17,-1
 225 642 l 2,18,19
 196 642 196 642 187 628.5 c 128,-1,20
 178 615 178 615 178 573 c 2,21,-1
 178 496 l 1,22,-1
 280 496 l 1,23,-1
 280 443 l 1,24,-1
 178 443 l 1,25,-1
 178 -36 l 2,26,27
 178 -172 178 -172 68 -172 c 0,28,0
 50 -172 50 -172 26 -166 c 1,1,-1
EndSplineSet
EndChar
StartChar: uni0237
Encoding: 567 567 159
Width: 229
GlyphClass: 2
Flags: W
AnchorPoint: "Anchor-1" 118 496 basechar 0
AnchorPoint: "Anchor-0" 110 -251 basechar 0
LayerCount: 2
Fore
SplineSet
-56 -102 m 1,0,-1
 -10 -102 l 2,1,2
 33 -102 33 -102 52 -94.5 c 128,-1,3
 71 -87 71 -87 77.5 -67 c 128,-1,4
 84 -47 84 -47 84 -4 c 2,5,-1
 84 496 l 1,6,-1
 152 496 l 1,7,-1
 152 -6 l 2,8,9
 152 -68 152 -68 139.5 -100.5 c 128,-1,10
 127 -133 127 -133 93.5 -147.5 c 128,-1,11
 60 -162 60 -162 -6 -162 c 2,12,-1
 -56 -162 l 1,13,-1
 -56 -102 l 1,0,-1
EndSplineSet
EndChar
StartChar: uni02C9
Encoding: 713 713 374
Width: 348
GlyphClass: 1
Flags: W
LayerCount: 2
Fore
SplineSet
39 674 m 1,0,-1
 309 674 l 1,1,-1
 309 615 l 1,2,-1
 39 615 l 1,3,-1
 39 674 l 1,0,-1
EndSplineSet
EndChar
StartChar: gravecomb
Encoding: 768 768 349
Width: 0
GlyphClass: 4
Flags: W
AnchorPoint: "Anchor-5" 165 701 basemark 0
AnchorPoint: "Anchor-5" 165 496 mark 0
AnchorPoint: "Anchor-1" 165 496 mark 0
LayerCount: 2
Fore
SplineSet
46.5 648 m 128,-1,1
 39 658 39 658 39 670 c 0,2,3
 39 684 39 684 48 692.5 c 128,-1,4
 57 701 57 701 70 701 c 0,5,6
 82 701 82 701 90.5 694 c 128,-1,7
 99 687 99 687 113 670 c 2,8,-1
 189 570 l 1,9,-1
 132 570 l 1,10,-1
 77 618 l 2,11,0
 54 638 54 638 46.5 648 c 128,-1,1
EndSplineSet
Substitution2: "Single Substitution lookup 13 subtable" gravecomb.case
Substitution2: "'case' Case-Sensitive Forms in Latin lookup 11 subtable" gravecomb.case
AlternateSubs2: "'aalt' Access All Alternates in Latin lookup 0 subtable" gravecomb.case
EndChar
StartChar: acutecomb
Encoding: 769 769 351
Width: 0
GlyphClass: 4
Flags: W
AnchorPoint: "Anchor-5" 64 701 basemark 0
AnchorPoint: "Anchor-5" 64 496 mark 0
AnchorPoint: "Anchor-1" 64 496 mark 0
LayerCount: 2
Fore
SplineSet
137.5 694 m 128,-1,1
 147 701 147 701 158 701 c 0,2,3
 172 701 172 701 180.5 692.5 c 128,-1,4
 189 684 189 684 189 670 c 0,5,6
 189 658 189 658 181.5 648 c 128,-1,7
 174 638 174 638 151 618 c 2,8,-1
 96 570 l 1,9,-1
 39 570 l 1,10,-1
 115 670 l 2,11,0
 128 687 128 687 137.5 694 c 128,-1,1
EndSplineSet
Substitution2: "Single Substitution lookup 13 subtable" acutecomb.case
Substitution2: "'case' Case-Sensitive Forms in Latin lookup 11 subtable" acutecomb.case
AlternateSubs2: "'aalt' Access All Alternates in Latin lookup 0 subtable" acutecomb.case
EndChar
StartChar: uni0302
Encoding: 770 770 356
Width: 0
GlyphClass: 4
Flags: W
AnchorPoint: "Anchor-5" 181 687 basemark 0
AnchorPoint: "Anchor-5" 181 496 mark 0
AnchorPoint: "Anchor-1" 181 496 mark 0
LayerCount: 2
Fore
SplineSet
181 687 m 0,1,2
 206 687 206 687 227 666 c 2,3,-1
 322 576 l 1,4,-1
 249 576 l 1,5,-1
 180 636 l 1,6,-1
 112 576 l 1,7,-1
 39 576 l 1,8,-1
 134 666 l 2,9,0
 155 687 155 687 181 687 c 0,1,2
EndSplineSet
Substitution2: "Single Substitution lookup 13 subtable" uni0302.case
Substitution2: "'case' Case-Sensitive Forms in Latin lookup 11 subtable" uni0302.case
AlternateSubs2: "'aalt' Access All Alternates in Latin lookup 0 subtable" uni0302.case
EndChar
StartChar: tildecomb
Encoding: 771 771 364
Width: 0
GlyphClass: 4
Flags: W
AnchorPoint: "Anchor-5" 190 670 basemark 0
AnchorPoint: "Anchor-5" 190 496 mark 0
AnchorPoint: "Anchor-1" 190 496 mark 0
LayerCount: 2
Fore
SplineSet
220.5 582 m 128,-1,1
 205 588 205 588 185 599 c 0,2,3
 172 606 172 606 158.5 611.5 c 128,-1,4
 145 617 145 617 134 617 c 0,5,6
 116 617 116 617 104.5 606.5 c 128,-1,7
 93 596 93 596 91 577 c 1,8,-1
 39 577 l 1,9,10
 47 623 47 623 72.5 645.5 c 128,-1,11
 98 668 98 668 134 668 c 0,12,13
 152 668 152 668 166 662.5 c 128,-1,14
 180 657 180 657 202 645 c 0,15,16
 218 636 218 636 229 631.5 c 128,-1,17
 240 627 240 627 253 627 c 0,18,19
 268 627 268 627 276.5 633.5 c 128,-1,20
 285 640 285 640 293 653 c 0,21,22
 303 669 303 669 318 669 c 0,23,24
 327 669 327 669 334 662.5 c 128,-1,25
 341 656 341 656 341 645 c 256,26,27
 341 634 341 634 331 617.5 c 128,-1,28
 321 601 321 601 301.5 588.5 c 128,-1,29
 282 576 282 576 255 576 c 0,30,0
 236 576 236 576 220.5 582 c 128,-1,1
EndSplineSet
Substitution2: "Single Substitution lookup 13 subtable" tildecomb.case
Substitution2: "'case' Case-Sensitive Forms in Latin lookup 11 subtable" tildecomb.case
AlternateSubs2: "'aalt' Access All Alternates in Latin lookup 0 subtable" tildecomb.case
EndChar
StartChar: uni0306
Encoding: 774 774 360
Width: 0
GlyphClass: 4
Flags: W
AnchorPoint: "Anchor-5" 169 682 basemark 0
AnchorPoint: "Anchor-5" 169 496 mark 0
AnchorPoint: "Anchor-1" 169 496 mark 0
LayerCount: 2
Fore
SplineSet
83.5 602 m 128,-1,1
 48 633 48 633 39 679 c 1,2,-1
 92 679 l 1,3,4
 99 656 99 656 119.5 640 c 128,-1,5
 140 624 140 624 169 624 c 0,6,7
 197 624 197 624 217 640 c 128,-1,8
 237 656 237 656 245 679 c 1,9,-1
 298 679 l 1,10,11
 289 633 289 633 253 602 c 128,-1,12
 217 571 217 571 169 571 c 0,13,0
 119 571 119 571 83.5 602 c 128,-1,1
EndSplineSet
Substitution2: "Single Substitution lookup 13 subtable" uni0306.case
Substitution2: "'case' Case-Sensitive Forms in Latin lookup 11 subtable" uni0306.case
AlternateSubs2: "'aalt' Access All Alternates in Latin lookup 0 subtable" uni0306.case
EndChar
StartChar: uni0307
Encoding: 775 775 346
Width: 0
GlyphClass: 4
Flags: W
AnchorPoint: "Anchor-5" 87 691 basemark 0
AnchorPoint: "Anchor-5" 87 496 mark 0
AnchorPoint: "Anchor-1" 87 496 mark 0
LayerCount: 2
Fore
SplineSet
53 609 m 128,-1,1
 39 623 39 623 39 643 c 256,2,3
 39 663 39 663 53 677 c 128,-1,4
 67 691 67 691 87 691 c 256,5,6
 107 691 107 691 121 677 c 128,-1,7
 135 663 135 663 135 643 c 256,8,9
 135 623 135 623 121 609 c 128,-1,10
 107 595 107 595 87 595 c 256,11,0
 67 595 67 595 53 609 c 128,-1,1
EndSplineSet
Substitution2: "Single Substitution lookup 13 subtable" uni0307.case
Substitution2: "'case' Case-Sensitive Forms in Latin lookup 11 subtable" uni0307.case
AlternateSubs2: "'aalt' Access All Alternates in Latin lookup 0 subtable" uni0307.case
EndChar
StartChar: uni0308
Encoding: 776 776 344
Width: 0
GlyphClass: 4
Flags: W
AnchorPoint: "Anchor-5" 171 691 basemark 0
AnchorPoint: "Anchor-5" 171 496 mark 0
AnchorPoint: "Anchor-1" 171 496 mark 0
LayerCount: 2
Fore
SplineSet
222 610 m 128,-1,1
 208 624 208 624 208 643 c 0,2,3
 208 663 208 663 222 677 c 128,-1,4
 236 691 236 691 256 691 c 256,5,6
 276 691 276 691 290 677 c 128,-1,7
 304 663 304 663 304 643 c 0,8,9
 304 624 304 624 290 610 c 128,-1,10
 276 596 276 596 256 596 c 256,11,0
 236 596 236 596 222 610 c 128,-1,1
53 609.5 m 128,-1,13
 39 623 39 623 39 643 c 256,14,15
 39 663 39 663 53 677 c 128,-1,16
 67 691 67 691 87 691 c 256,17,18
 107 691 107 691 120.5 677 c 128,-1,19
 134 663 134 663 134 643 c 0,20,21
 134 624 134 624 120.5 610 c 128,-1,22
 107 596 107 596 87 596 c 256,23,12
 67 596 67 596 53 609.5 c 128,-1,13
EndSplineSet
Substitution2: "Single Substitution lookup 13 subtable" uni0308.case
Substitution2: "'case' Case-Sensitive Forms in Latin lookup 11 subtable" uni0308.case
AlternateSubs2: "'aalt' Access All Alternates in Latin lookup 0 subtable" uni0308.case
EndChar
StartChar: uni030A
Encoding: 778 778 362
Width: 0
GlyphClass: 4
Flags: W
AnchorPoint: "Anchor-5" 141 770 basemark 0
AnchorPoint: "Anchor-5" 141 496 mark 0
AnchorPoint: "Anchor-1" 141 496 mark 0
LayerCount: 2
Fore
SplineSet
69 596 m 128,-1,1
 39 626 39 626 39 668 c 256,2,3
 39 710 39 710 69 740 c 128,-1,4
 99 770 99 770 141 770 c 0,5,6
 182 770 182 770 212 740 c 128,-1,7
 242 710 242 710 242 668 c 256,8,9
 242 626 242 626 212 596 c 128,-1,10
 182 566 182 566 141 566 c 0,11,0
 99 566 99 566 69 596 c 128,-1,1
178.5 630 m 128,-1,13
 194 646 194 646 194 668 c 256,14,15
 194 690 194 690 178.5 706 c 128,-1,16
 163 722 163 722 141 722 c 256,17,18
 119 722 119 722 103 706.5 c 128,-1,19
 87 691 87 691 87 668 c 0,20,21
 87 646 87 646 103 630 c 128,-1,22
 119 614 119 614 141 614 c 256,23,12
 163 614 163 614 178.5 630 c 128,-1,13
EndSplineSet
Substitution2: "Single Substitution lookup 13 subtable" uni030A.case
Substitution2: "'case' Case-Sensitive Forms in Latin lookup 11 subtable" uni030A.case
AlternateSubs2: "'aalt' Access All Alternates in Latin lookup 0 subtable" uni030A.case
EndChar
StartChar: uni030B
Encoding: 779 779 353
Width: 0
GlyphClass: 4
Flags: W
AnchorPoint: "Anchor-5" 226 700 basemark 0
AnchorPoint: "Anchor-5" 133 496 mark 0
AnchorPoint: "Anchor-1" 133 496 mark 0
LayerCount: 2
Fore
SplineSet
136.5 693 m 128,-1,1
 146 700 146 700 158 700 c 0,2,3
 171 700 171 700 178.5 692 c 128,-1,4
 186 684 186 684 186 672 c 256,5,6
 186 660 186 660 177.5 649 c 128,-1,7
 169 638 169 638 147 619 c 2,8,-1
 92 570 l 1,9,-1
 39 570 l 1,10,-1
 115 670 l 2,11,0
 127 686 127 686 136.5 693 c 128,-1,1
272.5 693 m 128,-1,13
 282 700 282 700 294 700 c 0,14,15
 307 700 307 700 315 692 c 128,-1,16
 323 684 323 684 323 672 c 0,17,18
 323 661 323 661 314.5 649.5 c 128,-1,19
 306 638 306 638 284 619 c 2,20,-1
 228 570 l 1,21,-1
 175 570 l 1,22,-1
 251 670 l 2,23,12
 263 686 263 686 272.5 693 c 128,-1,13
EndSplineSet
Substitution2: "Single Substitution lookup 13 subtable" uni030B.case
Substitution2: "'case' Case-Sensitive Forms in Latin lookup 11 subtable" uni030B.case
AlternateSubs2: "'aalt' Access All Alternates in Latin lookup 0 subtable" uni030B.case
EndChar
StartChar: uni030C
Encoding: 780 780 358
Width: 0
GlyphClass: 4
Flags: W
AnchorPoint: "Anchor-5" 181 681 basemark 0
AnchorPoint: "Anchor-5" 181 496 mark 0
AnchorPoint: "Anchor-1" 181 496 mark 0
LayerCount: 2
Fore
SplineSet
134 590 m 2,1,-1
 39 681 l 1,2,-1
 112 681 l 1,3,-1
 180 620 l 1,4,-1
 249 681 l 1,5,-1
 322 681 l 1,6,-1
 227 590 l 2,7,8
 207 570 207 570 181 570 c 0,9,0
 154 570 154 570 134 590 c 2,1,-1
EndSplineSet
Substitution2: "Single Substitution lookup 13 subtable" uni030C.case
Substitution2: "'case' Case-Sensitive Forms in Latin lookup 11 subtable" uni030C.case
AlternateSubs2: "'aalt' Access All Alternates in Latin lookup 0 subtable" uni030C.case
EndChar
StartChar: uni0312
Encoding: 786 786 368
Width: 0
GlyphClass: 4
Flags: W
AnchorPoint: "Anchor-5" 110 763 basemark 0
AnchorPoint: "Anchor-5" 92 496 mark 0
AnchorPoint: "Anchor-1" 92 496 mark 0
LayerCount: 2
Fore
SplineSet
39 658 m 0,1,2
 39 704 39 704 70.5 733 c 128,-1,3
 102 762 102 762 146 763 c 1,4,-1
 181 734 l 1,5,6
 148 733 148 733 121 717 c 128,-1,7
 94 701 94 701 94 664 c 0,8,9
 94 618 94 618 137 599 c 1,10,-1
 86 577 l 1,11,0
 39 608 39 608 39 658 c 0,1,2
EndSplineSet
EndChar
StartChar: uni0326
Encoding: 806 806 369
Width: 0
GlyphClass: 4
Flags: W
AnchorPoint: "Anchor-4" 122 -242 basemark 0
AnchorPoint: "Anchor-4" 122 0 mark 0
AnchorPoint: "Anchor-0" 122 0 mark 0
LayerCount: 2
Fore
SplineSet
99 -194 m 128,-1,1
 126 -178 126 -178 126 -141 c 0,2,3
 126 -95 126 -95 83 -76 c 1,4,-1
 134 -54 l 1,5,6
 181 -85 181 -85 181 -135 c 0,7,8
 181 -181 181 -181 149.5 -210 c 128,-1,9
 118 -239 118 -239 74 -240 c 1,10,-1
 39 -211 l 1,11,0
 72 -210 72 -210 99 -194 c 128,-1,1
EndSplineSet
EndChar
StartChar: uni0327
Encoding: 807 807 370
Width: 0
GlyphClass: 4
Flags: W
AnchorPoint: "Anchor-4" 130 -179 basemark 0
AnchorPoint: "Anchor-4" 130 0 mark 0
AnchorPoint: "Anchor-0" 130 0 mark 0
LayerCount: 2
Fore
SplineSet
39 -158 m 1,1,-1
 53 -128 l 1,2,3
 88 -144 88 -144 114 -144 c 256,4,5
 140 -144 140 -144 152.5 -133 c 128,-1,6
 165 -122 165 -122 165 -108 c 0,7,8
 165 -78 165 -78 125 -78 c 0,9,10
 118 -78 118 -78 107.5 -80 c 128,-1,11
 97 -82 97 -82 88 -83 c 2,12,-1
 84 -83 l 2,13,14
 68 -83 68 -83 68 -69 c 0,15,16
 68 -61 68 -61 72 -56 c 2,17,-1
 120 22 l 1,18,-1
 152 5 l 1,19,-1
 120 -47 l 1,20,21
 136 -43 136 -43 150 -43 c 0,22,23
 181 -43 181 -43 198 -60 c 128,-1,24
 215 -77 215 -77 215 -101 c 0,25,26
 215 -130 215 -130 191 -155 c 128,-1,27
 167 -180 167 -180 121 -180 c 0,28,0
 86 -180 86 -180 39 -158 c 1,1,-1
EndSplineSet
EndChar
StartChar: uni0328
Encoding: 808 808 371
Width: 0
GlyphClass: 4
Flags: W
AnchorPoint: "Anchor-2" 182 10 mark 0
LayerCount: 2
Fore
SplineSet
63 -148.5 m 128,-1,1
 39 -127 39 -127 39 -93 c 0,2,3
 39 -56 39 -56 62.5 -30 c 128,-1,4
 86 -4 86 -4 135 17 c 1,5,-1
 182 0 l 1,6,7
 139 -14 139 -14 117.5 -35 c 128,-1,8
 96 -56 96 -56 96 -79 c 0,9,10
 96 -100 96 -100 109.5 -110.5 c 128,-1,11
 123 -121 123 -121 146 -121 c 0,12,13
 164 -121 164 -121 182 -114 c 1,14,-1
 182 -160 l 1,15,16
 155 -170 155 -170 127 -170 c 0,17,0
 87 -170 87 -170 63 -148.5 c 128,-1,1
EndSplineSet
Substitution2: "Single Substitution lookup 13 subtable" uni0328.case
Substitution2: "'case' Case-Sensitive Forms in Latin lookup 11 subtable" uni0328.case
AlternateSubs2: "'aalt' Access All Alternates in Latin lookup 0 subtable" uni0328.case
EndChar
StartChar: uni03A9
Encoding: 937 937 226
Width: 676
GlyphClass: 1
Flags: W
LayerCount: 2
Fore
SplineSet
45 64 m 1,0,-1
 207 64 l 1,1,-1
 207 122 l 1,2,3
 133 160 133 160 89 231 c 128,-1,4
 45 302 45 302 45 384 c 0,5,6
 45 465 45 465 84.5 533 c 128,-1,7
 124 601 124 601 191 640.5 c 128,-1,8
 258 680 258 680 338 680 c 256,9,10
 418 680 418 680 485 640.5 c 128,-1,11
 552 601 552 601 591.5 533 c 128,-1,12
 631 465 631 465 631 384 c 0,13,14
 631 302 631 302 587 231 c 128,-1,15
 543 160 543 160 469 122 c 1,16,-1
 469 64 l 1,17,-1
 631 64 l 1,18,-1
 631 0 l 1,19,-1
 404 0 l 1,20,-1
 404 159 l 1,21,22
 477 181 477 181 524 243.5 c 128,-1,23
 571 306 571 306 571 384 c 0,24,25
 571 448 571 448 539.5 502.5 c 128,-1,26
 508 557 508 557 454.5 588.5 c 128,-1,27
 401 620 401 620 338 620 c 256,28,29
 275 620 275 620 221.5 588.5 c 128,-1,30
 168 557 168 557 136.5 502.5 c 128,-1,31
 105 448 105 448 105 384 c 0,32,33
 105 306 105 306 152 243.5 c 128,-1,34
 199 181 199 181 272 159 c 1,35,-1
 272 0 l 1,36,-1
 45 0 l 1,37,-1
 45 64 l 1,0,-1
EndSplineSet
EndChar
StartChar: uni03BC
Encoding: 956 956 227
Width: 537
GlyphClass: 1
Flags: W
LayerCount: 2
Fore
SplineSet
74 496 m 1,0,-1
 142 496 l 1,1,-1
 142 185 l 2,2,3
 142 125 142 125 165.5 87.5 c 128,-1,4
 189 50 189 50 253 50 c 256,5,6
 317 50 317 50 354.5 95.5 c 128,-1,7
 392 141 392 141 392 222 c 2,8,-1
 392 496 l 1,9,-1
 460 496 l 1,10,-1
 460 111 l 2,11,12
 460 80 460 80 469 69.5 c 128,-1,13
 478 59 478 59 506 59 c 2,14,-1
 516 59 l 1,15,-1
 516 0 l 1,16,-1
 494 0 l 2,17,18
 442 0 442 0 419.5 17.5 c 128,-1,19
 397 35 397 35 392 75 c 1,20,21
 369 36 369 36 336.5 13 c 128,-1,22
 304 -10 304 -10 249 -10 c 0,23,24
 213 -10 213 -10 184.5 3.5 c 128,-1,25
 156 17 156 17 142 42 c 1,26,-1
 142 -162 l 1,27,-1
 74 -162 l 1,28,-1
 74 496 l 1,0,-1
EndSplineSet
EndChar
StartChar: pi
Encoding: 960 960 228
Width: 554
GlyphClass: 1
Flags: W
LayerCount: 2
Fore
SplineSet
97 434 m 1,0,-1
 19 434 l 1,1,-1
 19 496 l 1,2,-1
 519 496 l 1,3,-1
 519 434 l 1,4,-1
 436 434 l 1,5,-1
 436 119 l 2,6,7
 436 92 436 92 439.5 80 c 128,-1,8
 443 68 443 68 453 64 c 128,-1,9
 463 60 463 60 486 60 c 2,10,-1
 519 60 l 1,11,-1
 519 0 l 1,12,-1
 475 0 l 2,13,14
 427 0 427 0 405 10 c 128,-1,15
 383 20 383 20 375 45.5 c 128,-1,16
 367 71 367 71 367 126 c 2,17,-1
 367 434 l 1,18,-1
 163 434 l 1,19,-1
 163 0 l 1,20,-1
 97 0 l 1,21,-1
 97 434 l 1,0,-1
EndSplineSet
EndChar
StartChar: uni1E9E
Encoding: 7838 7838 82
Width: 643
GlyphClass: 1
Flags: W
LayerCount: 2
Fore
SplineSet
314.5 19.5 m 128,-1,1
 273 51 273 51 257 101 c 1,2,-1
 317 124 l 1,3,4
 338 50 338 50 425 50 c 0,5,6
 473 50 473 50 505 83 c 128,-1,7
 537 116 537 116 537 174 c 0,8,9
 537 233 537 233 504 264.5 c 128,-1,10
 471 296 471 296 423 296 c 0,11,12
 400 296 400 296 377 287 c 1,13,-1
 343 344 l 1,14,-1
 520 598 l 1,15,16
 419 620 419 620 343 620 c 0,17,18
 246 620 246 620 199 580 c 128,-1,19
 152 540 152 540 152 441 c 2,20,-1
 152 0 l 1,21,-1
 78 0 l 1,22,-1
 78 447 l 2,23,24
 78 570 78 570 145.5 625 c 128,-1,25
 213 680 213 680 336 680 c 0,26,27
 436 680 436 680 583 645 c 1,28,-1
 583 583 l 1,29,-1
 421 351 l 1,30,31
 474 355 474 355 517 333.5 c 128,-1,32
 560 312 560 312 584 269.5 c 128,-1,33
 608 227 608 227 608 172 c 0,34,35
 608 114 608 114 583 72.5 c 128,-1,36
 558 31 558 31 516.5 9.5 c 128,-1,37
 475 -12 475 -12 427 -12 c 0,38,0
 356 -12 356 -12 314.5 19.5 c 128,-1,1
EndSplineSet
EndChar
StartChar: quoteleft
Encoding: 8216 8216 287
Width: 209
GlyphClass: 1
Flags: W
LayerCount: 2
Fore
SplineSet
65 456.5 m 128,-1,1
 49 473 49 473 49 495 c 0,2,3
 49 507 49 507 55 522 c 2,4,-1
 111 668 l 1,5,-1
 157 668 l 1,6,-1
 112 550 l 1,7,8
 132 548 132 548 146 532 c 128,-1,9
 160 516 160 516 160 495 c 0,10,11
 160 473 160 473 143.5 456.5 c 128,-1,12
 127 440 127 440 105 440 c 0,13,0
 81 440 81 440 65 456.5 c 128,-1,1
EndSplineSet
EndChar
StartChar: quoteright
Encoding: 8217 8217 288
Width: 209
GlyphClass: 1
Flags: W
LayerCount: 2
Fore
SplineSet
63 588 m 128,-1,1
 49 604 49 604 49 625 c 0,2,3
 49 647 49 647 65.5 663.5 c 128,-1,4
 82 680 82 680 104 680 c 0,5,6
 128 680 128 680 144 663.5 c 128,-1,7
 160 647 160 647 160 625 c 0,8,9
 160 613 160 613 154 598 c 2,10,-1
 98 452 l 1,11,-1
 52 452 l 1,12,-1
 97 570 l 1,13,0
 77 572 77 572 63 588 c 128,-1,1
EndSplineSet
EndChar
StartChar: quotesinglbase
Encoding: 8218 8218 283
Width: 209
GlyphClass: 1
Flags: W
LayerCount: 2
Fore
SplineSet
63 7 m 128,-1,1
 49 23 49 23 49 43 c 0,2,3
 49 66 49 66 65.5 82.5 c 128,-1,4
 82 99 82 99 104 99 c 0,5,6
 128 99 128 99 144 82.5 c 128,-1,7
 160 66 160 66 160 44 c 0,8,9
 160 32 160 32 154 17 c 2,10,-1
 98 -129 l 1,11,-1
 52 -129 l 1,12,-1
 97 -12 l 1,13,0
 77 -9 77 -9 63 7 c 128,-1,1
EndSplineSet
EndChar
StartChar: quotedblleft
Encoding: 8220 8220 285
Width: 355
GlyphClass: 1
Flags: W
LayerCount: 2
Fore
SplineSet
211.5 456.5 m 128,-1,1
 195 473 195 473 195 495 c 0,2,3
 195 507 195 507 201 522 c 2,4,-1
 258 668 l 1,5,-1
 303 668 l 1,6,-1
 258 550 l 1,7,8
 278 548 278 548 292 532 c 128,-1,9
 306 516 306 516 306 495 c 0,10,11
 306 473 306 473 289.5 456.5 c 128,-1,12
 273 440 273 440 251 440 c 0,13,0
 228 440 228 440 211.5 456.5 c 128,-1,1
65 456.5 m 128,-1,15
 49 473 49 473 49 495 c 0,16,17
 49 507 49 507 55 522 c 2,18,-1
 111 668 l 1,19,-1
 157 668 l 1,20,-1
 112 550 l 1,21,22
 132 548 132 548 146 532 c 128,-1,23
 160 516 160 516 160 495 c 0,24,25
 160 473 160 473 143.5 456.5 c 128,-1,26
 127 440 127 440 105 440 c 0,27,14
 81 440 81 440 65 456.5 c 128,-1,15
EndSplineSet
EndChar
StartChar: quotedblright
Encoding: 8221 8221 286
Width: 355
GlyphClass: 1
Flags: W
LayerCount: 2
Fore
SplineSet
209 588 m 128,-1,1
 195 604 195 604 195 625 c 0,2,3
 195 647 195 647 211.5 663.5 c 128,-1,4
 228 680 228 680 250 680 c 0,5,6
 274 680 274 680 290 663.5 c 128,-1,7
 306 647 306 647 306 625 c 0,8,9
 306 613 306 613 300 598 c 2,10,-1
 244 452 l 1,11,-1
 198 452 l 1,12,-1
 244 570 l 1,13,0
 223 572 223 572 209 588 c 128,-1,1
63 588 m 128,-1,15
 49 604 49 604 49 625 c 0,16,17
 49 647 49 647 65.5 663.5 c 128,-1,18
 82 680 82 680 104 680 c 0,19,20
 128 680 128 680 144 663.5 c 128,-1,21
 160 647 160 647 160 625 c 0,22,23
 160 613 160 613 154 598 c 2,24,-1
 98 452 l 1,25,-1
 52 452 l 1,26,-1
 97 570 l 1,27,14
 77 572 77 572 63 588 c 128,-1,15
EndSplineSet
EndChar
StartChar: quotedblbase
Encoding: 8222 8222 284
Width: 355
GlyphClass: 1
Flags: W
LayerCount: 2
Fore
SplineSet
209 7 m 128,-1,1
 195 23 195 23 195 43 c 0,2,3
 195 66 195 66 211.5 82.5 c 128,-1,4
 228 99 228 99 250 99 c 0,5,6
 274 99 274 99 290 82.5 c 128,-1,7
 306 66 306 66 306 44 c 0,8,9
 306 32 306 32 300 17 c 2,10,-1
 244 -129 l 1,11,-1
 198 -129 l 1,12,-1
 244 -12 l 1,13,0
 223 -9 223 -9 209 7 c 128,-1,1
63 7 m 128,-1,15
 49 23 49 23 49 43 c 0,16,17
 49 66 49 66 65.5 82.5 c 128,-1,18
 82 99 82 99 104 99 c 0,19,20
 128 99 128 99 144 82.5 c 128,-1,21
 160 66 160 66 160 44 c 0,22,23
 160 32 160 32 154 17 c 2,24,-1
 98 -129 l 1,25,-1
 52 -129 l 1,26,-1
 97 -12 l 1,27,14
 77 -9 77 -9 63 7 c 128,-1,15
EndSplineSet
EndChar
StartChar: dagger
Encoding: 8224 8224 307
Width: 525
GlyphClass: 1
Flags: W
LayerCount: 2
Fore
SplineSet
229 431 m 1,0,-1
 40 431 l 1,1,-1
 40 496 l 1,2,-1
 229 496 l 1,3,-1
 229 668 l 1,4,-1
 296 668 l 1,5,-1
 296 496 l 1,6,-1
 485 496 l 1,7,-1
 485 431 l 1,8,-1
 296 431 l 1,9,-1
 296 0 l 1,10,-1
 229 0 l 1,11,-1
 229 431 l 1,0,-1
EndSplineSet
EndChar
StartChar: daggerdbl
Encoding: 8225 8225 309
Width: 527
GlyphClass: 1
Flags: W
LayerCount: 2
Fore
SplineSet
232 171 m 1,0,-1
 40 171 l 1,1,-1
 40 240 l 1,2,-1
 232 240 l 1,3,-1
 232 426 l 1,4,-1
 40 426 l 1,5,-1
 40 496 l 1,6,-1
 232 496 l 1,7,-1
 232 668 l 1,8,-1
 295 668 l 1,9,-1
 295 496 l 1,10,-1
 487 496 l 1,11,-1
 487 426 l 1,12,-1
 295 426 l 1,13,-1
 295 240 l 1,14,-1
 487 240 l 1,15,-1
 487 171 l 1,16,-1
 295 171 l 1,17,-1
 295 0 l 1,18,-1
 232 0 l 1,19,-1
 232 171 l 1,0,-1
EndSplineSet
EndChar
StartChar: bullet
Encoding: 8226 8226 268
Width: 438
GlyphClass: 1
Flags: W
LayerCount: 2
Fore
SplineSet
136 110.5 m 128,-1,1
 98 133 98 133 75.5 171 c 128,-1,2
 53 209 53 209 53 254 c 256,3,4
 53 299 53 299 75.5 337 c 128,-1,5
 98 375 98 375 136 397.5 c 128,-1,6
 174 420 174 420 219 420 c 256,7,8
 264 420 264 420 302 397.5 c 128,-1,9
 340 375 340 375 362.5 337 c 128,-1,10
 385 299 385 299 385 254 c 256,11,12
 385 209 385 209 362.5 171 c 128,-1,13
 340 133 340 133 302 110.5 c 128,-1,14
 264 88 264 88 219 88 c 256,15,0
 174 88 174 88 136 110.5 c 128,-1,1
EndSplineSet
EndChar
StartChar: perthousand
Encoding: 8240 8240 342
Width: 1293
GlyphClass: 1
Flags: W
LayerCount: 2
Fore
SplineSet
645 668 m 1,0,-1
 719 668 l 1,1,-1
 245 0 l 1,2,-1
 172 0 l 1,3,-1
 645 668 l 1,0,-1
127 349.5 m 128,-1,5
 86 373 86 373 62 413.5 c 128,-1,6
 38 454 38 454 38 503 c 0,7,8
 38 551 38 551 62 591.5 c 128,-1,9
 86 632 86 632 127 656 c 128,-1,10
 168 680 168 680 216 680 c 256,11,12
 264 680 264 680 305 656 c 128,-1,13
 346 632 346 632 370 591.5 c 128,-1,14
 394 551 394 551 394 503 c 0,15,16
 394 454 394 454 370 413.5 c 128,-1,17
 346 373 346 373 305 349.5 c 128,-1,18
 264 326 264 326 216 326 c 256,19,4
 168 326 168 326 127 349.5 c 128,-1,5
298.5 421 m 128,-1,21
 332 455 332 455 332 503 c 256,22,23
 332 551 332 551 298.5 585 c 128,-1,24
 265 619 265 619 216 619 c 256,25,26
 167 619 167 619 133 585 c 128,-1,27
 99 551 99 551 99 503 c 256,28,29
 99 455 99 455 133 421 c 128,-1,30
 167 387 167 387 216 387 c 256,31,20
 265 387 265 387 298.5 421 c 128,-1,21
587.5 12 m 128,-1,33
 547 36 547 36 523 76.5 c 128,-1,34
 499 117 499 117 499 165 c 0,35,36
 499 214 499 214 523 254.5 c 128,-1,37
 547 295 547 295 587.5 318.5 c 128,-1,38
 628 342 628 342 677 342 c 0,39,40
 725 342 725 342 766 318.5 c 128,-1,41
 807 295 807 295 830.5 254.5 c 128,-1,42
 854 214 854 214 854 165 c 0,43,44
 854 117 854 117 830 76.5 c 128,-1,45
 806 36 806 36 765.5 12 c 128,-1,46
 725 -12 725 -12 677 -12 c 0,47,32
 628 -12 628 -12 587.5 12 c 128,-1,33
759 83 m 128,-1,49
 793 117 793 117 793 165 c 256,50,51
 793 213 793 213 759 247 c 128,-1,52
 725 281 725 281 677 281 c 0,53,54
 628 281 628 281 594 247 c 128,-1,55
 560 213 560 213 560 165 c 256,56,57
 560 117 560 117 594 83 c 128,-1,58
 628 49 628 49 677 49 c 0,59,48
 725 49 725 49 759 83 c 128,-1,49
988.5 12 m 128,-1,61
 948 36 948 36 924 76.5 c 128,-1,62
 900 117 900 117 900 165 c 0,63,64
 900 214 900 214 923.5 254.5 c 128,-1,65
 947 295 947 295 988 318.5 c 128,-1,66
 1029 342 1029 342 1077 342 c 0,67,68
 1126 342 1126 342 1166.5 318.5 c 128,-1,69
 1207 295 1207 295 1231 254.5 c 128,-1,70
 1255 214 1255 214 1255 165 c 0,71,72
 1255 117 1255 117 1231 76.5 c 128,-1,73
 1207 36 1207 36 1166.5 12 c 128,-1,74
 1126 -12 1126 -12 1077 -12 c 0,75,60
 1029 -12 1029 -12 988.5 12 c 128,-1,61
1160 83 m 128,-1,77
 1194 117 1194 117 1194 165 c 256,78,79
 1194 213 1194 213 1160 247 c 128,-1,80
 1126 281 1126 281 1077 281 c 0,81,82
 1029 281 1029 281 995 247 c 128,-1,83
 961 213 961 213 961 165 c 256,84,85
 961 117 961 117 995 83 c 128,-1,86
 1029 49 1029 49 1077 49 c 0,87,76
 1126 49 1126 49 1160 83 c 128,-1,77
EndSplineSet
EndChar
StartChar: guilsinglleft
Encoding: 8249 8249 291
Width: 339
GlyphClass: 1
Flags: W
LayerCount: 2
Fore
SplineSet
56 250 m 1,0,-1
 204 460 l 1,1,-1
 283 460 l 1,2,-1
 134 250 l 1,3,-1
 283 40 l 1,4,-1
 204 40 l 1,5,-1
 56 250 l 1,0,-1
EndSplineSet
EndChar
StartChar: guilsinglright
Encoding: 8250 8250 292
Width: 339
GlyphClass: 1
Flags: W
LayerCount: 2
Fore
SplineSet
205 250 m 1,0,-1
 56 460 l 1,1,-1
 135 460 l 1,2,-1
 283 250 l 1,3,-1
 135 40 l 1,4,-1
 56 40 l 1,5,-1
 205 250 l 1,0,-1
EndSplineSet
EndChar
StartChar: Euro
Encoding: 8364 8364 314
Width: 665
GlyphClass: 1
Flags: W
LayerCount: 2
Fore
SplineSet
201.5 55.5 m 128,-1,1
 133 124 133 124 114 243 c 1,2,-1
 23 243 l 1,3,-1
 47 287 l 1,4,-1
 109 287 l 1,5,6
 107 307 107 307 107 340 c 0,7,8
 107 366 107 366 108 380 c 1,9,-1
 23 380 l 1,10,-1
 47 425 l 1,11,-1
 114 425 l 1,12,13
 136 543 136 543 209 612.5 c 128,-1,14
 282 682 282 682 388 682 c 0,15,16
 465 682 465 682 527 642 c 128,-1,17
 589 602 589 602 621 529 c 1,18,-1
 558 506 l 1,19,20
 536 558 536 558 492 588.5 c 128,-1,21
 448 619 448 619 384 619 c 0,22,23
 303 619 303 619 252.5 567 c 128,-1,24
 202 515 202 515 185 425 c 1,25,-1
 450 425 l 1,26,-1
 426 380 l 1,27,-1
 179 380 l 1,28,29
 177 348 177 348 177 332 c 0,30,31
 177 319 177 319 179 287 c 1,32,-1
 380 287 l 1,33,-1
 356 243 l 1,34,-1
 186 243 l 1,35,36
 204 154 204 154 255.5 102 c 128,-1,37
 307 50 307 50 384 50 c 0,38,39
 450 50 450 50 494 80 c 128,-1,40
 538 110 538 110 562 161 c 1,41,-1
 624 138 l 1,42,43
 592 64 592 64 528 25.5 c 128,-1,44
 464 -13 464 -13 381 -13 c 0,45,0
 270 -13 270 -13 201.5 55.5 c 128,-1,1
EndSplineSet
EndChar
StartChar: uni20B9
Encoding: 8377 8377 315
Width: 530
GlyphClass: 1
Flags: W
LayerCount: 2
Fore
SplineSet
74 291 m 1,0,-1
 74 339 l 1,1,-1
 123 339 l 2,2,3
 209 339 209 339 257 365.5 c 128,-1,4
 305 392 305 392 312 450 c 1,5,-1
 74 450 l 1,6,-1
 74 495 l 1,7,-1
 312 495 l 1,8,9
 304 551 304 551 256 579 c 128,-1,10
 208 607 208 607 123 607 c 2,11,-1
 74 607 l 1,12,-1
 74 668 l 1,13,-1
 479 668 l 1,14,-1
 479 623 l 1,15,-1
 302 623 l 1,16,17
 377 580 377 580 386 495 c 1,18,-1
 479 495 l 1,19,-1
 479 450 l 1,20,-1
 386 450 l 1,21,22
 372 305 372 305 178 284 c 1,23,-1
 477 0 l 1,24,-1
 381 0 l 1,25,-1
 74 291 l 1,0,-1
EndSplineSet
EndChar
StartChar: uni2113
Encoding: 8467 8467 308
Width: 435
GlyphClass: 1
Flags: W
LayerCount: 2
Fore
SplineSet
152.5 25.5 m 128,-1,1
 123 63 123 63 123 145 c 2,2,-1
 123 196 l 1,3,-1
 56 145 l 1,4,-1
 56 219 l 1,5,-1
 123 271 l 1,6,-1
 123 517 l 2,7,8
 123 680 123 680 251 680 c 0,9,10
 307 680 307 680 338 641 c 128,-1,11
 369 602 369 602 369 540 c 0,12,13
 369 453 369 453 325.5 385.5 c 128,-1,14
 282 318 282 318 189 245 c 1,15,-1
 189 143 l 2,16,17
 189 47 189 47 258 47 c 0,18,19
 303 47 303 47 349 88 c 1,20,-1
 381 39 l 1,21,22
 357 16 357 16 323.5 2 c 128,-1,23
 290 -12 290 -12 255 -12 c 0,24,0
 182 -12 182 -12 152.5 25.5 c 128,-1,1
305 539 m 0,26,27
 305 581 305 581 290 602.5 c 128,-1,28
 275 624 275 624 248 624 c 0,29,30
 219 624 219 624 204 601 c 128,-1,31
 189 578 189 578 189 523 c 2,32,-1
 189 324 l 1,33,25
 305 411 305 411 305 539 c 0,26,27
EndSplineSet
EndChar
StartChar: trademark
Encoding: 8482 8482 303
Width: 840
GlyphClass: 1
Flags: W
LayerCount: 2
Fore
SplineSet
380 668 m 1,0,-1
 470 668 l 1,1,-1
 570 374 l 1,2,-1
 671 668 l 1,3,-1
 759 668 l 1,4,-1
 759 305 l 1,5,-1
 705 305 l 1,6,-1
 705 603 l 1,7,-1
 600 305 l 1,8,-1
 540 305 l 1,9,-1
 436 603 l 1,10,-1
 436 305 l 1,11,-1
 380 305 l 1,12,-1
 380 668 l 1,0,-1
163 618 m 1,13,-1
 45 618 l 1,14,-1
 45 668 l 1,15,-1
 335 668 l 1,16,-1
 335 618 l 1,17,-1
 217 618 l 1,18,-1
 217 305 l 1,19,-1
 163 305 l 1,20,-1
 163 618 l 1,13,-1
EndSplineSet
EndChar
StartChar: estimated
Encoding: 8494 8494 310
Width: 628
GlyphClass: 1
Flags: W
LayerCount: 2
Fore
SplineSet
193 18 m 128,-1,1
 134 48 134 48 95.5 109 c 128,-1,2
 57 170 57 170 57 258 c 0,3,4
 57 315 57 315 89.5 372 c 128,-1,5
 122 429 122 429 180.5 465.5 c 128,-1,6
 239 502 239 502 314 502 c 0,7,8
 384 502 384 502 442.5 468 c 128,-1,9
 501 434 501 434 536 375 c 128,-1,10
 571 316 571 316 571 247 c 1,11,-1
 154 247 l 1,12,-1
 154 71 l 1,13,14
 221 9 221 9 314 9 c 0,15,16
 366 9 366 9 411.5 30 c 128,-1,17
 457 51 457 51 490 89 c 1,18,-1
 513 83 l 1,19,20
 477 39 477 39 425.5 13.5 c 128,-1,21
 374 -12 374 -12 314 -12 c 0,22,0
 252 -12 252 -12 193 18 c 128,-1,1
474 269 m 1,23,-1
 474 418 l 1,24,25
 442 448 442 448 400.5 464.5 c 128,-1,26
 359 481 359 481 314 481 c 0,27,28
 268 481 268 481 227 464.5 c 128,-1,29
 186 448 186 448 154 418 c 1,30,-1
 154 269 l 1,31,-1
 474 269 l 1,23,-1
EndSplineSet
EndChar
StartChar: partialdiff
Encoding: 8706 8706 340
Width: 580
GlyphClass: 1
Flags: W
LayerCount: 2
Fore
SplineSet
181 15 m 128,-1,1
 127 42 127 42 92 99 c 128,-1,2
 57 156 57 156 57 241 c 256,3,4
 57 326 57 326 91 382.5 c 128,-1,5
 125 439 125 439 177.5 465.5 c 128,-1,6
 230 492 230 492 288 492 c 0,7,8
 341 492 341 492 384 469.5 c 128,-1,9
 427 447 427 447 448 403 c 1,10,11
 436 488 436 488 387.5 536.5 c 128,-1,12
 339 585 339 585 274 602 c 128,-1,13
 209 619 209 619 140 614 c 1,14,-1
 140 680 l 1,15,16
 290 680 290 680 374.5 628.5 c 128,-1,17
 459 577 459 577 491 490.5 c 128,-1,18
 523 404 523 404 523 284 c 0,19,20
 523 172 523 172 488 106 c 128,-1,21
 453 40 453 40 401 14 c 128,-1,22
 349 -12 349 -12 293 -12 c 0,23,0
 235 -12 235 -12 181 15 c 128,-1,1
368 68 m 128,-1,25
 405 88 405 88 428 131 c 128,-1,26
 451 174 451 174 451 240 c 0,27,28
 451 305 451 305 428 348 c 128,-1,29
 405 391 405 391 368 411 c 128,-1,30
 331 431 331 431 290 431 c 0,31,32
 250 431 250 431 213 411 c 128,-1,33
 176 391 176 391 152.5 348 c 128,-1,34
 129 305 129 305 129 240 c 0,35,36
 129 174 129 174 152.5 131 c 128,-1,37
 176 88 176 88 213 68 c 128,-1,38
 250 48 250 48 290 48 c 0,39,24
 331 48 331 48 368 68 c 128,-1,25
EndSplineSet
EndChar
StartChar: product
Encoding: 8719 8719 337
Width: 578
GlyphClass: 1
Flags: W
LayerCount: 2
Fore
SplineSet
57 668 m 1,0,-1
 521 668 l 1,1,-1
 521 -162 l 1,2,-1
 452 -162 l 1,3,-1
 452 597 l 1,4,-1
 124 597 l 1,5,-1
 124 -162 l 1,6,-1
 57 -162 l 1,7,-1
 57 668 l 1,0,-1
EndSplineSet
EndChar
StartChar: summation
Encoding: 8721 8721 338
Width: 579
GlyphClass: 1
Flags: W
LayerCount: 2
Fore
SplineSet
56 -94 m 1,0,-1
 304 253 l 1,1,-1
 56 600 l 1,2,-1
 56 668 l 1,3,-1
 522 668 l 1,4,-1
 522 600 l 1,5,-1
 138 600 l 1,6,-1
 385 253 l 1,7,-1
 138 -94 l 1,8,-1
 522 -94 l 1,9,-1
 522 -162 l 1,10,-1
 56 -162 l 1,11,-1
 56 -94 l 1,0,-1
EndSplineSet
EndChar
StartChar: minus
Encoding: 8722 8722 321
Width: 606
GlyphClass: 1
Flags: W
LayerCount: 2
Fore
SplineSet
55 281 m 1,0,-1
 551 281 l 1,1,-1
 551 217 l 1,2,-1
 55 217 l 1,3,-1
 55 281 l 1,0,-1
EndSplineSet
EndChar
StartChar: radical
Encoding: 8730 8730 339
Width: 547
GlyphClass: 1
Flags: W
LayerCount: 2
Fore
SplineSet
152 160 m 1,0,-1
 56 160 l 1,1,-1
 56 225 l 1,2,-1
 199 225 l 1,3,-1
 308 -57 l 1,4,-1
 418 668 l 1,5,-1
 490 668 l 1,6,-1
 358 -162 l 1,7,-1
 275 -162 l 1,8,-1
 152 160 l 1,0,-1
EndSplineSet
EndChar
StartChar: infinity
Encoding: 8734 8734 335
Width: 780
GlyphClass: 1
Flags: W
LayerCount: 2
Fore
SplineSet
98 149 m 128,-1,1
 56 191 56 191 56 256 c 256,2,3
 56 321 56 321 98 363 c 128,-1,4
 140 405 140 405 210 405 c 0,5,6
 261 405 261 405 303.5 378.5 c 128,-1,7
 346 352 346 352 390 304 c 1,8,9
 434 352 434 352 476.5 378.5 c 128,-1,10
 519 405 519 405 570 405 c 0,11,12
 640 405 640 405 682.5 363 c 128,-1,13
 725 321 725 321 725 256 c 256,14,15
 725 191 725 191 682.5 149 c 128,-1,16
 640 107 640 107 570 107 c 0,17,18
 519 107 519 107 476.5 133.5 c 128,-1,19
 434 160 434 160 390 208 c 1,20,21
 346 160 346 160 303.5 133.5 c 128,-1,22
 261 107 261 107 210 107 c 0,23,0
 140 107 140 107 98 149 c 128,-1,1
279 187.5 m 128,-1,25
 309 206 309 206 350 256 c 1,26,27
 309 306 309 306 279 324.5 c 128,-1,28
 249 343 249 343 213 343 c 0,29,30
 174 343 174 343 147 317.5 c 128,-1,31
 120 292 120 292 120 256 c 256,32,33
 120 220 120 220 147 194.5 c 128,-1,34
 174 169 174 169 213 169 c 0,35,24
 249 169 249 169 279 187.5 c 128,-1,25
634 194.5 m 128,-1,37
 661 220 661 220 661 256 c 256,38,39
 661 292 661 292 634 317.5 c 128,-1,40
 607 343 607 343 568 343 c 0,41,42
 531 343 531 343 501 324.5 c 128,-1,43
 471 306 471 306 430 256 c 1,44,45
 471 206 471 206 501 187.5 c 128,-1,46
 531 169 531 169 568 169 c 0,47,36
 607 169 607 169 634 194.5 c 128,-1,37
EndSplineSet
EndChar
StartChar: integral
Encoding: 8747 8747 336
Width: 450
GlyphClass: 1
Flags: W
LayerCount: 2
Fore
SplineSet
76.5 -155.5 m 128,-1,1
 55 -139 55 -139 55 -114 c 0,2,3
 55 -94 55 -94 68.5 -80.5 c 128,-1,4
 82 -67 82 -67 104 -67 c 256,5,6
 126 -67 126 -67 139.5 -80.5 c 128,-1,7
 153 -94 153 -94 153 -117 c 0,8,9
 153 -127 153 -127 150 -134 c 1,10,11
 187 -127 187 -127 188 -37 c 2,12,-1
 192 491 l 2,13,14
 193 601 193 601 226 641.5 c 128,-1,15
 259 682 259 682 315 682 c 0,16,17
 352 682 352 682 373.5 665 c 128,-1,18
 395 648 395 648 395 624 c 0,19,20
 395 604 395 604 381.5 590.5 c 128,-1,21
 368 577 368 577 346 577 c 256,22,23
 324 577 324 577 310.5 590.5 c 128,-1,24
 297 604 297 604 297 627 c 0,25,26
 297 635 297 635 300 644 c 1,27,28
 263 637 263 637 262 547 c 2,29,-1
 257 18 l 2,30,31
 256 -91 256 -91 223.5 -131.5 c 128,-1,32
 191 -172 191 -172 135 -172 c 0,33,0
 98 -172 98 -172 76.5 -155.5 c 128,-1,1
EndSplineSet
EndChar
StartChar: approxequal
Encoding: 8776 8776 331
Width: 561
GlyphClass: 1
Flags: W
LayerCount: 2
Fore
SplineSet
79.5 195 m 128,-1,1
 110 226 110 226 166 226 c 0,2,3
 194 226 194 226 222.5 217 c 128,-1,4
 251 208 251 208 291 192 c 0,5,6
 329 177 329 177 351.5 169.5 c 128,-1,7
 374 162 374 162 395 162 c 0,8,9
 455 162 455 162 461 232 c 1,10,-1
 519 218 l 1,11,12
 504 100 504 100 395 100 c 0,13,14
 368 100 368 100 340.5 109 c 128,-1,15
 313 118 313 118 271 135 c 0,16,17
 231 151 231 151 209 158 c 128,-1,18
 187 165 187 165 166 165 c 0,19,20
 106 165 106 165 100 95 c 1,21,-1
 42 109 l 1,22,0
 49 164 49 164 79.5 195 c 128,-1,1
79.5 384.5 m 128,-1,24
 110 416 110 416 166 416 c 0,25,26
 193 416 193 416 221 407 c 128,-1,27
 249 398 249 398 291 381 c 0,28,29
 329 366 329 366 351.5 358.5 c 128,-1,30
 374 351 374 351 395 351 c 0,31,32
 455 351 455 351 461 421 c 1,33,-1
 519 407 l 1,34,35
 504 289 504 289 395 289 c 0,36,37
 368 289 368 289 340.5 298 c 128,-1,38
 313 307 313 307 271 324 c 0,39,40
 231 340 231 340 209 347 c 128,-1,41
 187 354 187 354 166 354 c 0,42,43
 106 354 106 354 100 284 c 1,44,-1
 42 298 l 1,45,23
 49 353 49 353 79.5 384.5 c 128,-1,24
EndSplineSet
EndChar
StartChar: notequal
Encoding: 8800 8800 325
Width: 628
GlyphClass: 1
Flags: W
LayerCount: 2
Fore
SplineSet
190 128 m 1,0,-1
 66 128 l 1,1,-1
 66 192 l 1,2,-1
 235 192 l 1,3,-1
 318 312 l 1,4,-1
 66 312 l 1,5,-1
 66 375 l 1,6,-1
 363 375 l 1,7,-1
 448 496 l 1,8,-1
 527 496 l 1,9,-1
 442 375 l 1,10,-1
 562 375 l 1,11,-1
 562 312 l 1,12,-1
 398 312 l 1,13,-1
 314 192 l 1,14,-1
 562 192 l 1,15,-1
 562 128 l 1,16,-1
 270 128 l 1,17,-1
 180 0 l 1,18,-1
 100 0 l 1,19,-1
 190 128 l 1,0,-1
EndSplineSet
EndChar
StartChar: lessequal
Encoding: 8804 8804 329
Width: 575
GlyphClass: 1
Flags: W
LayerCount: 2
Fore
SplineSet
56 266 m 1,0,-1
 56 326 l 1,1,-1
 519 493 l 1,2,-1
 519 418 l 1,3,-1
 147 296 l 1,4,-1
 519 174 l 1,5,-1
 519 100 l 1,6,-1
 56 266 l 1,0,-1
56 66 m 1,7,-1
 519 66 l 1,8,-1
 519 0 l 1,9,-1
 56 0 l 1,10,-1
 56 66 l 1,7,-1
EndSplineSet
EndChar
StartChar: lozenge
Encoding: 9674 9674 343
Width: 549
GlyphClass: 1
Flags: W
LayerCount: 2
Fore
SplineSet
57 316 m 1,0,-1
 275 699 l 1,1,-1
 492 316 l 1,2,-1
 275 -68 l 1,3,-1
 57 316 l 1,0,-1
419 316 m 1,4,-1
 275 569 l 1,5,-1
 129 316 l 1,6,-1
 275 63 l 1,7,-1
 419 316 l 1,4,-1
EndSplineSet
EndChar
StartChar: musicalnote
Encoding: 9834 9834 296
Width: 632
GlyphClass: 1
Flags: W
LayerCount: 2
Fore
SplineSet
125 20 m 128,-1,1
 96 50 96 50 96 93 c 256,2,3
 96 136 96 136 126 166.5 c 128,-1,4
 156 197 156 197 199 197 c 0,5,6
 236 197 236 197 263 175 c 1,7,-1
 263 668 l 1,8,-1
 303 668 l 1,9,10
 306 636 306 636 320.5 610.5 c 128,-1,11
 335 585 335 585 357.5 564 c 128,-1,12
 380 543 380 543 423 508 c 0,13,14
 479 463 479 463 509.5 422.5 c 128,-1,15
 540 382 540 382 540 328 c 0,16,17
 540 307 540 307 528.5 278 c 128,-1,18
 517 249 517 249 494 218 c 1,19,-1
 490 219 l 1,20,21
 477 300 477 300 427 354.5 c 128,-1,22
 377 409 377 409 303 436 c 1,23,-1
 303 113 l 2,24,25
 303 54 303 54 273 22 c 128,-1,26
 243 -10 243 -10 196 -10 c 0,27,0
 154 -10 154 -10 125 20 c 128,-1,1
EndSplineSet
EndChar
StartChar: acutecomb.case
Encoding: 65553 -1 352
Width: 0
GlyphClass: 4
Flags: W
AnchorPoint: "Anchor-5" 68 859 basemark 0
AnchorPoint: "Anchor-5" 68 668 mark 0
AnchorPoint: "Anchor-1" 68 668 mark 0
LayerCount: 2
Fore
SplineSet
149.5 844.5 m 128,-1,1
 159 850 159 850 169 850 c 0,2,3
 182 850 182 850 191 842 c 128,-1,4
 200 834 200 834 200 821 c 0,5,6
 200 809 200 809 191.5 800 c 128,-1,7
 183 791 183 791 158 776 c 2,8,-1
 101 741 l 1,9,-1
 39 741 l 1,10,-1
 126 826 l 2,11,0
 140 839 140 839 149.5 844.5 c 128,-1,1
EndSplineSet
EndChar
StartChar: gravecomb.case
Encoding: 65552 -1 350
Width: 0
GlyphClass: 4
Flags: W
AnchorPoint: "Anchor-5" 171 859 basemark 0
AnchorPoint: "Anchor-5" 171 668 mark 0
AnchorPoint: "Anchor-1" 171 668 mark 0
LayerCount: 2
Fore
SplineSet
47.5 800 m 128,-1,1
 39 809 39 809 39 821 c 0,2,3
 39 834 39 834 48 842 c 128,-1,4
 57 850 57 850 70 850 c 0,5,6
 80 850 80 850 89.5 844.5 c 128,-1,7
 99 839 99 839 113 826 c 2,8,-1
 200 741 l 1,9,-1
 138 741 l 1,10,-1
 81 776 l 2,11,0
 56 791 56 791 47.5 800 c 128,-1,1
EndSplineSet
EndChar
StartChar: one.tf
Encoding: 65540 -1 240
Width: 632
GlyphClass: 1
Flags: W
LayerCount: 2
Fore
SplineSet
116 62 m 1,0,-1
 295 62 l 1,1,-1
 295 520 l 1,2,-1
 116 520 l 1,3,-1
 116 572 l 1,4,5
 203 572 203 572 251 592 c 128,-1,6
 299 612 299 612 318 668 c 1,7,-1
 363 668 l 1,8,-1
 363 62 l 1,9,-1
 526 62 l 1,10,-1
 526 0 l 1,11,-1
 116 0 l 1,12,-1
 116 62 l 1,0,-1
EndSplineSet
Substitution2: "'pnum' Proportional Numbers in Latin lookup 9 subtable" one
AlternateSubs2: "'aalt' Access All Alternates in Latin lookup 0 subtable" one
EndChar
StartChar: uni0307.case
Encoding: 65550 -1 347
Width: 0
GlyphClass: 4
Flags: W
AnchorPoint: "Anchor-5" 87 836 basemark 0
AnchorPoint: "Anchor-5" 87 668 mark 0
AnchorPoint: "Anchor-1" 87 668 mark 0
LayerCount: 2
Fore
SplineSet
53 753.5 m 128,-1,1
 39 768 39 768 39 788 c 256,2,3
 39 808 39 808 53.5 822 c 128,-1,4
 68 836 68 836 87 836 c 0,5,6
 107 836 107 836 121 822 c 128,-1,7
 135 808 135 808 135 788 c 256,8,9
 135 768 135 768 121 753.5 c 128,-1,10
 107 739 107 739 87 739 c 256,11,0
 67 739 67 739 53 753.5 c 128,-1,1
EndSplineSet
EndChar
StartChar: uni0307.large
Encoding: 65551 -1 348
Width: 0
GlyphClass: 4
Flags: W
AnchorPoint: "Anchor-5" 92 703 basemark 0
AnchorPoint: "Anchor-5" 92 496 mark 0
AnchorPoint: "Anchor-1" 92 496 mark 0
LayerCount: 2
Fore
SplineSet
54.5 611.5 m 128,-1,1
 39 627 39 627 39 649 c 256,2,3
 39 671 39 671 54.5 687 c 128,-1,4
 70 703 70 703 92 703 c 0,5,6
 115 703 115 703 130.5 687.5 c 128,-1,7
 146 672 146 672 146 649 c 0,8,9
 146 627 146 627 130 611.5 c 128,-1,10
 114 596 114 596 92 596 c 256,11,0
 70 596 70 596 54.5 611.5 c 128,-1,1
EndSplineSet
EndChar
StartChar: uni030A.case
Encoding: 65559 -1 363
Width: 0
GlyphClass: 4
Flags: W
AnchorPoint: "Anchor-5" 141 836 basemark 0
AnchorPoint: "Anchor-5" 141 668 mark 0
AnchorPoint: "Anchor-1" 141 668 mark 0
LayerCount: 2
Fore
SplineSet
69 663 m 128,-1,1
 39 693 39 693 39 735 c 256,2,3
 39 777 39 777 69 806.5 c 128,-1,4
 99 836 99 836 141 836 c 256,5,6
 183 836 183 836 212.5 806 c 128,-1,7
 242 776 242 776 242 735 c 0,8,9
 242 693 242 693 212.5 663 c 128,-1,10
 183 633 183 633 141 633 c 256,11,0
 99 633 99 633 69 663 c 128,-1,1
179 697.5 m 128,-1,13
 194 713 194 713 194 735 c 256,14,15
 194 757 194 757 178.5 772.5 c 128,-1,16
 163 788 163 788 141 788 c 256,17,18
 119 788 119 788 103 772.5 c 128,-1,19
 87 757 87 757 87 735 c 256,20,21
 87 713 87 713 102.5 697.5 c 128,-1,22
 118 682 118 682 141 682 c 256,23,12
 164 682 164 682 179 697.5 c 128,-1,13
EndSplineSet
EndChar
StartChar: uni030C.alt
Encoding: 65555 -1 355
Width: 0
GlyphClass: 4
Flags: W
AnchorPoint: "Anchor-3" 19 496 mark 0
LayerCount: 2
Fore
SplineSet
97 718 m 0,1,2
 111 718 111 718 120.5 710 c 128,-1,3
 130 702 130 702 130 688 c 0,4,5
 130 677 130 677 119 648 c 2,6,-1
 79 538 l 1,7,-1
 39 538 l 1,8,-1
 62 678 l 2,9,0
 67 718 67 718 97 718 c 0,1,2
EndSplineSet
EndChar
StartChar: uni0328.alt
Encoding: 65562 -1 372
Width: 0
GlyphClass: 4
Flags: W
AnchorPoint: "Anchor-2" 182 10 mark 0
LayerCount: 2
Fore
SplineSet
63 -148.5 m 128,-1,1
 39 -127 39 -127 39 -93 c 0,2,3
 39 -53 39 -53 62.5 -21 c 128,-1,4
 86 11 86 11 119 27 c 1,5,-1
 165 25 l 1,6,7
 133 7 133 7 114.5 -19 c 128,-1,8
 96 -45 96 -45 96 -75 c 0,9,10
 96 -97 96 -97 110 -109 c 128,-1,11
 124 -121 124 -121 147 -121 c 0,12,13
 167 -121 167 -121 182 -114 c 1,14,-1
 182 -160 l 1,15,16
 155 -170 155 -170 127 -170 c 0,17,0
 87 -170 87 -170 63 -148.5 c 128,-1,1
EndSplineSet
EndChar
StartChar: uni0328.case
Encoding: 65563 -1 373
Width: 0
GlyphClass: 4
Flags: W
AnchorPoint: "Anchor-2" 182 10 mark 0
LayerCount: 2
Fore
SplineSet
64.5 -149.5 m 128,-1,1
 39 -129 39 -129 39 -93 c 0,2,3
 39 -26 39 -26 117 11 c 1,4,-1
 182 0 l 1,5,6
 96 -28 96 -28 96 -79 c 0,7,8
 96 -100 96 -100 110 -110.5 c 128,-1,9
 124 -121 124 -121 147 -121 c 0,10,11
 167 -121 167 -121 182 -114 c 1,12,-1
 182 -160 l 1,13,14
 157 -170 157 -170 128 -170 c 0,15,0
 90 -170 90 -170 64.5 -149.5 c 128,-1,1
EndSplineSet
EndChar
